<svg xmlns="http://www.w3.org/2000/svg" viewBox="0 0 42.52 22.87"><defs><style>.cls-1{fill:#1d4c86;}</style></defs><title>icon-6</title><g id="Слой_2" data-name="Слой 2"><g id="Слой_2-2" data-name="Слой 2"><path class="cls-1" d="M41.61,20.72V10.84H39.38V6.46H37.11v-2H32.74V2.09H23.4V0H19.08V2.09H9.73V4.46H5.5v2H3.23v4.38H1v9.88H0v2.15H42.52V20.72Zm-1.09-8.79v8.79H39.38V11.93ZM38.29,7.55V20.72H37.11V7.55ZM32.74,20.72V16.36H31.65v4.36H28.36V16.36H27.27v4.36H24V16.36h-1.1v4.36H19.67V16.36H18.58v4.36H15.23V16.36H14.14v4.36H10.85V16.36H9.76v4.36H6.59V15.19H36v5.53ZM10.82,3.18H31.65V4.46H10.82ZM6.59,5.55H36V14.1H34.93V6.56h-1.1V14.1H32.74V6.56H31.65V14.1h-1.1V6.56H29.46V14.1h-1.1V6.56H27.27V14.1h-1.1V6.56H25.08V14.1H24V6.56H22.89V14.1h-1.1V6.56H20.7V14.1H19.61V6.56h-1.1V14.1H17.42V6.56H16.33V14.1h-1.1V6.56H14.14V14.1H13V6.56H12V14.1h-1.1V6.56H9.76V14.1H8.66V6.56H7.57V14.1h-1V5.55Zm-2.27,2H5.5V20.72H4.32V7.55ZM2.09,11.93H3.23v8.79H2.09Z"/></g></g></svg>