<svg xmlns="http://www.w3.org/2000/svg" viewBox="0 0 42.52 22.97"><defs><style>.cls-1{fill:#1d4c86;}</style></defs><title>icon-7</title><g id="Слой_2" data-name="Слой 2"><g id="Слой_2-2" data-name="Слой 2"><rect class="cls-1" x="3.28" y="9.89" width="3.28" height="1.09"/><rect class="cls-1" x="3.28" y="7.68" width="3.28" height="1.09"/><rect class="cls-1" x="3.28" y="12.07" width="3.28" height="1.09"/><rect class="cls-1" x="3.28" y="14.24" width="3.28" height="1.09"/><rect class="cls-1" x="3.28" y="16.42" width="3.28" height="1.09"/><rect class="cls-1" x="3.28" y="18.59" width="3.28" height="1.09"/><rect class="cls-1" x="35.96" y="9.89" width="3.28" height="1.09"/><rect class="cls-1" x="35.96" y="7.68" width="3.28" height="1.09"/><rect class="cls-1" x="35.96" y="12.07" width="3.28" height="1.09"/><rect class="cls-1" x="35.96" y="14.24" width="3.28" height="1.09"/><rect class="cls-1" x="35.96" y="16.42" width="3.28" height="1.09"/><rect class="cls-1" x="35.96" y="18.59" width="3.28" height="1.09"/><path class="cls-1" d="M41.38,20.83V3.33H33.82v1H29.39V5.47H26.2v-1h1V1.05H22.83V0H19.69V1.05H15.36V4.42h1v1H13.13V4.28H8.7v-1H1.14v17.5H0V23H42.52V20.83ZM12,18.59H8.7V17.51H12Zm0-2.17H8.7V15.34H12Zm0-2.18H8.7V13.16H12Zm0-2.17H8.7V11H12Zm0-2.18H8.7V7.66H12ZM8.7,20.83V19.69H12v1.14ZM13.13,8.75h1V20.83h-1Zm6.51,7.66h4.29v4.42H22.88V17.55h-1.1v3.28h-1V17.55h-1.1v3.28H18.59V16.41Zm-3.32,4.42H15.27V8.75h1.05ZM26.2,8.75h1.05V20.83H26.2Zm2.15,12.08V8.75h1V20.83Zm5.47-2.24H30.49V17.51h3.33Zm0-2.17H30.49V15.34h3.33Zm0-2.18H30.49V13.16h3.33Zm0-2.17H30.49V11h3.33Zm0-2.18H30.49V7.66h3.33ZM30.49,20.83V19.69h3.33v1.14Zm4.42,0V6.56h5.38V20.83ZM40.29,5.47H34.91v-1h5.38Zm-9.8-.09h3.33V6.56H30.49V5.38Zm-1.1,1.18v1.1H26.2V6.56ZM26.07,2.14V3.33H22.83V2.14Zm-9.62,0h3.24V3.33H16.45Zm1,2.28h7.7v9.89H24V5.51H22.88v8.8H21.83V5.51H20.69v8.8H19.64V5.51H18.55v8.8H17.41V4.42ZM16.32,6.56v1.1H13.13V6.56ZM12,5.38V6.56H8.7V5.38Zm-4.42-1v1H2.23v-1ZM2.23,6.56H7.61V20.83H2.23Z"/></g></g></svg>