<svg xmlns="http://www.w3.org/2000/svg" viewBox="0 0 42.52 39.07"><defs><style>.cls-1{fill:#1d4c86;}</style></defs><title>libra</title><g id="Слой_2" data-name="Слой 2"><g id="Слой_2-2" data-name="Слой 2"><path class="cls-1" d="M42.09,19.4,36.26,8.1,36.19,8a2.38,2.38,0,0,0-2-1.13H22V6.67a3.39,3.39,0,1,0-1.53,0v.22H8.36A2.38,2.38,0,0,0,6.33,8l-.07.08L.43,19.4a3.73,3.73,0,0,0,.42,4.11A8.73,8.73,0,0,0,7.35,26a8.74,8.74,0,0,0,6.51-2.53,3.73,3.73,0,0,0,.42-4.11l-5.67-11H20.49V32.62H12.4a2.15,2.15,0,0,0-2.15,2.15v2.14a2.16,2.16,0,0,0,2.15,2.16H30.11a2.16,2.16,0,0,0,2.16-2.16V34.77a2.16,2.16,0,0,0-2.16-2.15H22V8.43H33.91l-5.67,11a3.73,3.73,0,0,0,.42,4.11A8.73,8.73,0,0,0,35.16,26a8.74,8.74,0,0,0,6.51-2.53A3.73,3.73,0,0,0,42.09,19.4ZM7.35,24.51a7.2,7.2,0,0,1-5.34-2,2.16,2.16,0,0,1-.43-.87H13.12a2,2,0,0,1-.42.87A7.21,7.21,0,0,1,7.35,24.51Zm5.57-4.4H1.79L7,9.94H7l.31-.61L12.92,20.1ZM30.74,34.77v2.14a.63.63,0,0,1-.63.62H12.4a.62.62,0,0,1-.62-.62V34.77a.62.62,0,0,1,.62-.62H30.11A.63.63,0,0,1,30.74,34.77ZM19.41,3.38a1.85,1.85,0,1,1,1.85,1.85A1.85,1.85,0,0,1,19.41,3.38Zm15.75,6,.32.61h0L40.73,20.1H29.6Zm0,15.18a7.2,7.2,0,0,1-5.34-2,2.16,2.16,0,0,1-.43-.87H40.93a2,2,0,0,1-.42.87A7.21,7.21,0,0,1,35.16,24.51Z"/></g></g></svg>