<svg xmlns="http://www.w3.org/2000/svg" viewBox="0 0 35.46 42.52"><defs><style>.cls-1{fill:#1d4c86;}</style></defs><title>icon-1</title><g id="Слой_2" data-name="Слой 2"><g id="Слой_2-2" data-name="Слой 2"><path class="cls-1" d="M22.88,14.49a1.53,1.53,0,0,0-1.42-.26,2.13,2.13,0,0,1,.94-.56A1,1,0,0,1,22.88,14.49Zm1.39-1.59c-.29-1.53-3.85-.51-5.64-1.16,0,.44.55,1.16,1.11,1.42a7,7,0,0,0-2,4.57,7,7,0,0,0-2-4.57c.56-.26,1.15-1,1.11-1.42-1.79.65-5.35-.37-5.64,1.17a1.28,1.28,0,0,0,.26,1,.8.8,0,0,1,.69-.52c2.51-.38,4.6,3.49,2.71,5.06,0,0,0,.06,0,.06h5.67s.06,0,0-.06c-1.89-1.57.2-5.44,2.71-5.06a.8.8,0,0,1,.69.52,1.28,1.28,0,0,0,.26-1Zm.61-3.51c0-.15,1.43-.15,1.43.77,0,.62-.88.91-.88,1.55a.59.59,0,0,0,.42.52c-.23-1,.71-.49,1-.3-.5-1.39.63-1.38.52-2-.08-.44-1.06-.31-1.42-.53C25.28,9,24.53,7.44,24,9a1.17,1.17,0,0,1-.78,2.11,1.33,1.33,0,0,0,0,.2C24.65,11.23,25.14,10.2,24.88,9.39ZM8.64,11.93c.26-.19,1.19-.73,1,.3a.59.59,0,0,0,.42-.52c0-.64-.88-.93-.88-1.55,0-.92,1.47-.92,1.42-.77-.25.81.23,1.84,1.63,1.91a1.33,1.33,0,0,0,0-.2A1.17,1.17,0,0,1,11.42,9c-.5-1.55-1.24,0-1.88.4-.35.22-1.34.09-1.41.53-.12.63,1,.63.51,2Zm4,2.56A1.53,1.53,0,0,1,14,14.23a2.21,2.21,0,0,0-.95-.56,1.07,1.07,0,0,0-.47.82Zm5.81-8.58-.68-.83-.68.83.68.87.68-.87Zm3.87,2.5-.48-.59-.48.59L21.8,9l.48-.58Zm3.92,17-.61-.65-.62.65.62.57.61-.57Zm-12.06-17-.48-.59-.49.59.49.58.48-.58ZM12.76,11.3h1.8A2.3,2.3,0,0,0,17,9.56H18.5a2.29,2.29,0,0,0,2.4,1.74h1.8a3.62,3.62,0,0,0,.39-.64c.29-.76-.07-1.12-.6-1.12l-.69.62-.69-.62c-.53,0-.89.36-.6,1.12a1.93,1.93,0,0,0,.2.36,1.87,1.87,0,0,1-1.63-1.46,11,11,0,0,0,.59-1.05C20.09,7.42,19.55,7,18.75,7l-1,1.21L16.7,7c-.79,0-1.34.45-.91,1.54a11,11,0,0,0,.59,1.05A1.88,1.88,0,0,1,14.75,11a2.76,2.76,0,0,0,.2-.36c.28-.76-.08-1.12-.61-1.12l-.68.62L13,9.54c-.53,0-.89.36-.61,1.12a4.17,4.17,0,0,0,.4.64Zm18.61,5.58a9,9,0,0,1-5,.78c0-.13.05-.25.06-.38a12,12,0,0,0,4.06-1,2.3,2.3,0,0,0,.95-3,0,0,0,0,0-.07,0,9.47,9.47,0,0,1-4.88,2.87c0-.15,0-.29,0-.44a12.1,12.1,0,0,0,3.34-2.48,2.66,2.66,0,0,0,0-3.61s-.05,0-.07,0h0c-.29.48-3,4.85-6,6.74l-.11.06a.14.14,0,0,0,0,.23,1.62,1.62,0,0,1,.56,1.22,1.74,1.74,0,0,1-1.49,1.68A3.39,3.39,0,0,1,21,19.46s-.05,0-.05,0v2.64s.06.05.08,0A2.06,2.06,0,0,1,23,21a5.16,5.16,0,0,0,.87,2.35,1.51,1.51,0,0,0,2.17.22,0,0,0,0,0,0-.06h0a4.49,4.49,0,0,1-2.12-2.65,3.68,3.68,0,0,0,.35-.15A5.05,5.05,0,0,0,26,22.53a1.65,1.65,0,0,0,2.27-.45s0,0,0-.06A4.79,4.79,0,0,1,25,20.14a3.19,3.19,0,0,0,.26-.26,6.89,6.89,0,0,0,2.84,1.3c1,.14,2.1-.18,2.12-1.32a0,0,0,0,0,0,0A8.74,8.74,0,0,1,25.88,19a2.49,2.49,0,0,0,.16-.33,13.33,13.33,0,0,0,3.67.39,1.9,1.9,0,0,0,1.72-2.15s0,0-.06,0Zm-22,1.79c.05.11.1.22.16.33a8.7,8.7,0,0,1-4.3.82,0,0,0,0,0,0,0c0,1.14,1.14,1.46,2.12,1.32a6.89,6.89,0,0,0,2.84-1.3l.26.26A4.8,4.8,0,0,1,7.19,22s-.05,0,0,.06a1.66,1.66,0,0,0,2.28.45,5,5,0,0,0,1.8-1.84l.36.15a4.49,4.49,0,0,1-2.12,2.65,0,0,0,0,0,0,.05h0a1.5,1.5,0,0,0,2.16-.22A5,5,0,0,0,12.5,21a2.08,2.08,0,0,1,1.93,1.17s.08,0,.08,0V19.5a0,0,0,0,0-.06,0,3.36,3.36,0,0,1-1.65.14,1.74,1.74,0,0,1-1.49-1.68,1.64,1.64,0,0,1,.55-1.22.15.15,0,0,0,0-.23l-.11-.06c-3-1.89-5.67-6.26-6-6.74a0,0,0,0,0-.07,0h0a2.66,2.66,0,0,0,0,3.61A12,12,0,0,0,9,15.75c0,.15,0,.29,0,.44a9.5,9.5,0,0,1-4.88-2.87,0,0,0,0,0-.07,0,2.3,2.3,0,0,0,1,3,11.89,11.89,0,0,0,4.05,1c0,.13,0,.25.07.38a9,9,0,0,1-5-.78,0,0,0,0,0-.06,0,1.9,1.9,0,0,0,1.73,2.15,13.3,13.3,0,0,0,3.66-.39Zm16.18,8.15-.91-.71a1.54,1.54,0,0,0-.73,1c-.55.07-2-.26-1.89-.48,1.63-2.29.39-3.65-1.11-3.58v1.54a.93.93,0,0,1-1,.9H19a1.66,1.66,0,0,0-1.22.74,1.69,1.69,0,0,0-1.23-.74h-1a.93.93,0,0,1-1-.9V23c-1.5-.07-2.75,1.29-1.12,3.58.15.22-1.38.57-2.1.48a1,1,0,0,0-.76-.32,1,1,0,0,0-.38.07s-2.82-2.67-2.87-2.69l0-.06c.16-.3-.08-.63-.24-.6a1,1,0,0,0-.81-1.38c0,.19,0,.57,0,.57s-.77-.41-1.16-.05.14,1.13.14,1.13-.4,0-.59,0a1,1,0,0,0,1.45.71c0,.16.33.38.63.2l.13-.06S9.65,27.2,9.65,27.2a.94.94,0,0,0-.14.66,1,1,0,0,0,.79.78,1.1,1.1,0,0,0,.77-.12l.73.67a.31.31,0,0,0,.25.09.3.3,0,0,0,.29-.32.26.26,0,0,0-.09-.19l-.74-.69a5.19,5.19,0,0,1,2.65-.72.18.18,0,0,0,.18-.27c-.42-1,.48-1.74,1.42-1.15a3.14,3.14,0,0,1,1.13,1.63c-1.53.37-3.46,1.4-3.85,2.51-.15.44.35,1,1,1.14,0,0,0,0,0,0h0a4.56,4.56,0,0,1,3-3.12c.05.12,0,.08.08.21A4.21,4.21,0,0,0,14.88,31c-.13.55.48,1.05,1,1.19a0,0,0,0,0,.05,0,5.52,5.52,0,0,1,1.38-3.41l0,.35a11.12,11.12,0,0,0-.61,3c0,.59.86,1,1,1.05s1-.46,1-1.05a11,11,0,0,0-.62-3c0-.12,0-.23,0-.35a5.52,5.52,0,0,1,1.37,3.41s0,0,0,0h0c.51-.14,1.13-.64,1-1.19a4.24,4.24,0,0,0-2.28-2.7c0-.13,0-.09.07-.21a4.57,4.57,0,0,1,3.05,3.12,0,0,0,0,0,0,0c.6-.12,1.09-.7.94-1.14C22,29,20.1,27.94,18.56,27.57a3.14,3.14,0,0,1,1.14-1.63c.93-.59,1.84.14,1.42,1.15a.18.18,0,0,0,.18.27,4.67,4.67,0,0,1,2.85.89,1.74,1.74,0,0,0,1.62.74,1.64,1.64,0,0,0,1.49-1.38,1.52,1.52,0,0,0-.77-1.5l-.9.71Zm-6.68-4.6c.32-.12.83,0,.81.45a.08.08,0,1,0,.15,0c.1-.7-.37-.9-.86-.82-.07-.24-.12-.45-.17-.66s-.07-.48.13-.48.06.29.05.42,0,.18.12.18.13-.07.17-.12a.72.72,0,0,0,0-1.05,1,1,0,0,0-1.16.23,1.69,1.69,0,0,0-.23-.36c-.07-.07-.09-.13,0-.19a.41.41,0,0,0,.17-.29.23.23,0,0,0-.25-.22.3.3,0,0,0-.31.33.35.35,0,0,0,0,.17,1.6,1.6,0,0,0-.48,0l1.82,5a1.38,1.38,0,0,0,.9-1.1c0-.37-.55-.25-.81,0-.09-.47-.16-.9-.25-1.34,0-.12,0-.16.14-.2Zm-2.57-3.39.38,1.07c-.33.07-.86.31-.86.63s.75.69,1.18.66a.28.28,0,0,0,.07.26.93.93,0,0,0-.55.18.65.65,0,0,0-.75-.16c-.17.13-.18.35,0,.6a.42.42,0,0,1,0,.54c.52,0,.33-.67.53-.67a.81.81,0,0,0,.05.45.28.28,0,0,1,0,.29A2.71,2.71,0,0,0,16,24.12c-.17,0-.26,0-.2-.27s0-.15-.1-.05a.87.87,0,0,0-.11.41c0,.49.59.59.81.49a2.44,2.44,0,0,0,2.36.25l-2.25-6.18a.09.09,0,1,0-.17.06Zm-.08,5.09c-.05-.25.31-.71.76-1.15a1.06,1.06,0,0,0,.15.95,1.75,1.75,0,0,0-.91.2Z"/><path class="cls-1" d="M17.73,42.52l-1.94-2.16a1.83,1.83,0,0,0-1.34-.59h-11A3.48,3.48,0,0,1,0,36.29V1.45A1.45,1.45,0,0,1,1.45,0H34a1.45,1.45,0,0,1,1.45,1.45V36.29A3.48,3.48,0,0,1,32,39.77H21a1.83,1.83,0,0,0-1.34.59ZM1.45,1.44V36.29a2,2,0,0,0,2,2h11a3.26,3.26,0,0,1,2.41,1.07l.87,1,.87-1A3.24,3.24,0,0,1,21,38.33H32a2,2,0,0,0,2-2V1.45Z"/></g></g></svg>