<svg xmlns="http://www.w3.org/2000/svg" viewBox="0 0 42.52 21.82"><defs><style>.cls-1{fill:#1d4c86;}</style></defs><title>icon-5</title><g id="Слой_2" data-name="Слой 2"><g id="Слой_2-2" data-name="Слой 2"><rect class="cls-1" x="13.04" y="6.57" width="1.09" height="6.51"/><rect class="cls-1" x="15.22" y="6.57" width="1.09" height="6.51"/><rect class="cls-1" x="17.4" y="6.57" width="1.09" height="6.51"/><rect class="cls-1" x="19.57" y="6.57" width="1.09" height="6.51"/><rect class="cls-1" x="21.75" y="6.57" width="1.09" height="6.51"/><rect class="cls-1" x="23.93" y="6.57" width="1.09" height="6.51"/><rect class="cls-1" x="26.11" y="6.57" width="1.09" height="6.51"/><rect class="cls-1" x="28.29" y="6.57" width="1.09" height="6.51"/><path class="cls-1" d="M41.43,19.68V13.12H33.7v1.05H31.56V5.5h1.05V2.26H23.44V0H19V2.26H9.84V5.5h1.05v8.67H8.75V13.12H1.09v6.56H0v2.14H42.52V19.68Zm-1.09,0H38.11V15.32H37v4.36H34.79V14.21h5.55ZM12,3.35H30.47V4.41H12ZM12,5.5H30.47v8.67H12Zm-1.09,9.76H33.7v4.42H30.5V16.34H29.41v3.34h-3.3V16.34H25v3.34H21.77V16.34H20.68v3.34H17.43V16.34H16.34v3.34H13V16.34H12v3.34H8.75V15.26Zm-8.71-1H7.66v5.47H5.46V15.32H4.37v4.36H2.18Z"/></g></g></svg>