<svg xmlns="http://www.w3.org/2000/svg" viewBox="0 0 42.52 32.67"><defs><style>.cls-1{fill:#1d4c86;}</style></defs><title>icon-4</title><g id="Слой_2" data-name="Слой 2"><g id="Слой_2-2" data-name="Слой 2"><rect class="cls-1" x="20.72" y="9.73" width="1.09" height="2.21"/><rect class="cls-1" x="22.88" y="9.73" width="1.09" height="2.21"/><rect class="cls-1" x="18.55" y="9.73" width="1.09" height="2.21"/><path class="cls-1" d="M41.42,30.55V24H33.76v6.6H32.69v-12H27.31v-5.5H26.17V7.68H22.93V4.36H21.84V0H20.75V4.36H19.66V7.68H16.42v5.4H15.28v5.5H9.84v12H8.71V24H1.06v6.6H0v2.12H42.52V30.55ZM34.85,25h5.48v5.51H39.22V26.13H38.13v4.42H37.06V26.13H36v4.42H34.85ZM31.6,19.66V30.55H30.49v-9.8H29.4v9.8H28.28V19.66ZM24,28.28v2.27h-5.4V28.28Zm1.09,2.27V17.42H24v9.77H22.89V17.42H21.8v9.77H20.72V17.42H19.64v9.77H18.56V17.42H17.47V30.55h-1.1V16.31h9.85V30.55ZM17.51,8.77h7.57v4.31H17.51Zm-1.14,5.4h9.85v1.05H16.37Zm-5.44,5.49h3.31V30.55H13.13v-9.8H12v9.8H10.93ZM2.14,25H7.62v5.51H6.51V26.13H5.42v4.42H4.35V26.13H3.26v4.42H2.14Z"/></g></g></svg>