<svg xmlns="http://www.w3.org/2000/svg" viewBox="0 0 42.52 42.72"><defs><style>.cls-1{fill:#1d4c86;}</style></defs><title>icon-2</title><g id="Слой_2" data-name="Слой 2"><g id="Слой_2-2" data-name="Слой 2"><path class="cls-1" d="M29.11,14.34a2.37,2.37,0,0,0-2.16-.4,3.14,3.14,0,0,1,1.44-.84A1.58,1.58,0,0,1,29.11,14.34Zm2.13-2.41c-.44-2.34-5.87-.79-8.61-1.78-.05.68.84,1.77,1.7,2.18a10.63,10.63,0,0,0-3,7,10.58,10.58,0,0,0-3-7c.86-.41,1.76-1.5,1.7-2.18-2.73,1-8.17-.56-8.61,1.78a2,2,0,0,0,.41,1.47,1.2,1.2,0,0,1,1-.79c3.83-.58,7,5.32,4.14,7.71a.06.06,0,0,0,0,.1h8.65a.06.06,0,0,0,0-.1c-2.88-2.39.31-8.29,4.14-7.71a1.2,1.2,0,0,1,1,.79,2,2,0,0,0,.41-1.47Zm.93-5.37c-.07-.22,2.17-.22,2.17,1.18,0,.94-1.34,1.39-1.34,2.37a.91.91,0,0,0,.64.79c-.34-1.57,1.09-.75,1.47-.46-.77-2.11,1-2.1.79-3.06-.12-.68-1.62-.47-2.16-.82-1-.6-2.11-3-2.86-.6a1.78,1.78,0,0,1-1.19,3.21s0,.28,0,.31C31.82,9.37,32.56,7.81,32.17,6.56ZM7.41,10.44c.38-.29,1.81-1.11,1.47.46a.91.91,0,0,0,.64-.79c0-1-1.35-1.43-1.35-2.37,0-1.4,2.25-1.4,2.18-1.18-.39,1.25.35,2.81,2.47,2.92a1.68,1.68,0,0,0,0-.31A1.78,1.78,0,0,1,11.64,6c-.75-2.37-1.9,0-2.86.6-.54.35-2,.14-2.16.82-.17,1,1.55,1,.79,3.06Zm6,3.9a2.39,2.39,0,0,1,2.17-.4,3.19,3.19,0,0,0-1.44-.84,1.59,1.59,0,0,0-.73,1.24ZM22.29,1.26,21.26,0l-1,1.26,1,1.33,1-1.33ZM28.2,5.08l-.73-.9-.74.9.74.88.73-.88Zm6,25.93-.94-1-.93,1,.93.87.94-.87ZM15.79,5.08l-.74-.9-.74.9.74.88.74-.88Zm-2.11,4.4h2.74a3.49,3.49,0,0,0,3.66-2.65h2.35A3.51,3.51,0,0,0,26.1,9.48h2.74a6.48,6.48,0,0,0,.6-1c.44-1.16-.12-1.7-.93-1.7l-1,1-1-1c-.81,0-1.36.54-.93,1.7a3.37,3.37,0,0,0,.32.56,2.84,2.84,0,0,1-2.49-2.23,15.07,15.07,0,0,0,.9-1.61c.65-1.66-.18-2.34-1.4-2.34L21.26,4.72,19.69,2.88c-1.21,0-2,.68-1.39,2.34a15.07,15.07,0,0,0,.9,1.61,2.84,2.84,0,0,1-2.49,2.23A2.69,2.69,0,0,0,17,8.5c.44-1.16-.12-1.7-.92-1.7l-1.05,1L14,6.8c-.8,0-1.36.54-.92,1.7a6.48,6.48,0,0,0,.6,1ZM42.07,18a13.7,13.7,0,0,1-7.62,1.18c0-.19.07-.38.1-.57a18.2,18.2,0,0,0,6.18-1.53,3.5,3.5,0,0,0,1.46-4.5.07.07,0,0,0-.11,0,14.45,14.45,0,0,1-7.44,4.38q0-.33-.06-.66a18.8,18.8,0,0,0,5.08-3.79C41.13,10.61,41,8.2,39.6,7a.06.06,0,0,0-.09,0h0c-.44.73-4.57,7.4-9.09,10.28l-.17.1a.22.22,0,0,0,0,.35,2.47,2.47,0,0,1,.85,1.86,2.66,2.66,0,0,1-2.27,2.56,5.32,5.32,0,0,1-2.53-.21.06.06,0,0,0-.08.06v4a.06.06,0,0,0,.12,0,3.15,3.15,0,0,1,2.95-1.78,7.64,7.64,0,0,0,1.33,3.57,2.29,2.29,0,0,0,3.3.34.06.06,0,0,0,0-.08h0c-.41-.24-2.76-1.68-3.23-4.05a3.21,3.21,0,0,0,.54-.22,7.61,7.61,0,0,0,2.76,2.8c1.49.72,2.86.37,3.46-.68,0,0,0-.08-.05-.08-.92-.08-3.76-.89-5-2.87.14-.13.27-.26.4-.4a10.67,10.67,0,0,0,4.33,2c1.49.2,3.19-.28,3.23-2a.07.07,0,0,0-.07-.06,13.26,13.26,0,0,1-6.56-1.26c.08-.16.17-.33.24-.5,0,0,3.79.89,5.59.6A2.91,2.91,0,0,0,42.16,18a.06.06,0,0,0-.09-.05ZM8.58,20.72a4.59,4.59,0,0,0,.24.5,13.26,13.26,0,0,1-6.56,1.26.07.07,0,0,0-.07.06c0,1.74,1.74,2.22,3.23,2a10.51,10.51,0,0,0,4.33-2c.13.14.26.27.4.4-1.21,2-4,2.79-5,2.87a.06.06,0,0,0,0,.08c.61,1,2,1.4,3.47.68a7.61,7.61,0,0,0,2.76-2.8,3.21,3.21,0,0,0,.54.22c-.47,2.37-2.83,3.81-3.24,4.05a.08.08,0,0,0,0,.08h0a2.29,2.29,0,0,0,3.3-.34,7.64,7.64,0,0,0,1.33-3.57,3.15,3.15,0,0,1,3,1.78.06.06,0,0,0,.12,0V22a.07.07,0,0,0-.09-.06,5.27,5.27,0,0,1-2.52.21,2.66,2.66,0,0,1-2.27-2.56,2.5,2.5,0,0,1,.84-1.86.21.21,0,0,0,0-.35l-.17-.1C7.59,14.39,3.46,7.73,3,7a.08.08,0,0,0-.1,0h0a4.06,4.06,0,0,0-.07,5.51,19,19,0,0,0,5.09,3.79q0,.33-.06.66A14.45,14.45,0,0,1,.44,12.56a.07.07,0,0,0-.11,0,3.51,3.51,0,0,0,1.46,4.5A18.2,18.2,0,0,0,8,18.6c0,.19.06.38.1.57A13.72,13.72,0,0,1,.45,18,.06.06,0,0,0,.36,18,2.91,2.91,0,0,0,3,21.32c1.8.29,5.59-.6,5.59-.6ZM33.24,33.15l-1.38-1.09a2.39,2.39,0,0,0-1.11,1.46c-.83.12-3.1-.38-2.88-.72,2.48-3.49.58-5.57-1.7-5.46v2.35a1.42,1.42,0,0,1-1.47,1.36H23.13a2.56,2.56,0,0,0-1.87,1.14,2.56,2.56,0,0,0-1.87-1.14H17.82a1.41,1.41,0,0,1-1.47-1.36V27.34c-2.29-.11-4.19,2-1.7,5.46.22.33-2.11.86-3.21.73A1.59,1.59,0,0,0,10.28,33a1.86,1.86,0,0,0-.58.1S5.4,29.08,5.33,29l0-.08c.25-.46-.13-1-.37-.92a1.51,1.51,0,0,0-1.23-2.11c0,.29.06.88.06.88s-1.17-.64-1.76-.09.2,1.73.2,1.73-.61,0-.9,0a1.54,1.54,0,0,0,2.22,1.08c0,.24.5.57,1,.31l.2-.1c0,.05,4.22,4,4.22,4a1.3,1.3,0,0,0-.22,1,1.52,1.52,0,0,0,1.2,1.19,1.73,1.73,0,0,0,1.18-.19l1.11,1a.51.51,0,0,0,.38.14.47.47,0,0,0,.45-.49.48.48,0,0,0-.15-.29s-1.12-1-1.12-1a7.88,7.88,0,0,1,4-1.09.29.29,0,0,0,.28-.42c-.64-1.54.74-2.66,2.17-1.75A4.84,4.84,0,0,1,20,34.29c-2.34.57-5.28,2.13-5.88,3.84-.22.65.53,1.55,1.45,1.73a.05.05,0,0,0,.07,0h0c.48-2.54,3.22-4.44,4.64-4.76.08.19.05.13.12.32a6.49,6.49,0,0,0-3.48,4.12c-.2.84.74,1.6,1.52,1.81a.07.07,0,0,0,.08,0,8.41,8.41,0,0,1,2.09-5.2c0,.17,0,.35.06.53a16.79,16.79,0,0,0-.94,4.54c0,.89,1.32,1.51,1.52,1.6.24-.09,1.56-.71,1.56-1.6a16.79,16.79,0,0,0-.94-4.54,4.52,4.52,0,0,1,.06-.53A8.47,8.47,0,0,1,24,41.25a.06.06,0,0,0,.07,0h0c.78-.21,1.72-1,1.52-1.81a6.49,6.49,0,0,0-3.48-4.12c.07-.19,0-.13.11-.32a7,7,0,0,1,4.64,4.76.06.06,0,0,0,.08,0c.92-.18,1.67-1.08,1.44-1.73-.59-1.71-3.53-3.27-5.87-3.84a4.84,4.84,0,0,1,1.73-2.48c1.43-.91,2.81.21,2.16,1.75a.29.29,0,0,0,.28.42,7.2,7.2,0,0,1,4.36,1.35,2.63,2.63,0,0,0,2.46,1.13,2.5,2.5,0,0,0,2.28-2.1,2.34,2.34,0,0,0-1.17-2.3l-1.39,1.09Zm-10.18-7c.49-.18,1.26,0,1.24.68,0,.16.22.16.23,0,.15-1.06-.57-1.37-1.32-1.24-.1-.37-.17-.69-.26-1s-.09-.74.2-.74.1.44.08.64.05.27.19.27.19-.1.25-.17a1.09,1.09,0,0,0,0-1.61,1.59,1.59,0,0,0-1.77.36,1.73,1.73,0,0,0-.35-.55c-.1-.12-.13-.2,0-.3a.69.69,0,0,0,.25-.44.35.35,0,0,0-.37-.33.47.47,0,0,0-.48.51.48.48,0,0,0,.06.25,2.68,2.68,0,0,0-.73,0l2.77,7.6a2.11,2.11,0,0,0,1.38-1.67c0-.57-.84-.38-1.24.06-.13-.72-.25-1.38-.38-2,0-.18.06-.24.21-.3ZM19.14,21l.58,1.62c-.5.12-1.3.48-1.3,1,0,.64,1.13,1.05,1.79,1a.43.43,0,0,0,.11.4,1.48,1.48,0,0,0-.84.27A1,1,0,0,0,18.33,25c-.26.2-.27.54,0,.92a.65.65,0,0,1,.05.83c.79,0,.5-1,.81-1a1.33,1.33,0,0,0,.08.69.48.48,0,0,1-.05.45,4.29,4.29,0,0,0-.6,2.19c-.25,0-.39-.06-.3-.42,0-.13,0-.22-.15-.06a1.38,1.38,0,0,0-.18.62c0,.75.9.9,1.24.74a3.74,3.74,0,0,0,3.6.39L19.4,20.88a.14.14,0,1,0-.26.09ZM19,28.73c-.07-.39.47-1.08,1.15-1.75a1.68,1.68,0,0,0,.23,1.44,2.71,2.71,0,0,0-1.38.31Z"/></g></g></svg>