<?xml version="1.0" encoding="UTF-8"?>
<svg id="_лой_2" xmlns="http://www.w3.org/2000/svg" viewBox="0 0 42.36 23.18"><defs><style>.cls-1{fill:#1d4c86;}</style></defs><g id="_лой_1-2"><g><path class="cls-1" d="M10.26,4.36s.03-.06,.03-.09c-.09-.14-.18,.23-.03,.09Z"/><path class="cls-1" d="M10.37,4.24c.11,.07,.27,.14,.24-.03-.06-.14-.27-.12-.24,.03Z"/><path class="cls-1" d="M35.73,1.36c.15,.84,.52,.12,.48-.34-.14-.25-.52,.13-.48,.34Z"/><path class="cls-1" d="M36.21,.67c.07-.01,.02-.13-.04-.08-.08,.07-.08,.15,.04,.08Z"/><path class="cls-1" d="M39.58,.43c.11,.05,.1-.08,.01-.11-.04,.03-.07,.08-.01,.11Z"/><path class="cls-1" d="M3.12,2.88c.22,1.42,1.12,.21,.25-.37-.35,.03-.39-.05-.25,.37Zm.38-.08s.11,.04,.14,.05c-.09,.04-.16,.08-.14-.05Z"/><path class="cls-1" d="M17.32,.07s.07,.04,.09,.04c.02-.1-.12-.18-.09-.04Z"/><path class="cls-1" d="M18.09,.8c0,.23-.01,.38,.19,.55-.05,.11,.11,.33,.22,.17-.29-.43,.41,.07,.24-.48-.17,.18-.65-.56-.65-.25Zm.24,.21h0Zm-.13-.03s.02,0,.02,0c0,0-.05-.01-.02,0Zm.18,.3s-.04,0-.03-.03c0,.01,.04,.04,.03,.03Z"/><path class="cls-1" d="M15.33,5.02c-.23,.08,.37,.53,.17,.83,.14-.38,.17,0,.3-.02,.32-.05,.02-.85,.47-1.02,.78-.31,.95-.33,1.66-.53,.37-.04,1.28,.37,1.46-.03,.06-.49-.59-.14-.8-.3-.21-.05-.33-.29-.6-.18-.18-.19-.48,.04-.76-.08-.12,.35-.85,.18-.78,.48-.14,.08-.54-.05-.54,.18-.43,.08-.63,.19-.57,.68Zm.08,.07c0-.06,0,.02,0,.04-.04-.02-.05-.03,0-.04Zm1.94-1.33s0,.01,0,.01h0Zm-1.49,.61s0,0,0,0h0Z"/><path class="cls-1" d="M18.79,1.53c-.44-.22-.13,.25,.09,.28-.27-.05,.13,.25,.22,.26-.16,0-.08,.12,.05,.18,.26,.1,.09-.22,.19-.15,.08,.05,.78,.4,.73,.07-.08-.22-.5,.04-.34-.24-.13-.07-.06-.19-.2-.31,.4-.05,.05-.22-.13-.19-.13,.06-.22-.17-.25-.03-.05-.24-.07-.14-.12-.01-.12,.04-.2,.06-.09,.21,.05,.06,.17,.27,.02,.15-.01-.03-.02-.36-.17-.23Zm-.02,.09s-.02-.03-.01-.04c0,0,.02,.04,.01,.04Zm.48,.51s-.19-.04-.08-.05c0-.07,.11,.04,.08,.05Zm.18-.38s0-.04,0-.06c.02,.02-.01,.03,0,.06Zm.15,.1c-.09-.05-.11,.06-.17,.01-.02-.16,.11-.03,.17-.01Zm-.43-.34s0,0,0-.01c0,0,0,0,0,.01Zm-.02-.05s-.02-.02-.02-.02c0-.02,.02,.02,.02,.02Zm0,.34c.07-.01,.2,.08,.17,.13,0,.09-.26-.21-.17-.13Z"/><path class="cls-1" d="M19.78,1.83c.04,.06,.13,.05,.17,.12,.36,.02-.3-.39-.17-.12Z"/><path class="cls-1" d="M12.15,4.92c-.09,0-.1,.12-.04,.16,.08-.01,.12-.12,.04-.16Z"/><path class="cls-1" d="M13.88,5.44c.29,.06,.67-.05,.32-.45-.27-.07-.52,.24-.32,.45Z"/><path class="cls-1" d="M19.71,6.37c.01-.27-.5-.14-.25-.05,.13-.08,.21,.21,.25,.05Z"/><path class="cls-1" d="M19.63,6.44s-.07-.05-.11-.05c-.15,.1,.21,.26,.11,.05Z"/><path class="cls-1" d="M23.85,4.4c-1.01,1.26,1.4,.27,.32,0,.09-.14-.23-.22-.32,0Z"/><path class="cls-1" d="M22.54,4.01c-.02,.12,.25,.2,.45,.22-.03,.22,.71,.57,.77,.24-.05-.24,.22-.51-.2-.54-.19-.19,.05-.17,.02-.3-.15-.14-.23-.38-.48-.21-.29-.04-.14,.2-.3,.22-.14,0-.1,.12-.05,.18-.1-.04-.23-.02-.12,.08,.21,.2-.38,.01-.1,.12Zm.38,.06s.03-.02,.04-.02c0,0-.06,.03-.04,.02Zm-.16,0c.1,.02,.09,.04,0,.04-.06-.01-.1-.09,0-.04Z"/><path class="cls-1" d="M20.02,6.88s.02-.13,0-.16c-.11-.27-.35,.37-.2,.16,.05,.05,.18,.12,.19,0Z"/><path class="cls-1" d="M23.1,5.45c.38-.16-.19-.25-.15,0-.09,.17-.1,0-.26,.15,.98,.13,.12-.13,.41-.14Z"/><path class="cls-1" d="M20.85,3.51c-.01,.07,.23,.15,.2,.02-.09-.12-.33-.26-.2-.02Z"/><path class="cls-1" d="M20.74,5.76c.08,.34,.16,.01,.21-.13-.24-.1-.11-.21-.21,.13Z"/><path class="cls-1" d="M22.61,3.34c.06,.05,.18,.12,.25,.06,.1-.12-.29-.21-.25-.06Z"/><path class="cls-1" d="M21.39,3.12c.05,0,.16,.06,.2,.01,.13-.14-.34-.21-.2-.01Z"/><path class="cls-1" d="M24.52,4.92s.35,.14,.27-.04c-.07-.06-.35-.17-.27,.04Z"/><path class="cls-1" d="M21.02,5.41s-.27-.06-.14,.07c.14,.13,.48,.02,.14-.07Z"/><path class="cls-1" d="M22.04,5.24c.26,.04,.48-.19,.27-.09-.06-.17-.32-.1-.27,.09Z"/><path class="cls-1" d="M24.77,5.28c-.07-.05-.1,.07-.1,.13,.1,.05,.24-.1,.1-.13Z"/><path class="cls-1" d="M20.24,5.94c.05,.23,.26,0,.07-.06-.06,.02-.09-.03-.07,.06Z"/><path class="cls-1" d="M20.68,6.43c.12,0,.3,.28,.36,.1-.01-.08-.51-.35-.36-.1Z"/><path class="cls-1" d="M22.8,4.26s-.1-.03-.15-.04c.05,.13,.41,.25,.15,.04Z"/><path class="cls-1" d="M23.35,5.59c.07-.12-.2-.12-.13,0,0,.11,.14,.12,.13,0Z"/><path class="cls-1" d="M22.88,4.72c-.14-.01-.05,.16,.05,.09,0-.03,0-.08-.05-.09Z"/><path class="cls-1" d="M22.55,4.95c-.06,.04,0,.15,.07,.09,.05-.04-.02-.1-.07-.09Z"/><path class="cls-1" d="M30.51,4.26c-.36,.15,.26,.37,.47,.22,.72-.7-.24-.31-.47-.22Z"/><path class="cls-1" d="M30.16,5.78c-.32,.27,.96-.06,.53-.31-.15-.13-.4-.06-.49,0-.02-.22-.33-.12-.22,.06,.07,.17,.28-.03,.18,.26Z"/><path class="cls-1" d="M28.92,5.05c.02,.12,.09,.39,.21,.17,.05-.1-.26-.37-.21-.17Z"/><path class="cls-1" d="M29.51,5.89c-.04-.08-.16-.11-.23-.12-.26,0,.28,.34,.23,.12Z"/><path class="cls-1" d="M30.36,3.71c.13,0,.2-.14,.12-.24-.07,.04-.17,.15-.12,.24Z"/><path class="cls-1" d="M33.95,4.66c.05,.05,.18-.1,.06-.1-.09-.09-.21,.08-.06,.1Z"/><path class="cls-1" d="M31.02,3.53c.11,.02,.1-.08,.04-.14-.07,0-.12,.12-.04,.14Z"/><path class="cls-1" d="M26.18,6.8c.16,.05,.05-.22-.03-.08,0,.03-.02,.07,.03,.08Z"/><path class="cls-1" d="M34.07,4.56s.12-.04,.16-.08c-.1-.09-.21-.04-.16,.08Z"/><path class="cls-1" d="M34.26,4.48s.07-.03,.07-.06c.16-.14-.24-.03-.07,.06Z"/><path class="cls-1" d="M31.1,2.77s.12-.04,.07-.08c-.06-.04-.12,.02-.07,.08Z"/><path class="cls-1" d="M29.07,4.8c.32,1.78,2.44-1.29,.51-.21,.09,.16-.1,.02-.22,.05-.07,0,.14-.31-.01-.12,.06-.34-.26,.67-.28,.29Zm.89-.2v.02s.01-.04,0-.02Zm-.02,.07s-.01-.01-.01-.02c.03-.04,0,0,.01,.02Z"/><path class="cls-1" d="M36.74,11.1c-.11-.02-.1,.1-.08,.18,.09,.03,.14-.13,.08-.18Z"/><path class="cls-1" d="M40.97,17.74c-.17-.24-.15,.25-.25,.23-.12-.22-.3,.92-.03,.72-.03-.33,.27-.69,.28-.95Z"/><path class="cls-1" d="M40.3,19.35c.26,.23,.08-.43,.26-.59-.26-.21-.3,.43-.26,.59Z"/><path class="cls-1" d="M41.23,17.11c.05-.1,.05-.51-.07-.31,.13,.07-.12,.29-.14,.55,0,.53,.26-.05,.21-.24Z"/><path class="cls-1" d="M41.32,14.48c-.04-.24-.19-.09-.1,.09,.02,.11,.13,.06,.04,.14,.12,.24,.2-.16,.06-.22Z"/><path class="cls-1" d="M40.85,18.85c-.05,.07-.22,.14-.12,.25,.13,.03,.17-.16,.12-.25Z"/><path class="cls-1" d="M41.39,14.91c.01-.13-.27-.03-.19,.06,.09,.03,.19,.2,.19-.06Z"/><path class="cls-1" d="M41.01,13.65c-.09-.05-.2,.09-.08,.13,.08,.03,.17-.07,.08-.13Z"/><path class="cls-1" d="M41.34,15.54c.06,.03,.13-.05,.06-.09-.08-.07-.18,.07-.06,.09Z"/><path class="cls-1" d="M41.47,15.65c-.13-.14-.15,.14,0,.12,0-.04,.02-.08,0-.12Z"/><path class="cls-1" d="M41.44,16.05c.01-.43-.21,.4-.07,.41,.24-.03-.03-.46,.07-.41Z"/><path class="cls-1" d="M41.06,14.52c.1,.02,.09-.1,.01-.13-.07,.01-.09,.11-.01,.13Z"/><path class="cls-1" d="M38.18,19.05c-.05-.06-.14,0-.08,.05,.05,.08,.14,.03,.08-.05Z"/><path class="cls-1" d="M40.76,19.18c-.15-.13-.21,.22-.18,.33,.11-.12,.15-.2,.18-.33Z"/><path class="cls-1" d="M40.35,12.79c.56,.26,.45,.55,.78,.56,.2,.1-.19,.31,0,.52-.26,.2,.23,.5,.14,.14,.24-.75-.26-1.59-.21-2.26,.54-.06-.63-.39-.23-.89,.49-.21-.04-.45-.27-.61-.04-.12-.27-.43,0-.36,.27-.11-.07-.41-.25-.44-.21,.28-.25-.4-.44-.41-.69,.58-.21-.34-.8-.78,.04-.04,0-.1,.01-.15,.27,.19-.07-.27,.24-.08,.08-.09,0-.22-.04-.28,0-.58,.12,.11,.29-.06-.12-.44-.05-1.1,.54-.94,.13-.72-.65-2.25,.2-2.88-.16-.55-1.26-.04-1.23-.57,0-.24-.05-.52-.26-.64-.1,0-.47,.04-.18-.11,.58,.15,.3-.24,.58-.5,.45,.16,.92-.32,.94-.75-.17,.1-.22,.09-.2-.08-.13,.03-.12,.1-.18-.02-.43,0,.06-.47-.32-.53-.04-.57-1,.36-1.06,.68-.63-.03-2.05,.81-2.48,1.49-.07,.15-.73,.52-.32,.61-.18,.33,.65-.13,.37,.44-.19-.17-.32,.17-.47-.03,.4-.41-.52-.36-.2,.19-.09,.31-.5,.37-.6,.66-.55,.92-.47-.42-1.3,.24-.8,.76-.12,.68-1.19,.67-.37-.41-1.44,.3-1.84,.47,.28,.12-.06,.13-.09,.29,.09,.46,.53,.13-.13,.61-.38,.01-.42,.59-.72,.09-.29,.07-.07,.5-.1,.7-.02,.07-.3-.01-.43-.14-.12-.11-.02-.47-.26-.54,.17-.73-1.04-.15-.68-.55-.23,.29-.1-.07-.17-.04-.05,.04-.13-.17-.08,.04-.66,.49,.33,.71-.9,.72,0-.6-.96,.18-1.08-.3,.33-.36-.44-.36-.27-.04,.44,.06,.03,.41,.06,.06-.14,0-.39,0-.4,.21,.02,.07,.18,.16,.02,.09-.11-.08-.02,.13-.15,.12-.66,.26,.14-.21,.32-.58,.49-.17,.63-1.11,.25-1.08-.06-.39-.8-.08-.87-.06,.18-.18,.09-.26-.13-.26,.34-.26-.48-.54-.77,.03-.1,.37,.01,.21-.36,.24,.03,.24-.18,.1-.24,.17,.06-.44-1.33,.2-1.54,.21-.17-.12-.24,.17-.4,.07-.22,.03,.08,.17-.18,.12-.26,.09,.3,.18,.26,.37-.27,.21-1.44-.46-1.18,.25-.3,.24,.18,.39,.05,.52,.13,.52-.4-.5-.6-.62-.2,.05-.24,.13-.2,.27-.34-.15-.38,.24-.15,.47-.3-.13-.26-.21-.2-.46,.55-.28,0-1.17,.06-.57,.15,.48-.46,.3-.61,.59,.29,.84-1.11,1.02,.08,1.47-.32-.11-.64-.03-.59,.36-.07,.37-.88,.44-.89,.6-.02,.06-.5-.32-.34-.24,.49,.23,.84-.45,1.18-.64,.06-.19-.19-.39,.03-.54,.13-.42,.57-.69,.4-1.13,.43-.17,.46-.48,.42-.85,.09-.63-.59-.07-.77,.15-.19,.36-1.04,.21-.82,.77-.17,.1-.25,.45-.43,.29,.26,.17,.5,.65,.13,.76-.03-.34-1.17-2.88-1.18-1.78,.18,.13,.02,.39,.05,.59-.12,.17-.33-.16-.35,.12-.25-.04,.18-.2,.2-.38,.02-.22-.16-.21-.1,.01-.05,0-.32-.12-.41-.06-.14,.06-.13-.17-.25-.21-.11-.06-.33,0-.35-.08-.11-.04,.09-.3,.12-.11,.13-.05,.02-.15,.15,.02,.33,.29-.06-.4-.37-.33-.33-.13-.76-.09-1-.33,.02,.16-.06,.09-.13,.05-.14-.12-.26,.15-.4,.17-.27-.11-.23-.34-.16-.57,.19-.1,.4,.34,.49,.05,.29-.21-.32-1.25-.26-.54-.15,.14-.35,.2-.53,.31,.06,.22-.24,.41-.37,.37,.13-.48-.7-.59-1.02-.5-.11,.28-.09,.27-.34,.25,.11-.74-.46-1.16-.45-.24-.18,.23-.27-.17-.08-.26-.03-.06-.11-.06-.13,.01,.17-.27-.17-.39,.27-.54,0-.21,.16-.23,.35-.22,.17-.13,.17-.64,.27-.55,.45,2.92,2.06,.78,1.36-.94,.18,.04,.18-.47-.04-.36,.02-.06-.04-.28-.18-.09,.05-.17-.04-.16-.17-.12-.8-.51-.61,.59-1.4,.48-.24,.5-.62,.39-.96,.64-.08,.13-.27,.51-.5,.32-.2,1.59-2.4-.64-1.87,.93-.09-.11-.19-.25-.25-.21-.24-.44-.99,.16-1.4,.17-.08,.3-.34,.17-.43,.45-.24-.12-.31,.34-.15,.45-.23,.39,.38,.41-.17,.75-.33-.08-.3,.47-.51,.57-.13,.05,.1,.18-.06,.35-.02,.07-.23,.01-.23-.1,0-.6-1.04,.54-.37,.46,.01,.15,.15,.24,.21,.34,.05,.14-.18,.19-.13,.34-.04-.16-.35,.09-.31,.15,.33,.44-.26,.42-.14,.74,.15,.14,.04,.39,.34,.47-.09,.46-.44,.49-.79,.33-.09-.21-.25,.05-.32,.14-.04,.1-.1-.12-.19-.02-.11-.07-.02-.49-.26-.62-.15,0-.23,.3-.29,.08-.36-.3-.07-.69-.64-.4-.1-.05-.18-.25-.3-.27-.06,.11-.17-.08-.18,.06-.02-.04-.13-.01-.04-.07-.25-.24,0,.52,.05,.65,.37,.39-.4-.28-.43-.02,.09,.17,.18,.46-.11,.5,.18-.47-.17,.02-.11,.19,.07,.26,.61,.25,.6,.52,.2-.13,.1-.01,.16,.11,.4,.34,.17,.83,.27,1.34-.16,.62,.21,.98,.45,1.51,.15,.22,.07,.49,.1,.71,.1,.08,.33,.09,.24,.27,.21,0,.21,.33,.07,.42,0,.3,.35,.71-.02,.85,.9,.88,.68-.25,1.1-.61,0-.22,.42-.07,.34-.24-.17-.06-.04-.34-.07-.48,.14-.01,.37,.01,.59-.1,.13,0,0,.25,.18,.1,.05-.07,.07,.03,.08,.08,.14-.12,.1-.05,.04,.05,.34,.03,.69,.1,.48-.37,.18,.28,.21-.11,.33-.32,.13-.43-.34-.47-.02-.71-.09-.29,.02-.33,.32-.33,.13-.31,.32-.24,.57-.35,.25-.06-.08,.35,.04,.47,.34,.21,.26-.3,.59-.18,.15,.06,.29-.05,.51,.11,.43-.12,.2,.37,.63,.31,0,.07-.1,.22,.03,.23,.34,.24,.05,.64,.11,.85,.24,0,.22-.29,.24,.1,.04,.33,.35,.08,.5,.22,.25-.05,.04,.23,.23,.24,.07,.12,.15-.11,.19,.06,.13,.08,.05,.85,.45,.55,.04,.16,.39,.49,.6,.17,.28,.06-.12-.48-.12-.65,.69,.19,.21-.59,.84-.06,.27-.05-.05-.3-.07-.39,.2,.11,.23-.06,.08-.15,.25-.29,.33,.35,.53,.14,.71,.31,1.4,.53,2.16,.57,.22,.02,.17,.35,.43,.26,.06,.32-.3,.45-.17,.69,.14,.08,.23,.01,.27,.13,.04,.12,.01,.26,.22,.12,.12,.16-.25,.51,.13,.41,.24,.26,.66-.07,1.06,.01-.22,.39,.42,1.58,.28,2.25,.02,.31,.26-.03,.35-.05,.06-.06,.12,.09,.05,.15-.01,.1,.19,.03,.09,.15,.23,.37,.85-.1,.9,.47-.09,.17,.09,.25,.18,.35-.09,.26,.27,.5,.43,.45,.18-.17,.17,.42,.39,.35,.12-.01,.28,.04,.3-.13,.77,.15,1.34-.73,2.15-.2,.19,.53,.72,.38,1.16,.65,.81-.07,.04-.88,.63-1.12,.13-.23,.15-.07,.35-.03,.17,.22,.85,.19,.82,.47-.03,.34,.31,.62,.63,.57,.52-.2,.94-.09,1.43,.11,.35,.7,1.29,.29,1.86,.13,.39-.39,.49-.65,1.06-.37,.24-.22,.49,.08,.78,.07,.7-.35,.43-1.1,.81-1.73-.09-.09-.04-.23-.14-.27-.07-.06-.26,.08-.17-.04,.84-1.23,2.1-.53,2.71,.55,.18,.68,.95,.36,1.43,.51,.29,.32,.11,.25,.4,.54,.56,.16,1.03-1.29,1.26-.66-.04,.44,.45,1.91-.44,1.72-.54,.59,.63,1.09,0,1.59,.03,.5,.13,.44,.34,.05-.11-.06,.32-.09,.11-.25,.12-.04,.16-.12,.19-.28,.11,.17,.14,.29,.29,.09,1.38-.61,1.13-3.1,1.24-4.41-.81-1.58-.58-2.56,.44-.43,.22,.41,.55,.78,.69,1.3,.1,.09,.32,.39,.32,.11,0-.08-.18-.43-.03-.37,.25-.25,.51,.44,.42-.06-.1-.39-.74-.21-.88-.72-.52-1.39,.76-.31,.47-.74-1.1-.47-1.49-1.76-2.37-2.33-.03,.08,0,.13-.11,.15,.17,.16,.44,.16,.14,.59,.33,.11,.32,.9,.14,.37-.19-.42-.11-.32-.64-.41-.17-.3-.34-.01-.64,.03,.08,.09,.04,.47-.12,.55-.07-.31,.23-.34-.12-.24,.04-.07,.06-.4-.06-.27-.06-.12,.13-.05,.14-.2-.2,.13-.05-.27-.3-.13-.18-.06-.07,.18-.12,.2-.05-.41-.36,.49,0,.06,0,.1,.03,.16,.1,.04,.2,0,.02,.62-.06,.16,.07-.24-.83,.44-.49-.08,.18-.52,.42-.93,.36-1.37,.32-.77,.1-2.25,1.24-2.28,.19-.12-.18-.15,.13-.24,.19,0,.22-.08,.27-.23,.05,.05,.15,.04,.21-.04,.32,.03-.36-.38,.14-.41,.32,.06,.17-.24,.52-.15-.42,.36,.18,.35,.25,.03,.2,0,.1-.23,.15-.31,.13-.03,.33-.09,.21-.19,.13-.03,.23-.16,.14-.21-.11-.08,.01,0,.03-.04,.1-.07-.07-.14-.08-.01-.34,.1-.49-.09-.38-.6,.1-.08-.16-.24-.04-.38,.06-.11-.15-.12-.07-.24-.04-.25,.26-.3,.25-.53,.11-.02,.26,.07,.25-.11,.12-.03,.01,.35,.19,.25,.05,.27,.14,0,.31,.21,.13-.28,.03-.57,0-.88,.17-.06,.25-.36,0-.27-.05-.06-.05-.15-.13-.14,0-.08-.05-.14-.09-.15,.06-.09,.04-.28,.17-.26-.09,.38,.42,.49,.44,.86,.17-.03-.22,.48,.04,.6,.08,.8,.19,1.53,0,2.23,.27-.4,.12,.58,.37,.74,.32,.58,.93,.9,1.41,1.32Zm.04-3s0,0,0,0h0Zm-1.61-6.04c.08-.01,.01,.06-.01,.05,0-.02-.01-.04,.01-.05Zm.19-.11s0-.04,.01-.07c0,0,.02,.12-.01,.07Zm-.35-2.31c.03-.06,.16,.02,.13,.1-.08,.03-.24-.1-.13-.1Zm1.31,4.07s-.03,0-.03-.02c0-.02,.07,.05,.03,.02Zm-7.85,.27h-.02s.03,0,.02,0Zm-.85,.21s-.02,.03-.02,.02c0-.01,0-.03,.02-.02Zm.22,.23h0Zm.01-.05c-.02,.07,0-.03,.03-.04,.03,.02-.02,.03-.03,.04Zm-2.74,1.38s-.05-.06-.07-.08c.01,0,.06,.05,.07,.08Zm-8.31,.16s0,0,0,0h0Zm0,.15s.03-.03,.02-.01c0,.01-.04,.02-.02,.01Zm-.14,.58s0-.05,0-.06c0,0,0,.05,0,.06Zm-.17,.11s0-.02,0-.03c0,0,0,.02,0,.03Zm.19-.39s0-.03,0-.04c.02,0,0,.02,0,.04Zm.04-.2c-.07,.06-.08,.16-.18,.13,.05-.06,.12-.2,.18-.13Zm.06-.09h0Zm-.99-.17s.02,0,.03,0c0,.01-.03,.04-.03,0Zm0,.09s-.02-.02,0-.03c0,0,0,.02,0,.03Zm-2.75,1.39s0-.02,0-.03c.03-.02,0,.05,0,.03Zm.68-2.11c.02-.09,0-.19,.12-.13-.04,.02-.1,.17-.12,.13Zm1.41-.79s-.08-.04-.12-.05c-.16-.06,.24-.02,.12,.05ZM1.25,10.59c-.05-.26-.17-.46-.37-.55,.07-.64,.63-.19,.82-.07,.11,.04-.08,.17,.09,.15,.27,0,1.01,.93,.45,.42-.2,.04-.2-.25-.3-.17-.15,.11,.01,.34-.14,.3-.17-.15-.5,.13-.54-.1Zm-.11-.98h-.02s.03,0,.02,0Zm34.07,6.3h0s0,0,0,0Zm1.18-.62s.05,.04,.02,.05c-.02,0-.03-.03-.02-.05Zm2.7-11.72c.11,.09-.03,.1-.11,.09,.02-.06,.03-.17,.11-.09Zm-8.56,3.12s.1,.06,.02,.09c-.04,.04-.08-.05-.02-.09Zm-.99,.58s-.08-.07-.12-.09c0-.05,.1,.08,.12,.09Zm-1.76-.62s-.05-.11,0-.14v.14Zm-.07-.07s.02,.11-.03,.09c.02-.03,0-.07,.03-.09Zm-4.52-.74s-.01,0,0,0c0,0,.02,0,0,0Zm-.54-.09h0Zm-3.18,1.38c.05-.02,.11,0,.07,.06-.06,.04-.11-.1-.07-.06Zm-.19-.67s-.04-.01-.02-.03c0,0,.02,.04,.02,.03Zm-.63,2.24c.14-.25,.15,.41,.03,.34-.05-.04,.08-.23-.03-.34Zm-1.53-1.24s.1,.16,0,.01h0Zm-1.56-.66v-.08s0,.07,0,.08Zm-4.58-3.65s0-.01,0-.01h0Zm.02-.06s.01-.05,.02-.06l-.02,.06Zm.03,.33h0ZM4.26,14.14s-.02-.03-.01-.04c.01,0,.01,.03,.01,.04Zm.15,.06s-.04-.03-.02-.04c.01,.01,.02,.01,.02,.04Zm32.18,2.01s-.04-.06-.01-.04c.03,.03,.08,.1,.01,.04Zm-1.9-.29c.11,.04,0,.11-.04,.11,.02-.06-.05-.17,.04-.11Zm2.96-7.66s-.03-.04-.02-.07c.03,0,.02,.05,.02,.07Zm.34,.33s0-.05,0-.06c0,.02,.02,.05,0,.06Z"/><path class="cls-1" d="M39.57,8.79c.28,.17,.07-.04,.11-.21,.02-.11,.13-.3-.07-.32-.18-.14-.1,.19-.18,.29,0,.15,.18,0,.14,.25Z"/><path class="cls-1" d="M41.96,9.36c-.14-.02-.46-.23-.49,.03-.18,.14,.91,.09,.49-.03Z"/><path class="cls-1" d="M42.33,9.04c-.11,0-.2,.02-.3,.04-.23,.17,.46,.09,.3-.04Z"/><path class="cls-1" d="M40.44,1.41c.41,.29,.33-.42,.84-.39-.52-.11,.08-.68-.69,.07,.08,.23-.13,.17-.14,.32Z"/></g></g></svg>