<?xml version="1.0" encoding="UTF-8"?>
<!-- Generator: Adobe Illustrator 21.0.0, SVG Export Plug-In . SVG Version: 6.00 Build 0)  -->
<svg version="1.1" id="Layer_1" xmlns="http://www.w3.org/2000/svg" xmlns:xlink="http://www.w3.org/1999/xlink" x="0px" y="0px" viewBox="0 0 467.8 399" style="enable-background:new 0 0 467.8 399;" xml:space="preserve">
<style type="text/css">
	.st0{fill:#1D4C86;}
</style>
<path class="st0" d="M233.9,3.4c-26.5,0-51.5,6.3-73.7,17.5C128.1,37,101.9,63.2,86,95.4c-11.2,22.6-17,47.5-17,72.7  c0,16,2.3,31.5,6.6,46.5l3.9-1c-4.1-14.1-6.3-28.8-6.5-43.5h29.7c0.2,12.5,2.1,24.6,5.6,36.2l3.9-1c-3.5-11.3-5.3-23.1-5.5-35.2  h26.9c0.1,4,0.4,7.9,0.9,11.7c-1.9,0.2-3.6,0.9-3.6,0.9l-0.8,2.7c-1.8,0.3-3,3.4-3,3.4c-1.5,0.5-2.7,2.4-2.2,2.9  c0.5,0.5-0.8,0.7-0.8,0.7v3.7l-0.8,1.2l0.2,4c1,0,0.8,1.9,0.8,1.9c-1.7,0.2-1.3,2.4-1.3,2.4l-3.5,1.2l-0.7,1l-4.3-0.2l-1.2,1.2l0,0  c-0.4-1.1-0.7-2.2-1.1-3.3l-3.9,1c0.1,0.4,0.2,0.8,0.4,1.2h-4.9l-0.3-0.8l-1.7-0.3l-0.2-1.9l-2.5,0.2l-0.5,1l-2.7,0.2  c0.2,1.7-2.7,4.2-3,3.5c-0.3-0.7-2.2-2.5-1.3-2.9c0.8-0.3,3-0.7,3-0.7v-1.2l-6.1-0.2l-0.7,1l-2.5,0.2v2.7l-1.2,0.3  c-0.8,0.5,0.2,2.4,0.2,2.4c1.2,1.2-0.2,3-0.2,3c-1,1,0.8,2.9,0.8,2.9c1.3,0.3-0.8,1.4-0.8,1.4c0.3,1.7,1.3,2.2,1.3,2.2  c-1,1.7,0.7,2.5,0.7,2.5l0.2,2.9l1.2,0.7v1.9l0.7,1.2h2.7l-0.2-4.2c-2.3-2.7,2-3.4,2.2-2.4s2,1.5,2,1.5c0.3,2.5,3.1,4,4,1.5  c0.8-2.5,1.5-1,2,0.2s3.6,4,3.6,4h2.5l0.3,2.4c2.8-0.2,3.7,0.2,4.8,4c1.2,3.9,4.3,4.9,4.3,4.9l2.3-0.2c0-2,2.3,0.3,2.3,1.4  s4.5,4.9,4.5,4.9l4.5,1l0.8,0.7c2.8,3.5,5.7,6.9,8.8,10.1l-21,21c-18.6-19-31.9-41.9-39.2-66.8l-3.9,1c7.7,26.2,21.8,50.2,41.6,70.1  c13.4,13.4,28.8,24.3,45.5,32.2l2-3.5c-15.8-7.5-30.3-17.6-43.2-30.2l21-21c10.9,10.6,23.4,19.1,36.8,25.2l2-3.5  c-13.2-6-25.3-14.2-36-24.5l3.9-3.9c0.2,0.4,0.4,0.8,0.4,1.4c0.3,2.5,1.5,2,1.5,2l9.5-0.2l3.3-2.9l8.5-0.2c4.3-0.2,1.7-6.1,0.8-6.1  c-0.5-0.4-0.6-1.2-0.5-2c6.8,5.2,14.1,9.5,21.8,12.8l2-3.5c-9-3.8-17.4-8.9-24.8-15.2l-4.5-4.2l20.9-20.9  c6.8,6.4,14.6,11.2,23.1,14.2c2.3,0.8,4.7,1.5,7.1,2.1c-0.4,0.4-0.7,0.7-0.5,0.9c0.3,0.8-1.3,1.7-1.3,1.7l-1.5,0.5l-1,1.5l-2,0.7  l-0.3,3.5l-1,0.7v1.5l-1.2,0.3v0.8l-1.7,0.2l1,2.5l1.3,0.7c2.3,0.3,1.3,3.2,1.3,3.2l1.3,0.2l0.7,1.9l1.3,2.7c0.5,2,2,1.5,2.7,1.4  c0.7-0.2,1.3,2,1.3,2l6.7,0.2c0,0-0.3,0.7,0.8,1c0.6,0.2,3.2,0.4,5.5,0.4v3c-12.3-0.2-24.2-2.8-35.2-7.4l-2,3.5  c11.7,5,24.2,7.7,37.2,7.9v26.9c-17.7-0.3-34.8-4.2-50.5-11.3l-2,3.5c16.3,7.4,34,11.5,52.5,11.8V329c-23.6-0.3-46.4-5.6-67.1-15.5  l-2,3.5c21.9,10.5,46.1,16,71.1,16c26.2,0,51.5-6.1,74.3-17.6c15.4-7.8,29.7-18,42.3-30.6c13.2-13.2,23.9-28.3,31.8-44.7l0,0  c10.8-22.1,16.5-46.6,16.5-71.9c0-21.5-4.1-42.4-12-61.8c-8.2-20.2-20.4-38.8-36.3-54.7c-16-16-34.6-28.2-55-36.4v0  C276.1,7.4,255.3,3.4,233.9,3.4L233.9,3.4z M231.9,7.4v29.7c-20.1,0.3-39.2,5.2-56.1,13.6c-12.2,6-23.4,13.9-33.1,23.4l-21.1-21.1  c11.9-11.6,25.5-21.3,40.4-28.8C183.4,13.5,207.2,7.7,231.9,7.4z M235.9,7.4c20.2,0.2,39.9,4.2,58.1,11.6l0,0  c19.2,7.7,36.9,19.2,52.2,34.1l-17.8,17.8c-0.6,0.1-1.3,0.2-1.7,0c-1.2-0.5,0.5-1.7,0.5-1.7v-1.4l-1-1c0,0-2.8,0.3-3-0.2  c-0.2-0.5-0.7-2.7-0.7-2.7l-0.2-2.9l-1.2-0.5l-0.2-1l-1.8,0.2v-2l-1-0.3l-1-0.5l-0.2-2l-3.7-0.2l-1.2-1.7l-1.3-2l-4.2-0.3l-1-1  l-1.7-0.3l-1.2-0.5l-0.5,0.9l-3.2,0.2l-0.2,1c-1,0.5-3.7,0.5-5.8,0.5c-3.3-1.7-6.7-3.2-10.1-4.6l-1.5,3.7c2.8,1.1,5.5,2.4,8.2,3.7  c-0.2,0.6-0.4,1-0.8,1c-0.8,0-0.5,2.2-0.5,2.2s2.2,0,2.8,0.2c0.7,0.2,0.7,1.9,0.7,1.9c2.5-0.2,3.5,3.2,3.2,4c-0.3,0.8,1,0.8,1,0.8  s0,2.7-0.3,3.4c-0.3,0.7,2.2,1.2,2.8,2.2c0.7,1-0.3,4.4-0.8,4.6c-0.5,0.2,1.3,0.7,1.2,1.5c-0.2,0.9,0.5,0,0.7,1.4  c0.2,1.3,0.5,4.2,0.5,4.2l2.3,0.2c0.3-2.2,4.6-2.3,5.3-2c2.8,1,5,5.4,5,6.4s-1.8,1.2-1.8,1.2l0.1,1.1l-5.8,5.8  c-0.6-0.4-1.2-0.5-1.5-0.3c-0.8,0.5-0.5-3.5-0.5-3.5s1.5-1,2.2-0.5c0.7,0.5-5.7-8.4-7-7.6c-1.3,0.8-4.3-0.9-4.2-2.4  c0.2-1.5-6-6.6-6-6.6s-2-1.3-2.3-0.3c-0.3,1-1,1.7,0,2.2c1,0.5,0.8-0.8,2,0.3c1.2,1.2,3.3,2.7,2.5,3.7c-0.8,1-1.8,1.4-1.8,1.4  l1.2,1.4h1.8l0.3,2.9c0,0,2,1,2.5,2.2c0.3,0.8,0.4,1.3,0.3,1.8c-3.7-2.8-7.6-5.4-11.6-7.7c0-0.3,0.1-0.6,0-0.9  c-0.3-1.2,1.3-1.7,2.2-0.3l1.7-0.2l0.3-1.5l-2.3-1.9h-1.8c0,0-0.2,1.4-1.3,0.9c-1.2-0.5-0.5-0.3-1.5-0.5c-0.9-0.1-0.7,1.7-0.5,2.6  c-2.6-1.3-5.2-2.5-7.9-3.6c-11.3-4.6-23.5-7.2-36-7.4V53.2c1.1,0,1.5-0.4,1.7-0.8c0.2-0.7,0.3-0.9,1.3-1c1-0.2-0.2-2.2-1.2-2  c-0.7,0.1-1.4-0.1-1.8-0.6v-7.7c16,0.2,31.4,3.4,45.8,9.3l1.5-3.7c-14.8-6-30.8-9.3-47.3-9.5L235.9,7.4z M263.7,14.4l-1.6,1  l-1.1-0.7l-0.5,0.9l1.3,0.8l0.3,0.2l0.3-0.2l1.8-1.2L263.7,14.4z M271.3,18.5l-1.3,1.1l-0.8-0.9l-0.7,0.7l1.2,1.2l0.3,0.3l0.3-0.3  l1.7-1.4L271.3,18.5z M111,19.3c-16.5,6.4-34.3,13-45,30c-6.3,9.9-7.2,21.7-12.1,31.9c9.2-8.6,19.8-15,27.6-25.2  C90.8,43.7,98.9,30,111,19.3L111,19.3z M356.8,19.3C368.9,30,377,43.7,386.4,56c7.8,10.3,18.4,16.6,27.6,25.2  c-5-10.2-5.9-22-12.1-31.9C391.1,32.4,373.3,25.8,356.8,19.3L356.8,19.3z M259.8,21.4c-0.8-0.1-1.9,0.3-2,0.7  c-0.2,0.7-1.2,0.8-1.2,0.8l-3.8,0.3c-0.3,1-2.3,1.7-2.5,1c-0.4-1.5-2.5,1.9-0.3,2.5s4.3,0,4.3,0l0.5-1l8.3,0.2c0.7-0.7,1-1.7,1-1.7  s2-0.7,2.8-0.3s0.2-2.4-0.7-2c-0.8,0.3-2.5,0.2-2.5,0.2h-3C260.7,21.7,260.3,21.5,259.8,21.4L259.8,21.4z M245,24.8l-2.2,0.8  l-2.3,1.5l-2.5,0.3l-1.3,1.5l5.3,0.5l1,1.7l3.8,0.3l2.5,2.5c2.2,0.7,2.7-0.3,1.3-1.5l-2.2-2.2v-1.9l-0.7-0.7l-0.7-2.4L245,24.8z   M231.9,41.1V68c-14.5,0.3-28.8,3.7-41.8,10.1c-9.5,4.6-18.1,10.7-25.6,17.9l-19.1-19.1c9.6-9.3,20.5-16.9,32.2-22.7h0  C194.3,45.9,212.7,41.3,231.9,41.1L231.9,41.1z M66.4,41.8C58,44,50.9,49.5,44.6,56.5C31.4,71.1,32.5,92.7,34.3,112  c0.5,6,0.2,11-0.4,17.1c4-8.2,10.5-16,18.2-21.8c17.2-13,36-29.8,36.3-51.8c-5.7,15.9-23,22.5-34.5,33.3  c-6.1,5.7-10.8,12.6-13.5,19.8l-0.4-0.3c1.4-6.4,4.1-12.1,6-18.3C50.9,73.2,50,53.1,66.4,41.8L66.4,41.8z M401.4,41.8  c16.4,11.3,15.5,31.4,20.5,48.2c1.8,6.1,4.5,11.9,6,18.3l-0.4,0.3c-2.7-7.2-7.4-14.1-13.5-19.8c-11.5-10.9-28.8-17.4-34.5-33.3  c0.3,22.1,19.1,38.9,36.3,51.8c7.7,5.8,14.3,13.6,18.3,21.8c-0.7-6.1-1-11.2-0.4-17.1c1.8-19.3,2.9-40.9-10.3-55.6  C416.9,49.5,409.8,44,401.4,41.8L401.4,41.8z M311.1,45.2c-1.3,0-3.3,0.9-3.1,1.9c0.2,0.9,0.8,1.7,2.2,2l2.5,0.8c0,0,3.1,3.7,3,1.9  c-0.3-5.1-2.7-5.2-3.5-6.2C312,45.3,311.6,45.2,311.1,45.2L311.1,45.2z M259,47.2l-0.7,1.5l0.9,0.4l0.7-1.5L259,47.2z M262.1,48.9  c-0.1-0.1-1,1.2-1.7,1.6c0.8,0.4,1.9,1,1.9,1c1.3,0,2.2,1,2.2,1.5c0,0.5,1.8,0.3,1.8,0.3l0.2-1.2l-1.3-1.7l-1.2-0.8  C264,49.6,262.1,49.4,262.1,48.9C262.1,48.9,262.1,48.9,262.1,48.9L262.1,48.9z M254.9,49.9l-0.1,1l1.4,0.1l1,1.6l0.8-0.5l-1.2-1.9  l-0.1-0.2l-0.2,0L254.9,49.9z M216.4,54.2c-0.9,0-1.7,0.2-1.7,0.5c0.2,0.8,1.5,1.9,1.5,1.9s2.5,0.2,2.7,0.7c0.2,0.5,1.8,0.7,2,0.2  c0.2-0.5,0.8-1.5-0.7-1.5c-1.5,0-1.2-0.8-1.7-1.4C218.3,54.3,217.4,54.1,216.4,54.2L216.4,54.2z M349,55.8  c14.9,15.2,26.3,32.9,34.1,52.1c7.4,18.3,11.4,38,11.6,58.2h-29.7c-0.2-16.2-3.4-31.9-9.2-46.5c-0.8-2.1-1.7-4.2-2.7-6.3  c0.3-0.9,0.8-1.9,1.9-1.5c1.7,0.5,0.5-3.7,0.5-3.7s-2.3-1.7-2.2-2.5c0.2-0.9-2.3-2.5-2.2-3.2c0.2-0.7-2.2-2-2-2.7  c0.2-0.7-1.2-2.5-1.2-2.5l-2.5-2.4l-0.3-1.5l-2-0.2l-4-4.9l0.2-1.4l-1.2-0.2v-1.9l-1.2-0.7l-1.8-0.2l-3.7-4l-0.3-1.9h-1.8l0.3-2.9  L349,55.8z M258.6,55.9v1.5l1.8,0.2l-0.5-1.4L258.6,55.9z M118.8,55.9l21,21.1c-9.8,10.1-18,21.8-24.1,34.6  c-8,16.6-12.6,35.1-12.9,54.7H73.1c0.3-24.3,6-47.7,16.4-68.9C97,82,106.9,68,118.8,55.9L118.8,55.9z M266.8,63.7  c-0.2,0-0.3,0.1-0.3,0.2c0,0.5,0.7,0.5,1,1.5c0.3,1,0.2,2.7,1.7,3s1.8,0.7,2,1.4c0.2,0.7,2,0.8,2,0.8l1.3,0.7l4,3.4v-1.4  c0,0-0.2-1.4-1-1.4s-2.3-1-2-1.7c0.3-0.7-2.8-1.4-2.8-1.4s-2.8-2.7-1.8-2.4c1,0.3,0.5-1.2,0.5-1.2s-2,0.3-2.5,0.2  c-0.5-0.2-0.3-1.7-0.3-1.7S267.3,63.7,266.8,63.7L266.8,63.7z M175.4,65l-0.7,0.7l1,1l0.7-0.7L175.4,65z M31.5,71.9  c-0.4-0.1-0.7,0.2-1,0.4c-11.4,14.5-19,30.5-19,50c0,24.1,13.9,41,15.6,63.6c3.6-23.6,23.4-40.5,33.7-61.3c4-8.1,6.5-17.3,7.6-26.2  c-1.5,3.8-3.8,7.3-7,10.3C48.1,121.5,32.3,134,29.3,152c-0.4,2.6-0.6,5.2-1.4,7.7c-0.6,0.2-0.6-0.4-0.8-0.6l1.7-22.2  C30.4,115.1,18.9,91,31.5,71.9z M436.3,71.9c12.6,19.1,1.1,43.2,2.8,64.9l1.7,22.2c-0.2,0.2-0.2,0.8-0.8,0.6c-0.7-2.5-1-5.1-1.4-7.7  c-3-17.9-18.8-30.4-32.1-43.1c-3.1-2.9-5.4-6.4-7-10.3c1.1,8.9,3.6,18.1,7.6,26.2c10.3,20.8,30.1,37.6,33.7,61.3  c1.7-22.7,15.6-39.5,15.6-63.6c0-19.5-7.6-35.5-19-50C437,72.2,436.7,71.8,436.3,71.9L436.3,71.9z M231.9,71.9v29.7  c-9.1,0.3-18,2.4-26.2,6.2c-6.4,3-12.3,7-17.4,11.9l-21-21c7.3-7,15.6-12.8,24.7-17.2C204.2,75.5,217.8,72.2,231.9,71.9z   M235.9,71.9c12,0.2,23.7,2.7,34.5,7.1h0c3,1.2,5.9,2.6,8.7,4.1c0.1,0.1,0.3,0.2,0.5,0.3c4.7,2.5,9.2,5.5,13.4,8.8v0  c0.2,1.2,1.5,1.7,1.5,1.7l0.8,0.1c0.5,0.4,1.1,0.9,1.6,1.3v1.4c1.2-0.3,3,1.1,3.3,2.2l-20.7,20.7c-5.9-5.6-12.7-9.9-20-13  c-7.5-3.1-15.5-4.9-23.7-5.1L235.9,71.9z M142.6,79.7l19.1,19.1c-7.7,8-14.1,17.3-18.8,27.4l0,0c-5.8,12.5-9,26.2-9.2,40h-26.9  c0.3-18.6,4.5-36.5,12.4-52.8C125,101.1,132.9,89.7,142.6,79.7L142.6,79.7z M312.4,92.4c2.3,1.4,4,4.5,3.8,5.1c-0.3,0.7,2,0.5,2,0.5  c0.3-3,3.2-2,3.3-1c0.2,1,0.7,3.2,0.7,3.2l0.8,1.5l1.2,1.2l1.8-0.2l0.5,1l2.2,0.3c0,0,1.8,2,2,2.5c0.2,0.5,2.7,0.3,3.3,0.5  c0.7,0.2,1.7,0.7,1.8,1.5c0.2,0.9,1.2,2.2,1.2,2.2s2,0.5,2.2,1.2c0.2,0.7,1,2.2,1,2.2l1.7,1.4l0.2,1.5l1.8,0.2l0.5,2l3-0.2l1.7-1.2  c0.5-0.3,1-0.6,1.4-0.9c0.6,1.4,1.2,2.8,1.8,4.2c5.6,14.1,8.7,29.3,8.9,44.9h-26.9c-0.1-4.8-0.5-9.5-1.3-14.1c0.2-0.7,0.3-1.3,0-1.5  c-0.5-0.5,0.5-2.9,0.5-2.9s0.7-1.4,0-2.7c-0.7-1.4,0.2-2.9,0.7-3.5l-1.3-0.7l-1.3-0.2l-1,0.2c-0.3-1.1-0.6-2.1-1-3.2v0l0.8,0.2v-1  l-1.2-0.3c-0.2-0.7-0.5-1.4-0.7-2.1l-0.2-3.5l-1.2-0.8l0.3-1.4l-1.3-0.5l0.7-2.2l-1.2-2.4h-1.7c-0.8-1.6-1.6-3.2-2.5-4.7  c0.2-0.1,0.4-0.2,0.7-0.3c0.9-0.2,1.2-0.3,1.3-0.3l-0.2-1.8l-1.5-1l-0.5-2c0,0-1.8,0.3-1.7,1.4c0,0.2-0.1,0.4-0.3,0.5  c-1.2-1.9-2.4-3.7-3.7-5.5c0-0.1,0.1-0.2,0.1-0.3c0.7-1.2,0.3-1.9-0.8-2.2c-1.2-0.3-1.2-0.3-1.5-1.7s-1.7-1.7-1.7-1.7l-0.5-2  l-1.2,0.8c-0.7-0.8-1.3-1.5-2-2.3l0.6-1.9c-0.7-0.1-1-0.5-1.2-0.9L312.4,92.4z M205.6,96.5l-0.6,0.8l1,0.8l0.6-0.8L205.6,96.5z   M201.8,97.2L202,99h2.5c1,0-0.8-1.2-0.8-1.2S201.6,98,201.8,97.2L201.8,97.2z M312.3,97.5l-1,0.1l0.2,1.5l1-0.1L312.3,97.5z   M164.4,101.5l21,21c-4.4,4.7-8.1,9.9-11,15.6c-0.7,0-1.4,0.1-1.6,0.7c-0.5,1.3-2.7,1-2.7,1l-0.3,0.7l-1.7,0.3l-0.3,1l-2,0.3l5-0.2  c1.3-0.2-0.5,2.9-1.3,2.7l-2.3,0.2l-0.8,0.8h-2.2l-1,1.4l-3.2-0.2c0,0-1.8,1.5-1.7,2c0.2,0.5-0.3,2-0.8,2s-1.5,1.5-1.2,2  c0.3,0.5-1,2.2-1,2.2l-0.3,1.7l-1,0.3v4.5l-2,1.4v2l-0.9,1h-13.5c0.3-13.4,3.3-26.3,8.7-38.1v0C150.8,118.4,156.9,109.4,164.4,101.5  L164.4,101.5z M303,101.8c0.7,0.6,0.7,0.9,1.6,1.6c0.3,0.2,0.6,0.4,0.9,0.4c0.5,0.6,1.1,1.2,1.6,1.8l-0.4,0.5c0,1.9,0.9,1.4,1.8,1.2  c0.3,0.3,0.5,0.7,0.8,1c0.1,1.1,0.1,2.7,1.9,2.5h0c2.1,2.9,4.1,5.9,5.9,8.9l0,0.2h0c0.3,0.5,0.6,1,0.8,1.5c-0.4,0.3-0.6,0.7-0.6,0.7  l-2.7,0.3v2.7l-1.3,0.5l0.2,1.7l1.8-0.2c0,0,0,2,0.5,1.2c0.5-0.8,4.7,0.2,4.3,2.2c-0.1,0.8,4.2,3,3.7,5.7c0.3,0,0.6,0.2,0.8,0.3  c0.8,2.3,1.5,4.7,2.1,7l-0.3,0.6c0,0,0.3,0.2,0.6,0.5c0.5,2.1,1,4.2,1.3,6.3c-0.1,1.9-0.5,3.6-1.5,4.1c-2,1.2,0.2,0.5,0.2,0.5  l-0.3,3.7c0.5,1.7,1.3,0.8,1.8,0c0.3-0.5,0.5-0.7,0.8-1c0.3,2.5,0.4,5.1,0.5,7.7H310c0.1-0.1,0.3-0.5,0.3-0.5l0.8-2.4l2.8-0.8  l0.3-2.2l-1.5-0.2c0,0,1.7-3,2.5-3s6.3,0,6.8-0.3c0.5-0.3,1.5-3,1.5-3.5s1.3-0.7,1.8-0.8c0.5-0.2,1.7-1.5,2-2.2  c0.3-0.7-0.8-4.9-1.5-4.2c-0.7,0.7-2.2,1-2.2,1l-0.5,1.9l-0.8,0.7c0,0,0.2,0.5,0,1.7s-1.7,1.9-1.7,1.9l-0.7,0.8c0,0-4,0.2-4.5,0  c-1.5-0.7-0.5-2.7,0.5-2.5c1,0.2-0.2-2.9-0.2-2.9l1.3-0.2c0,0,0.2-3,0.7-3s-0.2-1-0.8-1.5c-0.7-0.5-1.5-2.2-2.2-2  c-0.7,0.2-3.3,0-3.3,0l-0.5,1l-1.8,0.3c0,0,0.2,1.3-0.2,1.7c-1,1.2-4.8,3.7-3.2-0.5l0.5-1v-1.5l-3-0.2c0,0-1.5-0.5-1.5-1.2  c0-0.7-0.2-1.5-0.2-1.5l-3.5-3.9l-4.2-0.5l-0.3-0.8l-2.5-0.3c-0.3-0.2-0.7-0.3-1.1-0.4c-1.2-1.9-2.4-3.7-3.8-5.4  c0-0.1-0.1-0.3-0.1-0.4c-0.2-0.6-2-3.2-3-3.3c-0.4-0.4-0.7-0.8-1.1-1.2L303,101.8z M319.3,103.9c-0.2,0-0.3,0.2-0.3,0.5  c0,0.7,0.8,1,0.5,1.9c-0.3,0.8,0.3,1.5,1,1.5c0.7,0,1.2,0.3,1.8,0.7c0.7,0.3,1.2,0.8,1.7,1.5l1.7-0.5c0,0,0.2-1.7-0.5-1.2  c-0.7,0.5-1.2-1.2-1.8-1c-0.7,0.2-1-0.7-1.7-1.5c-0.7-0.8-0.5-1-1.3-1.5C319.9,104,319.6,103.9,319.3,103.9L319.3,103.9z   M231.9,105.6v27c-3.5,0.2-6.9,0.9-10.1,2.1h0l-0.2-1.9l0.8-0.5l-1.3-0.5l-1,1.4l-0.3,1.5l-1.7,0.3v0.9h-1.2v1  c-2.4,1.3-4.7,2.9-6.8,4.8l-19.1-19.1c4.9-4.6,10.5-8.4,16.5-11.2h0C215.2,107.8,223.5,105.9,231.9,105.6L231.9,105.6z M235.9,105.6  c7.7,0.2,15.2,1.9,22.2,4.8c6.8,2.9,13.1,6.9,18.6,12.1l-1.1,1.1c-0.5-0.5-2.3-0.9-2.3-1.5c0-0.7-1.7-1.5-1.5-0.5  c0.2,1-1.2,1.5-1.5,1.2c-0.3-0.3-1.3,1-1.3,1c0,0.5-0.3,1.2,0.7,1.4c1,0.2,2.8-0.7,3,0.3c0.1,0.3,0.1,0.6,0.2,0.9l-6.6,6.6  c-0.9,0-1.8-0.1-1.8-0.1c-0.5,1.5-2.8-0.2-2.2-1.2c0.7-1,0.7-1.7,0.7-1.7l-0.8-0.2l-1,1.9c-2.3,0-3,1.4-2.5,2.2c0.5,0.9-0.7-0.2-1,1  s0.2,1.2,1.2,1.7c1,0.5-0.5,0.5,0.2,1.3c0.4,0.5,1.4,0.4,1.7,0.5l-1.3,1.3c-1.2,0.4-2.5,0.1-2.5,0.1c0,0.3-0.2,0.6-0.5,0.8  c-2.6-2.2-5.6-4-8.8-5.3c0.5-0.4,1.4-0.4,1.8-1.5c0.7-1.9,1-4.9,1-4.9s-2.7-0.2-2.8,0.7c-0.2,0.8-1.8,1.4-1.8,1.4s-1.3,0.5-0.8,1.2  s-1,1-1,1s0.1,0.5,0,0.9c-2.6-0.8-5.4-1.3-8.2-1.4L235.9,105.6z M324.3,111.4l-2,0.2c0.5,0.7,1.5,1.2,1.5,1.9c0,0.7-0.3,1.2,0.7,1.4  c1,0.2,1.7-0.2,2,0.7c0.3,0.8,0.3,2.2,0.2,2.9c-0.2,0.7,0.2,1.7,1,1.7s1,0.2,1,0.7s1-1.9,1-1.9c-0.8-0.7-1.5-2.2-1.5-2.2  s-0.8-2.4-0.8-2.7c0-0.3-1.2-0.7-1.7-0.8C325.1,112.9,324.3,111.4,324.3,111.4L324.3,111.4z M308.5,112l-1.7,0.2l0.1,1l1.7-0.2  L308.5,112z M309.5,113.2v0.8h1v-0.8H309.5z M308.2,114.9c0,0-1,1.4-3,0.7c0,0-0.3,3.2-1.3,3.9h-2.3c0,0,0.5,0.9,1,1.4  c0.5,0.5,1.7,1.5,0.5,2.2c-1.2,0.7,0.2,0.5,0.2,0.5s-0.2,3.6-1.7,3c-1.5-0.5-2,1.9-2,2.5s5.9,0.9,5,0c-0.5-0.5,0.7-1.7,0.7-1.7  s4,0.3,4.8,0.3s1.5-0.2,1-1c-0.5-0.9-2-0.7-2-0.7s-2,0.5-3.8-0.5c-1.8-1,0.3-1.4,0.7-1.4s1.8-1.2,1.2-2c-0.7-0.8,0-2.4,0-1.7  c0,0.7,1.8,1,2.2,0.5c0.3-0.5,0-2-0.8-2.5c-0.8-0.5,1.5-0.8,0.8-1.7C308.5,115.9,308.2,114.9,308.2,114.9L308.2,114.9z M311.5,120  v1.2h1V120H311.5z M313.7,120.6l-0.5,1l0.9,0.4l0.5-1L313.7,120.6z M329.9,121.9c-0.4,0.1,0.3,2-0.1,2.3c-0.5,0.3-0.8,1-1.3,1.5  c-0.5,0.5,1,1.2,1,1.7c0,0.5,0.3,3,0.3,3s1.2,0.5,1.3,1.2c0.2,0.7,0,2,0.5,2.2c0.5,0.2,1.5,0.8,1.2,1.5c-0.3,0.7-0.3,2-0.3,2  l0.7,1.5l1.3,0.8c0,0,0.5-4-0.3-4.2c-0.8-0.2-0.5-2.5-0.5-2.5s0.8-3.2-0.5-3.2s-0.3-1.7-1.2-2.2c-0.8-0.5-0.3-2.9-0.7-3.5  c-0.3-0.7-0.3-1.5-1.2-2C330,121.9,329.9,121.9,329.9,121.9z M289.5,125.2l-1.7,0.2l0.1,1l1.7-0.2L289.5,125.2z M264.3,125.2  c-0.5,0-1,0.1-1,0.1l-2.7,0.3l-0.2,1.2l1.8,0.2c0,0,0.8,0.7,0.8,1.2c0,0.5,1.2,1,1.8,1c0.7,0,2.5-1.3,2.5-1.3s0.8-2.4,0.2-2.2  c-0.7,0.2-2,1.2-2.2,0.2C265.4,125.4,264.8,125.2,264.3,125.2L264.3,125.2z M188.3,125.3l16.3,16.3l-1.6-0.1  c-0.7,1.5-2.3-0.2-2.3-0.2c-0.3-1-2.7,0-2.7,0c0,1.9-3.2-0.8-3.2-0.8l-5.8-4.2c-3.3-3-8.3,0.9-8.5,1.7c0.1,1.3-1,1.3-2.1,1.1  C181.1,134.1,184.4,129.5,188.3,125.3L188.3,125.3z M253.7,125.8l-1,0.2l0.3,1.5l1-0.2L253.7,125.8z M259.1,126l-3.7,0.2l0,1  l3.7-0.2L259.1,126z M227.9,126.4v1h1.3v-1H227.9z M236.5,126.5l-0.1,1l1.2,0.2l0.1-1L236.5,126.5z M238.6,127.1l-0.1,1l1.2,0.2  l0.1-1L238.6,127.1z M225.1,127.4l-0.2,1l1.2,0.2l0.1-1L225.1,127.4z M252.5,127.4l-0.5,0.2l0.3,1l0.5-0.2L252.5,127.4z   M292.8,127.8l-0.5,1.2l0.9,0.4l0.5-1.2L292.8,127.8z M280.4,128.1c0.6,0.2,1.2,0.3,1.8,0.4c0.8,1,1.6,1.9,2.3,3l-2.1-0.3l-1.3-0.2  l-2.5-0.2c-2.5,1.7-3,3.7-3,3.7c-1.1,2.2-3.6-0.1-3.6-1.7l4.4-4.4c0.3,0,0.5,0,0.8,0C278.3,128.4,280.4,128.1,280.4,128.1  L280.4,128.1z M240.9,128.4v1h1.3v-1H240.9z M224,128.6l-0.2,1l1.3,0.3l0.2-1L224,128.6z M223.6,130l-1,0.2l0.2,1l1-0.2L223.6,130z   M243.3,130l-1,0l0,1.2l1,0L243.3,130z M295.7,130.4c-0.7,0-1.3,0.1-1.8,0.2c-0.8,0.2-0.7,0.8,0,1.7l2-0.3c0,0,1.5-0.7,1.2-1.2  C296.9,130.5,296.3,130.4,295.7,130.4L295.7,130.4z M284.6,131.5c0.6,0.9,1.2,1.8,1.8,2.6c-0.2,0.4-0.3,1-0.1,1.5  c0.5,2.5,1.3,3.5-0.3,3.5c-1.7,0-2-1.4-2-1.4s-1.3-0.5-1.3,0.2c0,0.7-0.5,2,0,2.7c0.5,0.7-0.7,1.7-1.2,1.2c-0.5-0.5-1.8-2-1.5-2.5  c0.3-0.5-2.3-3.7,0.3-4.2c2.7-0.5-0.2-2,0.8-2.4l1.3-0.7h1.3L284.6,131.5z M7.1,132.1c-2.7,5.6-3.7,11.9-5.1,18  c-3,15.8,0,32.5,4.3,47.1c5.4,18.1,23.1,31.1,32.1,47.8l1.2,1c-1.3-9-2-18.8,0.6-27.4c3.9-13.8,8.8-27.2,11.3-41.5  c2-11.1,4.3-23.6,3-34.3c-1.5,5.8-3,11.5-6.2,16.5c-12.1,18.7-24.5,40.7-16,64.5c-0.2,0.3-0.5,0.6-0.8,0.4  c-3.4-7.9-4.2-16.8-6.4-25.2C19.2,176.6,2.1,157.9,7.1,132.1L7.1,132.1z M460.7,132.1c5,25.8-12.1,44.5-18,66.8  c-2.2,8.4-3,17.4-6.4,25.2c-0.3,0.2-0.6-0.2-0.8-0.4c8.5-23.8-3.9-45.7-16-64.5c-3.2-4.9-4.7-10.7-6.2-16.5c-1.3,10.8,1,23.2,3,34.3  c2.6,14.3,7.5,27.7,11.3,41.5c2.5,8.6,1.9,18.3,0.6,27.4l1.2-1c9-16.6,26.8-29.6,32.2-47.8c4.3-14.5,7.3-31.3,4.3-47.1  C464.4,144,463.3,137.7,460.7,132.1L460.7,132.1z M233.6,136.5l0.3,4l-1.8-0.6h-1.2l-0.5-1l-1-0.2v3.7l1,0.8l0.8,0.8l1.7,0.2l0.3,2  l4.2,0.2l0.5,0.8l2.5,0.2l4.8,4.9l-0.3,1.5l-0.8,0.5c0.3,1.2-2.2,0.5-2.2,0.5v1l1.2,0.2l1.2,0.7l1.7-2.9c1.8-1.2,2.7,0.5,2.8,1.5  c0.2,1-0.8,0.8-0.8,0.8v2.4l1,0.3c1.7,2-0.7,3.2-0.7,3.2l-0.5,1.7c-0.5,1.5-2.3,1.2-2.3,1.2l-0.7,1l-2,0.5l4,0.5  c0.4-1.4,1.4-1.7,1.9-1c0.5,0.7,0.5,1.9,0.5,1.9l1,0.2l-0.2,1.9l1,0.3v5.4l1.2,1.4c2-0.8,2,0.5,1,1.2c-1,0.7-0.3,3.7-0.3,3.7  l-0.8,0.9v1.4l-1,0.7v1.9c-1.7-0.9-3.7-0.5-4.2,0c-1.5-1-4.7-0.7-4.7,0.2c1,1.4-1.2,1.7-1.2,1.7l-1.2,1.4c0.8,1.7-0.8,1.9-0.8,1.9  v3.2l-2,1.9l0.1,3c-1,0.1-2,0.2-3.1,0.2c-7.8,0-15.1-2.8-20.9-7.9c0.1,0,0.2-0.1,0.3-0.3c0.8-1.4,2.2-1.5,2.2-1.5l0.5-1.2l4.5,0.2  c0.3-1.9,2.5-1.2,2.5-0.3c0,0.9,1.7,0.2,1.7,0.2l1.2-1.9h1.8l0.2-2l0.8-0.5v-3c2.7-0.8,2.3-3.4,2.3-3.4l0.7-0.8l-0.3-1.2  c-1.3-0.5-0.7-1.7,0.2-1.4c0.8,0.3-1.2-1.5-1.2-1.5c-1,0.9-1.8-1-1.8-1h-2.5v-2.4l-0.3-2.2l-2.5-1.2l-1.8,1.7l-0.3,2.4v1.5l-1.7,0.3  l-0.3,4.5l-1.3,0.5l0.2,1.7l-1.8,0.5l-1.8,0.5l-0.3,2.2l-1.3,0.9l-0.7,2L211,190c-2.3-2.4-4.2-5.2-5.7-8.2c0.3-1.2,0.3-2.3,0.3-2.3  c-1.5-0.7-0.7-3,1-1c1.7,2-1-4-1-4l-1.3-1.2l-1.7-0.2c-0.3-1.6-0.4-3.3-0.4-5c0-0.7,0-1.4,0.1-2.1c0.5-0.5,1-0.2,1-0.2l1,0.9  l1.5,1.2l0.2,1l-1,0.5l-0.2,1.4l0.5,1.9h1.3c0.5-2.7,4-2.7,5-1l1-2.4c-2.3-1.2,0-3,0.6-2.2c0.7,0.9,2.2-2.2,2.2-2.2s1.2,1.5,0-0.5  c-1.2-2,0.8-3,0.8-3c-0.3-2,2.2-1.7,2.2-1.7l0.2-2.7l-2.3-0.2c-0.5,2.4-2.5,0.3-1.5-0.2c1-0.5,2-1.5,2-1.5v-1.7l1-0.3l0.2-1.7h2.5  l2.2-1l0.5-0.8l2.3-0.2l3.3-3l-0.3-1.4c-2,0,0-1.5,0-1.5l0.3-2.5h-1.8l-0.3-3.6C228.8,136.8,231.2,136.5,233.6,136.5L233.6,136.5z   M334.8,146.2l-0.2,1.4l1,0.1l0.2-1.4L334.8,146.2z M334.2,150.8l-0.5,1l0.9,0.5l0.5-1L334.2,150.8z M161.7,157.5  c1.6-0.1,2.7,0.8,2.7,0.8l2.3-0.2c0.6,0.4,1,0.8,1.2,1.3c-0.2,1.6-0.3,3.1-0.4,4.7c-0.2,0.4-0.4,0.7-0.4,0.7  c-0.2,0.3-0.3,0.8-0.4,1.3h-6.3l0-0.1l-1.8-0.2c-2-1.2-1-5.6-1-5.6C159,158.2,160.4,157.6,161.7,157.5L161.7,157.5z M219.4,160.6  l-0.3,0.9h-0.8l-0.2,1.4h1l0.2,1l-0.7,0.7l-0.3,0.9l-1.3,0.3l-3,2.9l-0.2,1.3l-0.8,1.2l-1,2.5l-3.5,0.2l-0.7,3l0.5,2.5l3,1.2  l0.3-1.7l1-0.5l0.2-1.7l0.7-1.2l1-1.2l0.3-1.4l1.7-1l2-0.3l0.8-1l0.3-2l0.1-1.5l0.7-1l2-0.8V162h-1l-0.2-1.2L219.4,160.6z   M323.7,161.6l-0.2,1l1.8,0.3l0.2-1L323.7,161.6z M319.6,163.1l-0.5,0.3l-1.2,0.7l-1.1-0.7l-0.5,0.9l1.3,0.8l0.2,0.2l0.2-0.1l1-0.6  l0.1,0.3l0.9-0.4l-0.3-0.9L319.6,163.1z M306.8,170.1h23.3c-0.3,12.7-3,25.3-8.2,36.9c-4.5,10.2-10.7,19.5-18.4,27.5  c-0.3-3.4-1.1-7.1-1.1-7.1l-1.3-0.7l0.3-4.1h-1.8l-3,3.9l-0.3,1.1l-1.7-1.7l0.9-0.9l-0.2-2l1.2-1v-1.7l1-0.3l0.2-3.7l0.8-0.2V208  l-2.5-2.4c-0.2,0.8-2.8,0.8-2.8,0.8s-0.7,1.2-1.2,1.2s0.7,1.5,0.3,2.5c-0.3,1-1.7,1-1.7,1l-2.5,0.7l-0.7,0.8h-2.7l-0.2-1.5  c0.3-0.3,0.5-0.6,0.8-1l2.1-0.6l1.7-0.8l0.8-1.7c0.2-1.7,2.2-1.5,2.2-1.5s3.8-3.2,4-4.7c0.2-1.5,1.5-5.7,3.8-5.7h4.3  c1.7-0.7,1.2-2.9,1.2-2.9l2.2-0.3l0.3,1.2c0,0,3,0.3,3.3-0.2c0.3-0.5,1-1.7,1.8-1.2c0.8,0.5,3.5-1.2,3.5-1.2  c0.2-1.2,4.3-0.7,4.3-0.7l0.5-1.5c0,0-2.8-3.9-3.3-3.9s-3.2-2.4-3.5-1.5c-2.7-0.7-2.5-4.4-2.5-4.4l-1-2.4c0-1.4-2.5-4.2-3-3.9  C307,171.7,306.7,170.8,306.8,170.1L306.8,170.1z M334.1,170.1H361c-0.3,18.5-4.5,36-11.9,51.8h0c-6,12.8-14.1,24.5-23.9,34.7  l-0.7-0.7l-0.2-4.3l-0.8-0.8l-0.2-4.2c0.7-2.2-3.2-5.4-3.5-4.7c-0.3,0.7-2.5,0.2-2.5,0.8c0,0.7-1.3,4-0.7,5.2c0,0.1,0,0.1,0.1,0.2  l-10.5-10.5c8.2-8.5,14.6-18.1,19.3-28.6v0C330.9,196.7,333.8,183.5,334.1,170.1L334.1,170.1z M364.9,170.1h29.7  c-0.3,24.3-6,47.4-16,67.9h0c-7.6,15.6-17.6,29.9-29.7,42.3l-21-21c10.3-10.6,18.5-22.6,24.7-35.6h0  C360.4,207.2,364.7,189,364.9,170.1z M137.7,170.1h11.7l0.1,1l-2.5,2.7l0.3,2.7l-1.5,0.5l-0.3,1.2l-0.7,3.5l1.7,0.2  c0.8-0.3,0.7,2.2,0,2.5c-0.7,0.3-2.5,1-1.5,1.7c1,0.7-2.7,0.5-2.7-0.5s-2-1.9-2.5-1.5c-0.3,0.2-0.7-0.3-1-0.8  C138.2,178.9,137.7,174.6,137.7,170.1L137.7,170.1z M154.8,170.1h0.8c0.4,0.1,0.8,0.3,0.8,0.3l2.3,0.2l0.2-0.4h7.9l0.7,4.3l-2.2,1.9  c-1.8,1-1.8,3.4,0.2,3.9c1.3,0.2,0.8,3.4-1.2,1.2c-3,0,1.7,2.7,0.3,2c3,1.5,2.3-1.4,2.3-1.4l1.5-1.2c0.6,3.3,1.5,6.5,2.6,9.7  c3,8.6,7.9,16.5,14.2,23.2l-21,21c-1.4-1.4-2.7-2.9-3.9-4.4c0.2-1,0.9-2.1,0.9-2.1c2.2-1.4-0.5-3.5-0.5-3.5c0.3-2-1.2-4.4-1.2-4.4  c-3-2-2.2-5.9-2.2-5.9v-2.7c-2.5-2.4,1-2.7,1-2.7c1.2-2-0.8-3.5-0.8-3.5l-0.2-2.2l-2.7-0.3l-0.3-7.9l-6-8.6  c-1.2-0.3-0.3-2.4-0.3-2.4c1.5-0.8-0.3-2.9-0.3-2.9l-0.2-3.7l3.5-0.3l0.8-1.4h1.7l-0.2-4.4C153.9,170.6,154.4,170.3,154.8,170.1  L154.8,170.1z M196.4,170.1h1.9c0.1,1.2,0.2,2.4,0.4,3.5l-1,0.3l-0.3-0.7l-0.5,1.9h-3l-0.2-2l1.8-0.5l0.7-1L196.4,170.1z   M245.7,172.4c-0.3,0-0.6,0.2-0.8,0.8v2.2c0,0,2.3,3.7,3.2,4.2c0.8,0.5,2.2-0.6,1.3-1.2c-2.5-1.7-2.3-3.9-3-5.4  C246.2,172.8,246,172.5,245.7,172.4z M158.7,173.9l0.2,1.2h0.8c1.3,2.4,0.2,8.1,0.2,8.1s-2,0.2-2.3-0.8c-0.3-1-1.2,2.2-0.5,2.7  c0.7,0.5,3,0,3.2,1.9c0.2,1.9,1.5-1.2,1.5-1.2v-11.5L158.7,173.9z M238.7,177.3l-3,2.2c1.5,0.2,1.7,1.7,1.8,2.4  c0.4,1.5,0.3-2.4,1-2.2C239.2,179.9,238.7,177.3,238.7,177.3z M172.2,178.7c1.4,0.5,3,2.8,3,3.2c0,0.5,6.6,0.2,6.6,0.2  c1.8,1.2,2.5,4.2,2.5,4.2c1.8-2.4,5.7-0.2,2.8,1.2c2.7,1.7,2.7,3.2,2.7,3.2c2.2-0.7,2.2,1,2.2,1.5c0,0.5,0.7-2.5,0.7-2.5  c-2.5-1.9,3.3-2.5,1.7,0.8l-1,1.5l1.7,1.4l0.2,3.9c3.7-0.3,2.7-4.9,2.7-4.9l1.7-0.3c0-1.5,1.2-0.7,1.2-0.7c-0.8-4,0.8-5.7,1.8-6.3  c1.3,2.5,2.9,4.8,4.8,6.9L188.3,211c-5.9-6.3-10.3-13.5-13.2-21.4C173.8,186,172.8,182.4,172.2,178.7L172.2,178.7z M322.8,182.6  c-1.4-0.1-3.1,0.9-2.6,1.6c1,1.4,2.7,0.7,3.3,0.8c0.7,0.2,1.3,0.5,0.7-1.5C323.9,182.9,323.4,182.7,322.8,182.6L322.8,182.6z   M164.7,185c-0.4,0-0.7,0.3-0.7,0.7c0,0,0,0,0,0c0,0.4,0.3,0.7,0.7,0.7c0.4,0,0.7-0.3,0.7-0.7C165.4,185.3,165.1,185,164.7,185z   M162.9,187.3l-2.5,1.7l-1.7-1v4l2.7,3.5l1-2.4l0.3-1.5l-1.2-0.5l0.2-2.5l1-0.2L162.9,187.3z M224.4,191.5l-1.5,0.2l0.2,2.4l1,0.8  l1.8,0.5c0,0,2.5-0.7,2.7-2.7l-3.8-0.2L224.4,191.5z M245.4,192.8c1.4,0,1.1,3.4,1,4.5c-1,0.4-2,0.8-3,1.1v-3.7l1.7-1.9  C245.1,192.8,245.2,192.8,245.4,192.8L245.4,192.8z M210.1,194.7c5.8,5.2,13,8.3,20.7,8.9v0.1c0,0-0.6,1.5,0.1,1.8  c0.1,0,0.1,0.1,0.2,0.1c0.5,0.2,0.4,0.3,0.7,0.7l-0.4,0.9c0,0,0,0-0.1-0.1c-0.6-0.6-0.9,0.7-0.5,1.1c0.4,0.4-0.9,0.1-0.9,0.6  c0,0.5-0.4,0.8,0,1c0.4,0.2-0.1,0.4-0.6,0.8s2.1,0.5,2.1,0.5s-0.5-1,0.1-1c0.1,0,0.2,0,0.3,0v1.7c-0.2-0.1-0.4-0.1-0.7-0.2v1.2  l-1.3,0.2l1.2,1.3l0.9,0.1v2.8l0,0.2c0,2.2-5.5,0.7-6,0.2l-0.2,3l-1,0.2l0.2,2l-0.2,2.9l1.8-0.3v1.2l4.5,0.2l0.9-0.9v3.1l0,0.2  l-3,0.3l-1.3,0.7l-0.5-1h-1.3l-0.8,1.1c-3.9-0.6-7.8-1.5-11.5-2.8v0c-8.2-2.8-15.8-7.4-22.3-13.5L210.1,194.7z M51.7,196.4  c2.2,14.7-3.6,27.7-4.9,41.7c-1.1,11.5,0.9,22.7,5.4,32.3c1.3,2.9,3.7,5.5,4.4,8.4c-4.3-3.9-7.4-8.8-10.3-13.6  c-13.9-22.5-43-37.1-45-64.5c-1,12.2,0,25.1,4.1,35.9c5.6,15,16.5,26.6,29,36.4C47.2,283,62.6,291,74.3,299.9  c-2.3-5.9-6.1-11.3-7.6-17.5C59.8,254.5,63.7,222.2,51.7,196.4L51.7,196.4z M416.1,196.4c-12,25.9-8.1,58.2-15,86.1  c-1.5,6.2-5.3,11.6-7.6,17.5c11.8-9,27.2-16.9,40.1-27.1c12.5-9.8,23.3-21.4,29-36.4c4.1-10.8,5.1-23.7,4.1-35.9  c-2,27.4-31.1,42-45,64.5c-3,4.8-6,9.8-10.3,13.6c0.7-2.9,3.1-5.5,4.4-8.4c4.5-9.6,6.5-20.8,5.4-32.3  C419.7,224,413.9,211.1,416.1,196.4L416.1,196.4z M271.2,196.9c0.4,0,0.8,0.2,0.6,0.8c-0.5,1.5,0,2.2,0,2.2c2.2-2,4,0.2,3.8,0.7  s1.2,1,2,0.5c0.8-0.5,1.8,1.5,1.5,2.5c-0.3,1-3.3,0.9-3.5-0.2c-0.2-1-0.7-0.7-1-0.2c-0.3,0.4-1.4,0.7-2.2,0.5l-0.7-0.7  c0.1-0.2,0.2-0.4,0-0.6c-0.2-0.2-0.5-0.2-0.8-0.2l-1.5-1.5c0-1,0.3-2.4,0.2-2.8C269.3,197.5,270.5,196.9,271.2,196.9L271.2,196.9z   M163.1,197.6l-1.2,0.2l-0.2,1.4l1.3,0.2L163.1,197.6z M370.8,199c-0.7,0-1.5,0.4-2,0.7l0.5,0.8c0.6-0.4,1.5-0.6,1.7-0.5  c0,0,0,0,0-0.1l1-0.2c0-0.3-0.3-0.6-0.5-0.7C371.3,199.1,371,199,370.8,199L370.8,199z M163.5,200.7c-0.4,0-0.7,0.3-0.7,0.7  c0,0.4,0.3,0.7,0.7,0.7s0.7-0.3,0.7-0.7C164.2,201.1,163.9,200.7,163.5,200.7z M246.4,201.5c0,0.4,0.2,0.9,0.2,0.9l0.8,0.3L246,204  l-1.3,1.5L243,205l-2-0.2l-0.7-1.2l-1.2-0.2l-0.2,2.4l-0.8,1l-2,2c2.1,0,0.7,1.1-0.3,1.6v-6.8c2.2-0.1,4.3-0.4,6.3-0.9  c0.2,0.2,0.3,0.3,0.3,0.3h1.5l0.1-0.8C244.9,202.1,245.7,201.8,246.4,201.5L246.4,201.5z M164.7,204.3c-0.4,0-0.7,0.3-0.7,0.7  c0,0,0,0,0,0c0,0.4,0.3,0.7,0.7,0.7c0.4,0,0.7-0.3,0.7-0.7c0,0,0,0,0,0C165.4,204.6,165.1,204.3,164.7,204.3  C164.7,204.3,164.7,204.3,164.7,204.3z M227.5,204.8c-0.8,0-1.5,2.6-1.9,3.2c0,0,0.4,1.4,1.1,1.3c0.8-0.1,1.2-0.5,1.9-0.6  c0.6-0.1,0.9-1.1,1.1-2.1c0.2-1-0.2-1.5-0.2-1.5s-0.6,1-1.6,0C227.8,204.9,227.6,204.8,227.5,204.8z M161.6,206.2l-1.4,0.2v1.2  l1.4-0.2V206.2z M261.6,206.2h1.2l0.2,0.8l5.1,0.5l0.2,0c2,1.2,1,2.7,0.3,3c-0.7,0.3-1.8,0.3-1.8,0.3l-0.3,0.7l-4.3,0.3l-0.3,1.7  c-2.2-0.3-3,2-2.5,3.2c0.5,1.2,0,2.2,0,2.2l1.8,0.8l2.3-0.7c0.3-1.7,1.8-2,3.2-3c1.3-1,3.5,1.9,2.8,3.2c-0.1,0.2-0.1,0.3-0.2,0.4  c-2.5,1.8-5.2,3.3-8,4.7c-4.4,2.2-9.1,3.8-13.9,4.8l-0.2-0.1l-1.8-0.5l-0.2-2.5c-0.3-1.7-3.5-1.7-3.3-0.5c0.2,1.2-5.9,0.5-6,0.5  v-4.6l1.7-1.8l3.8-0.8c0.3-1.7,2,0.3,2,0.3c1.7-0.2,2,1,2,1l2.2,0.3c1.8,0.5,0.7,0.7,0.8,1.4c0.2,1,1,0.7,1,0.7l0.3-2.2l1,0.2  l-1-1.2l-1.8-0.9l-2-0.8c-1.3-1.9,0.3-1.5,1.7-1.4h2.2c0,0,2.5,3.4,2.5,4.2c0,0.8,1.2,1,1.2,1l1.5-0.2l0.5,1.2h1.5l0.5,1h3l0.2-1.5  l-2.8-0.5l-0.2-1.7l-2-0.5c-0.7-2.9,0.5-3.7,1.3-2.4l1,0.2l-0.3-2.5l1.2-0.3l-0.3-3.5l-1-0.3v-1.2l4.2,0.2  C261.1,207.2,261.6,206.2,261.6,206.2L261.6,206.2z M381.9,213.9l-0.9,0.5c0.1,0.2,0.1,0.5,0.2,0.7c0,0.3,0,0.6,0.3,0.9  c0.2,0.1,0.4,0.2,0.7,0.1l-0.2-1c0.1,0,0.2,0.1,0.2,0.1c0,0,0-0.1,0-0.2C382.2,214.7,382.1,214.3,381.9,213.9L381.9,213.9z   M381,215.7l-1,0.2c0.2,1,0.6,2,0.6,2.1l0.9-0.4C381.6,217.7,381.2,216.7,381,215.7L381,215.7z M302.9,216.7v3.2h1.2v-3.2H302.9z   M267,217.6l-1.3,0.8l0.5,0.9l1.3-0.9L267,217.6z M375.4,219.9c-0.1,0.8,0.1,1.8,0.9,1.9l0.2-1h0c-0.1-0.1-0.2-0.5-0.1-0.9  L375.4,219.9z M374.8,221.8c-0.3,0-0.7,0.3-1.1,0.6c-1,0.6-0.6,3.2,0,2.5c0.6-0.6,1.4,0,1.5-1.9C375.3,222,375.1,221.7,374.8,221.8z   M271.5,223.1l3.9,2c0.5,0.7,2.7,0.5,2.7,0.5l0.7,0.9c0,0,1.3-0.2,2.2,0.8c0.8,1,5.2,0.2,5.2,0.2l1.2,1l1.8,0.7l3.1,0.1l1.9,1.9  c-3,1.4-9.1,0.9-9.5,0.5c-0.5-0.5-4-2-4-2s-2.7-2.2-3.2-1.5c-0.5,0.7-2.8-0.8-2.8-0.3c0,0.5-2.2-1.2-2.2-1.2l-3.3-1.2l2.5-0.5  l-0.4-1.6C271.3,223.2,271.4,223.1,271.5,223.1L271.5,223.1z M90.9,233v1.7h1.3v2.2h1l-0.2-2.5l-1.3-0.5V233H90.9z M333.7,233.8  l-0.1,1.5l1.6,0.1l0.1-1.4L333.7,233.8z M332.4,237.4l-0.3,1c0.1,0,0.2,0.1,0.3,0.2l0.2,0.9c-0.1,0.1-0.2,0.2-0.2,0.3l0.7,0.7  c0.5-0.6,0.7-1.2,0.6-1.7C333.5,237.8,332.5,237.5,332.4,237.4L332.4,237.4z M303.3,240.4l7.3,7.3c-0.3,1.2-1.5,2-2.1,1.5  c-0.7-0.5,0.8,0.8,1.2,1.5c0.3,0.7,1.3,0.7,1.7,0c0.2-0.5,0.2-1.3,0.3-2l3.4,3.4c-0.4,0.9-0.9,1.8-0.7,2.3l1.5,0.7l0.2,2.9  c1.1,1.1,3.6,1.1,5.6,0.8l0.7,0.7c-6.2,6-12.9,11.3-20.1,15.9v-1.6c3-2.2,3.2-6.1,0.3-6.4c-2.2-0.2-1.2-2.5,0.8-2.9l1.2-0.5v-1.5  l3.8-3.5v-2.7l-8.3-6.9c-1.7-0.6-1.8-2.7-1.2-4.7C300.4,243.2,301.9,241.8,303.3,240.4L303.3,240.4z M99.2,240.8l1.2,3l0.7,1.5  l1.3,1.9l1.8,1.7l0.7-1.2l-1.2-2.5l-1.2-0.9l-0.8-2.4L99.2,240.8z M66.7,243.2c10.1,20.2,5.7,46.2,18.8,65.2  c4.1,6,9.8,11.7,15.1,16.4l-0.2,0.2c-4.8-2.2-9.1-5.6-13.5-9.2c-22.9-19.1-57.4-21.5-71.1-52.5c3.7,22.8,21.8,43,41.4,55.8  c18.6,12.2,42.4,10.8,63,17.6c-19.1-15.4-22-38.5-30.5-58.7C84.5,265.5,75.9,254.2,66.7,243.2z M401.1,243.2  c-9.2,11-17.8,22.3-23.1,34.9c-8.5,20.2-11.4,43.3-30.5,58.7c20.6-6.8,44.5-5.5,63-17.6c19.5-12.8,37.6-33,41.4-55.8  c-13.7,31.1-48.2,33.5-71.1,52.5c-4.4,3.6-8.7,7-13.5,9.2l-0.2-0.2c5.3-4.8,11-10.5,15.1-16.4C395.3,289.4,391,263.4,401.1,243.2z   M140.3,250.5c1.5,0,3.4,1.7,3.6,2.4c0.1,0.4,0.6,0.9,1.1,1.3l-2.5,2.5c-1.5-1.6-3-3.2-4.5-4.9h0.7  C139.1,250.8,139.6,250.5,140.3,250.5z M237.9,259.8c0.3,0,0.6,0,0.9,0c1,0.1,2.1,0.3,2.8,0.8c1.8,1.4,4.3,0.5,4.3,0.5l1.8,2.2  c-3.9,0.6-7.8,0.9-11.8,1v-4C236.3,260.1,237,259.9,237.9,259.8L237.9,259.8z M325.2,262.3l21,21c-11.7,11.4-25.1,21-39.8,28.5  c-21.2,10.8-45.1,17-70.4,17.3v-29.7c12-0.2,23.8-2,35.3-5.4l2.9,0.9l0.8,2.7l1.3-0.2l1-0.8l4-0.2l2-1.9l2.2-0.3l15.7-13.3  C309.7,275.6,317.8,269.4,325.2,262.3L325.2,262.3z M249.6,267.1l0.3,0.8l2.8,0.8l2,0.5l0.7,2.9l1.5,0.2l0.5,1.9  c1.8,1.4-0.5,4.2-0.5,4.2v3.7l1.3,0.7l-0.2,1.4l2.2,2.2l2.5,0.2l4.1,4.4c-10.1,2.7-20.6,4.2-31,4.4v-26.9  C240.5,268.3,245.1,267.9,249.6,267.1z M209.5,269.9l-1,0.8l-0.5,0.4l0.5,0.4l1.2,0.8l0.6-0.8l-0.7-0.5l0.5-0.4L209.5,269.9z   M221.3,282l-0.5,0.9l1,0.5l-0.3,0.4l0.7,0.7l0.8-0.9l0.5-0.5l-0.6-0.3L221.3,282z M137.1,290.5l1.3,2l0.2,1.5l1.7,0.5l0.7,1  l1.2-0.7l-0.8-2.2l-2.2-1.9L137.1,290.5z M99.7,292.4c12.5,16.8,16,41.2,38.8,49.7c4,1.5,8.7,1.8,12.2,4c-4.4,0.7-8.2-0.7-12.3-1.6  c-29.4-6.2-65.2,1.8-87.2-23.2c8.4,16.4,25.5,29.3,42.1,34.7c25.6,8.5,52.3-1,76.3-6.9c3.5-0.9,7.7-0.6,10.9-1.8  c-13.4-2.7-26.3-6.8-36.7-16.3C128.8,317.5,115.6,303,99.7,292.4L99.7,292.4z M368.1,292.4c-15.9,10.6-29.1,25.1-44,38.7  c-10.4,9.5-23.3,13.5-36.7,16.3c3.2,1.2,7.4,0.9,10.9,1.8c24,6,50.7,15.4,76.3,6.9c16.5-5.5,33.7-18.4,42.1-34.7  c-22,25-57.9,17-87.2,23.2c-4.1,0.9-7.9,2.2-12.3,1.6c3.5-2.2,8.1-2.5,12.2-4C352.1,333.6,355.6,309.2,368.1,292.4L368.1,292.4z   M209.7,346.7c-22.5,0-42.7,10.9-62.5,19.1c-17.9,7.4-41.6,6-57.5-5c7.8,9.8,18.3,15.9,29.2,20c20.1,8,43.6,1.9,60.8-9.1  c12.3-7.9,22.9-19.1,37.6-19.1c2.6,0,5.2,0.3,7.8,0.8c2.9-1.2,5.8-2.2,8.7-3.1C226,348.1,217.9,346.7,209.7,346.7z M233.9,350.5  c3,0.9,5.9,1.9,8.7,3.1c2.6-0.5,5.2-0.8,7.8-0.8c14.7,0,25.3,11.2,37.6,19.1c17.1,11,40.6,17.1,60.8,9.1c10.8-4.1,21.3-10.2,29.2-20  c-15.8,10.9-39.6,12.4-57.5,5c-19.8-8.2-39.9-19.1-62.4-19.1C249.9,346.7,241.8,348.1,233.9,350.5z M242.6,353.6  c-2.9,0.6-5.8,1.5-8.7,2.7c18.5,7.5,37,25.8,53.3,42.7c3.3-2.7,6.8-5.5,9.5-8.6C282,376.4,263.3,361.8,242.6,353.6z M233.9,356.3  c-2.9-1.2-5.8-2.1-8.7-2.7c-20.6,8.3-39.4,22.8-54,36.8c2.7,3.1,6.2,6,9.5,8.6C196.9,382.1,215.4,363.8,233.9,356.3z"/>
<path class="st0" d="M225.2,353.6c0.6-0.7,7.4-3.2,8.7-3.1c1.5,0,8.7,2.7,8.7,3.1c-0.1,0.6-7.8,2.9-8.7,2.7  C233.4,356.3,225.2,353.9,225.2,353.6z"/>
</svg>