<svg xmlns="http://www.w3.org/2000/svg" viewBox="0 0 200 200" preserveAspectRatio="xMidYMid meet">
 <defs>
  <style>.cls-1{fill:#1d4c86;}</style>
 </defs>
 <title>icon-6</title>
 <g>
  <title>background</title>
  <rect fill="none" id="canvas_background" height="202" width="202" y="-1" x="-1"/>
 </g>
 <g>
  <title>Layer 1</title>
  <g stroke="null" id="Слой_2">
   <g stroke="null" id="Слой_2-2">
    <path stroke="null" id="svg_1" d="m192.61834,142.25854l0,-44.96655l-10.14933,0l0,-19.93456l-10.33138,0l0,-9.10254l-19.88905,0l0,-10.78651l-42.50886,0l0,-9.51215l-19.66149,0l0,9.51215l-42.55437,0l0,10.78651l-19.25187,0l0,9.10254l-10.33138,0l0,19.93456l-10.14933,0l0,44.96655l-4.55127,0l0,9.78523l193.51999,0l0,-9.78523l-4.14166,0zm-4.96088,-40.00566l0,40.00566l-5.18845,0l0,-40.00566l5.18845,0zm-10.14933,-19.93456l0,59.94022l-5.3705,0l0,-59.94022l5.3705,0zm-25.25955,59.94022l0,-19.84354l-4.96088,0l0,19.84354l-14.97368,0l0,-19.84354l-4.96088,0l0,19.84354l-14.88265,0l0,-19.84354l-5.0064,0l0,19.84354l-14.7006,0l0,-19.84354l-4.96088,0l0,19.84354l-15.24675,0l0,-19.84354l-4.96088,0l0,19.84354l-14.97368,0l0,-19.84354l-4.96088,0l0,19.84354l-14.42753,0l0,-25.16852l133.85285,0l0,25.16852l-14.83714,0zm-99.76383,-79.82927l94.80295,0l0,5.82563l-94.80295,0l0,-5.82563zm-19.25187,10.78651l133.85285,0l0,38.91336l-4.86986,0l0,-34.31657l-5.0064,0l0,34.31657l-4.96088,0l0,-34.31657l-4.96088,0l0,34.31657l-5.0064,0l0,-34.31657l-4.96088,0l0,34.31657l-5.0064,0l0,-34.31657l-4.96088,0l0,34.31657l-5.0064,0l0,-34.31657l-4.96088,0l0,34.31657l-4.91537,0l0,-34.31657l-5.05191,0l0,34.31657l-5.0064,0l0,-34.31657l-4.96088,0l0,34.31657l-4.96088,0l0,-34.31657l-5.0064,0l0,34.31657l-4.96088,0l0,-34.31657l-4.96088,0l0,34.31657l-5.0064,0l0,-34.31657l-4.96088,0l0,34.31657l-5.18845,0l0,-34.31657l-4.55127,0l0,34.31657l-5.0064,0l0,-34.31657l-5.18845,0l0,34.31657l-5.0064,0l0,-34.31657l-4.96088,0l0,34.31657l-4.55127,0l0,-38.91336l0.09103,0zm-10.33138,9.10254l5.3705,0l0,59.94022l-5.3705,0l0,-59.94022zm-10.14933,19.93456l5.18845,0l0,40.00566l-5.18845,0l0,-40.00566z" class="cls-1"/>
   </g>
  </g>
 </g>
</svg>