<svg xmlns="http://www.w3.org/2000/svg" viewBox="0 0 200 200" preserveAspectRatio="xMidYMid meet">
 <defs>
  <style>.cls-1{fill:#1d4c86;}</style>
 </defs>
 <title>icon-7</title>
 <g>
  <title>background</title>
  <rect fill="none" id="canvas_background" height="202" width="202" y="-1" x="-1"/>
 </g>
 <g>
  <title>Layer 1</title>
  <g stroke="null" id="Слой_2">
   <g stroke="null" id="Слой_2-2">
    <rect stroke="null" id="svg_1" height="5.08906" width="15.31387" y="92.48313" x="16.05386" class="cls-1"/>
    <rect stroke="null" id="svg_2" height="5.08906" width="15.31387" y="82.16495" x="16.05386" class="cls-1"/>
    <rect stroke="null" id="svg_3" height="5.08906" width="15.31387" y="102.66125" x="16.05386" class="cls-1"/>
    <rect stroke="null" id="svg_4" height="5.08906" width="15.31387" y="112.79268" x="16.05386" class="cls-1"/>
    <rect stroke="null" id="svg_5" height="5.08906" width="15.31387" y="122.9708" x="16.05386" class="cls-1"/>
    <rect stroke="null" id="svg_6" height="5.08906" width="15.31387" y="133.10223" x="16.05386" class="cls-1"/>
    <rect stroke="null" id="svg_7" height="5.08906" width="15.31387" y="92.48313" x="168.63227" class="cls-1"/>
    <rect stroke="null" id="svg_8" height="5.08906" width="15.31387" y="82.16495" x="168.63227" class="cls-1"/>
    <rect stroke="null" id="svg_9" height="5.08906" width="15.31387" y="102.66125" x="168.63227" class="cls-1"/>
    <rect stroke="null" id="svg_10" height="5.08906" width="15.31387" y="112.79268" x="168.63227" class="cls-1"/>
    <rect stroke="null" id="svg_11" height="5.08906" width="15.31387" y="122.9708" x="168.63227" class="cls-1"/>
    <rect stroke="null" id="svg_12" height="5.08906" width="15.31387" y="133.10223" x="168.63227" class="cls-1"/>
    <path stroke="null" id="svg_13" d="m193.9375,143.56048l0,-81.70508l-35.2966,0l0,4.66886l-20.68306,0l0,5.3225l-14.89367,0l0,-4.66886l4.66886,0l0,-15.96751l-20.40293,0l0,-4.9023l-14.66023,0l0,4.9023l-20.21617,0l0,15.73406l4.66886,0l0,4.66886l-15.08042,0l0,-5.3225l-20.68306,0l0,-4.66886l-35.2966,0l0,81.70508l-5.3225,0l0,10.36487l198.52001,0l0,-10.13143l-5.3225,0zm-137.17116,-10.45825l-15.40724,0l0,-5.04237l15.40724,0l0,5.04237zm0,-10.13143l-15.40724,0l0,-5.04237l15.40724,0l0,5.04237zm0,-10.17812l-15.40724,0l0,-5.04237l15.40724,0l0,5.04237zm0,-10.13143l-15.40724,0l0,-4.99568l15.40724,0l0,4.99568zm0,-10.17812l-15.40724,0l0,-10.41156l15.40724,0l0,10.41156zm-15.40724,51.07735l0,-5.3225l15.40724,0l0,5.3225l-15.40724,0zm20.68306,-56.39985l4.66886,0l0,56.39985l-4.66886,0l0,-56.39985zm30.39429,35.76348l20.02942,0l0,20.63637l-4.9023,0l0,-15.31387l-5.13575,0l0,15.31387l-4.66886,0l0,-15.31387l-5.13575,0l0,15.31387l-5.08906,0l0,-20.63637l4.9023,0zm-15.50062,20.63637l-4.9023,0l0,-56.39985l4.9023,0l0,56.39985zm46.12836,-56.39985l4.9023,0l0,56.39985l-4.9023,0l0,-56.39985zm10.03805,56.39985l0,-56.39985l4.66886,0l0,56.39985l-4.66886,0zm25.53867,-10.45825l-15.54731,0l0,-5.04237l15.54731,0l0,5.04237zm0,-10.13143l-15.54731,0l0,-5.04237l15.54731,0l0,5.04237zm0,-10.17812l-15.54731,0l0,-5.04237l15.54731,0l0,5.04237zm0,-10.13143l-15.54731,0l0,-4.99568l15.54731,0l0,4.99568zm0,-10.17812l-15.54731,0l0,-10.41156l15.54731,0l0,10.41156zm-15.54731,51.07735l0,-5.3225l15.54731,0l0,5.3225l-15.54731,0zm20.63637,0l0,-66.62466l25.11848,0l0,66.62466l-25.11848,0zm25.11848,-71.71372l-25.11848,0l0,-4.66886l25.11848,0l0,4.66886zm-45.75485,-0.4202l15.54731,0l0,5.50926l-15.54731,0l0,-5.50926zm-5.13575,5.50926l0,5.13575l-14.89367,0l0,-5.13575l14.89367,0zm-15.50062,-20.63637l0,5.55595l-15.12711,0l0,-5.55595l15.12711,0zm-44.91445,0l15.12711,0l0,5.55595l-15.12711,0l0,-5.55595zm4.66886,10.64501l35.95024,0l0,46.17504l-5.36919,0l0,-41.08598l-5.22913,0l0,41.08598l-4.9023,0l0,-41.08598l-5.3225,0l0,41.08598l-4.9023,0l0,-41.08598l-5.08906,0l0,41.08598l-5.3225,0l0,-46.17504l0.18675,0zm-5.27581,9.99136l0,5.13575l-14.89367,0l0,-5.13575l14.89367,0zm-20.16948,-5.50926l0,5.50926l-15.40724,0l0,-5.50926l15.40724,0zm-20.63637,-4.66886l0,4.66886l-24.97841,0l0,-4.66886l24.97841,0zm-24.97841,10.17812l25.11848,0l0,66.62466l-25.11848,0l0,-66.62466z" class="cls-1"/>
   </g>
  </g>
 </g>
</svg>