<svg xmlns="http://www.w3.org/2000/svg" viewBox="0 0 200 200" preserveAspectRatio="xMidYMid meet">
 <defs>
  <style>.cls-1{fill:#1d4c86;}</style>
 </defs>
 <title>libra</title>
 <g>
  <title>background</title>
  <rect fill="none" id="canvas_background" height="202" width="202" y="-1" x="-1"/>
 </g>
 <g>
  <title>Layer 1</title>
  <g stroke="null" id="Слой_2">
   <g stroke="null" id="Слой_2-2">
    <path stroke="null" id="svg_1" d="m197.30396,99.42223l-27.22556,-52.76995l-0.32689,-0.46699a11.11438,11.11438 0 0 0 -9.33981,-5.277l-56.92617,0l0,-0.93398a15.83099,15.83099 0 1 0 -7.14496,0l0,1.02738l-56.55257,0a11.11438,11.11438 0 0 0 -9.47991,5.1836l-0.32689,0.37359l-27.22556,52.86335a17.41875,17.41875 0 0 0 1.96136,19.19332a40.76829,40.76829 0 0 0 30.3544,11.62807a40.81499,40.81499 0 0 0 30.4011,-11.81486a17.41875,17.41875 0 0 0 1.96136,-19.19332l-26.47837,-51.36898l55.4785,0l0,113.29195l-37.77955,0a10.0403,10.0403 0 0 0 -10.0403,10.0403l0,9.9936a10.087,10.087 0 0 0 10.0403,10.087l82.70405,0a10.087,10.087 0 0 0 10.087,-10.087l0,-9.9936a10.087,10.087 0 0 0 -10.087,-10.0403l-37.87295,0l0,-112.96505l55.61859,0l-26.47837,51.36898a17.41875,17.41875 0 0 0 1.96136,19.19332a40.76829,40.76829 0 0 0 30.3544,11.48797a40.81499,40.81499 0 0 0 30.4011,-11.81486a17.41875,17.41875 0 0 0 1.96136,-19.00652zm-162.23257,23.86323a33.62333,33.62333 0 0 1 -24.9373,-9.33981a10.087,10.087 0 0 1 -2.00806,-4.06282l53.89073,0a9.33981,9.33981 0 0 1 -1.96136,4.06282a33.67003,33.67003 0 0 1 -24.984,9.33981zm26.01138,-20.54759l-51.97607,0l24.33022,-47.49296l0,0l1.44767,-2.84864l26.19818,50.2949l0,0.0467zm83.21774,68.46084l0,9.9936a2.94204,2.94204 0 0 1 -2.94204,2.89534l-82.70405,0a2.89534,2.89534 0 0 1 -2.89534,-2.89534l0,-9.9936a2.89534,2.89534 0 0 1 2.89534,-2.89534l82.70405,0a2.94204,2.94204 0 0 1 2.94204,2.89534zm-52.91005,-146.58838a8.63933,8.63933 0 1 1 8.63933,8.63933a8.63933,8.63933 0 0 1 -8.63933,-8.63933zm73.55104,28.01944l1.49437,2.84864l0,0l24.51701,47.21276l-51.97607,0l25.96468,-50.0614zm0,70.88919a33.62333,33.62333 0 0 1 -24.9373,-9.33981a10.087,10.087 0 0 1 -2.00806,-4.06282l53.89073,0a9.33981,9.33981 0 0 1 -1.96136,4.06282a33.67003,33.67003 0 0 1 -24.984,9.10632l0,0.2335z" class="cls-1"/>
   </g>
  </g>
 </g>
</svg>