<svg xmlns="http://www.w3.org/2000/svg" viewBox="0 0 200 200" preserveAspectRatio="xMidYMid meet">

 <g>
  <title>Layer 1</title>
  <path stroke="null" id="svg_1" fill="gray" d="m25.80772,19.33663c0.28307,-0.00141 0.56614,-0.00283 0.85778,-0.00428c0.95085,-0.00376 1.9016,-0.00177 2.85245,0.00019c0.68767,-0.0015 1.37534,-0.00336 2.06301,-0.00553c1.8916,-0.00494 3.78318,-0.00482 5.67478,-0.00387c2.03934,0.00017 4.07868,-0.00428 6.11802,-0.0081c3.99617,-0.0067 7.99233,-0.00891 11.98851,-0.00936c3.24778,-0.00038 6.49557,-0.00204 9.74335,-0.00459c9.20493,-0.0071 18.40984,-0.01082 27.61477,-0.01021c0.7446,0.00005 0.7446,0.00005 1.50424,0.0001c0.497,0.00004 0.99401,0.00007 1.50607,0.0001c8.05596,0.00033 16.11188,-0.00739 24.16784,-0.01875c8.26871,-0.01157 16.53741,-0.01714 24.80614,-0.01645c4.64349,0.00027 9.28696,-0.00195 13.93045,-0.01062c3.9534,-0.00733 7.90676,-0.0091 11.86016,-0.00362c2.01735,0.00264 4.03461,0.00266 6.05195,-0.00432c1.8469,-0.00632 3.69365,-0.0052 5.54054,0.00184c0.668,0.00124 1.336,-0.00024 2.00398,-0.00472c3.83626,-0.02404 6.8334,-0.03427 9.85076,2.60987c0.21716,0.26236 0.43432,0.52472 0.65806,0.79503c0.22339,0.26132 0.44679,0.52264 0.67695,0.79188c1.12677,1.63534 1.48926,3.07893 1.49223,5.05067c0.0026,0.43723 0.0052,0.87446 0.00788,1.32494c-0.00187,0.71708 -0.00187,0.71708 -0.00378,1.44866c0.00183,0.50964 0.00365,1.01927 0.00553,1.54435c0.00493,1.41372 0.00482,2.82739 0.00387,4.24111c-0.00016,1.52505 0.00428,3.05009 0.00811,4.57514c0.00669,2.98756 0.00891,5.97512 0.00936,8.96269c0.00038,2.42852 0.00204,4.85703 0.00459,7.28555c0.0071,6.88548 0.01082,13.77096 0.01021,20.65644c-0.00003,0.3712 -0.00006,0.7424 -0.0001,1.12485c-0.00003,0.37166 -0.00006,0.74331 -0.0001,1.12622c-0.00033,6.02316 0.00739,12.04627 0.01875,18.06942c0.01158,6.1847 0.01714,12.36939 0.01645,18.55411c-0.00027,3.47217 0.00195,6.94431 0.01062,10.41647c0.00734,2.95632 0.00909,5.91258 0.00362,8.86891c-0.00263,1.50803 -0.00268,3.01595 0.00431,4.52397c0.00751,1.63577 0.00249,3.27126 -0.00373,4.90703c0.00415,0.47536 0.00829,0.95072 0.01257,1.44048c-0.02668,3.16888 -0.46893,5.35469 -2.61582,7.80463c-0.26236,0.21716 -0.52472,0.43432 -0.79502,0.65806c-0.26132,0.2234 -0.52264,0.44679 -0.79188,0.67695c-2.30748,1.58989 -4.43661,1.49351 -7.14833,1.4628c-0.6554,-0.00247 -0.6554,-0.00247 -1.32405,-0.00499c-1.46683,-0.00637 -2.93356,-0.01842 -4.40036,-0.03031c-1.05059,-0.00549 -2.10119,-0.01054 -3.15179,-0.0152c-1.97064,-0.00894 -3.94127,-0.01924 -5.9119,-0.03111c-3.8734,-0.02314 -7.74676,-0.03435 -11.62021,-0.04105c-0.61014,-0.0011 -1.22027,-0.00221 -1.83041,-0.00332c-1.23522,-0.0022 -2.47044,-0.00435 -3.70566,-0.00645c-3.17439,-0.00545 -6.34878,-0.01146 -9.52317,-0.01879c-0.31851,-0.00073 -0.63703,-0.00146 -0.9652,-0.00221c-5.16034,-0.01238 -10.32045,-0.04234 -15.48068,-0.07805c-5.30077,-0.0362 -10.60131,-0.05087 -15.9022,-0.0463c-3.26827,0.00209 -6.53554,-0.01292 -9.80359,-0.05002c-2.50596,-0.02671 -5.01108,-0.02374 -7.51712,-0.00979c-1.02665,0.00104 -2.05337,-0.00758 -3.07985,-0.02661c-4.95245,-0.32564 -4.95245,-0.32564 -9.4612,1.25409c-1.38455,1.50964 -2.1008,3.20352 -2.86625,5.08117c-0.69374,0.9613 -1.44201,1.73582 -2.26701,2.59446c-0.18898,0.19735 -0.37796,0.39471 -0.57266,0.59804c-0.52867,0.55037 -1.06098,1.09723 -1.59359,1.64378c-0.34444,0.38886 -0.34444,0.38886 -0.69585,0.78558c-5.77018,6.3472 -15.80749,10.46792 -24.27783,10.97343c-5.95971,0.11734 -11.633,0.17322 -17.34378,-1.68343c-0.39101,-0.12634 -0.39101,-0.12634 -0.78991,-0.25523c-6.31642,-2.12404 -11.43221,-5.57427 -16.13707,-10.22337c-0.4325,-0.38886 -0.4325,-0.38886 -0.87374,-0.78558c-6.49196,-5.97364 -10.76582,-15.83661 -11.2883,-24.59112c-0.20948,-10.63921 1.01554,-21.32946 8.13181,-29.83751c0.35993,-0.32061 0.71986,-0.64122 1.0907,-0.97155c2.19085,-1.98782 3.55274,-3.58528 3.8252,-6.61233c0.06524,-1.67373 0.04187,-3.33674 -0.00405,-5.0106c-0.00281,-0.69636 -0.00362,-1.39274 -0.00236,-2.08911c-0.00127,-1.68921 -0.02961,-3.37594 -0.07321,-5.06456c-0.24226,-0.04621 -0.48452,-0.09241 -0.73412,-0.14001c-3.4722,-0.70749 -5.47997,-2.01636 -7.50267,-4.97335c-1.82177,-2.87412 -1.80258,-6.08599 -1.43577,-9.39548c0.82504,-2.99174 2.67389,-5.1537 5.2393,-6.8514c1.45849,-0.72925 2.78094,-1.20907 4.43326,-1.20907c-0.00149,-0.22758 -0.00297,-0.45517 -0.00451,-0.68965c-0.03566,-5.54721 -0.0622,-11.0944 -0.07902,-16.6417c-0.00841,-2.68269 -0.01981,-5.36527 -0.03809,-8.04792c-0.01754,-2.58965 -0.02716,-5.17922 -0.03134,-7.76893c-0.00297,-0.98724 -0.00879,-1.97447 -0.0175,-2.96167c-0.01173,-1.38447 -0.01332,-2.76862 -0.01257,-4.15313c-0.0058,-0.40672 -0.01159,-0.81344 -0.01756,-1.23249c0.01723,-2.96148 0.63423,-5.11954 2.60455,-7.36797c0.26236,-0.21716 0.52472,-0.43432 0.79503,-0.65806c0.26132,-0.2234 0.52264,-0.44679 0.79188,-0.67695c1.86658,-1.2861 3.4597,-1.4897 5.70526,-1.49223zm-2.44171,7.76113c-1.19706,1.79792 -0.91294,4.08277 -0.89755,6.16549c-0.00012,0.41697 -0.00024,0.83394 -0.00036,1.26355c0.00056,1.37603 0.00683,2.75196 0.01315,4.12797c0.0015,0.95492 0.00265,1.90985 0.00346,2.86477c0.00308,2.51178 0.01099,5.02353 0.01991,7.53529c0.00825,2.5637 0.01193,5.12741 0.01599,7.69112c0.00864,5.02915 0.0224,10.05828 0.03936,15.0874c1.94729,0 2.16165,-0.33551 3.52645,-1.63728c0.35535,-0.33301 0.7107,-0.66603 1.07683,-1.00913c0.51433,-0.48549 0.51433,-0.48549 1.03905,-0.98079c0.53461,-0.47332 1.07174,-0.94382 1.61209,-1.41058c1.56617,-1.36408 3.10812,-2.75396 4.64736,-4.14831c1.17105,-1.0469 2.36814,-2.06049 3.57683,-3.06361c0.71367,-0.71892 1.10404,-1.30663 1.44837,-2.25914c-0.133,-0.39899 -0.266,-0.79799 -0.40302,-1.20907c-0.26163,-3.95957 -0.18494,-7.13532 2.24182,-10.35266c2.19817,-2.33188 4.58465,-3.4147 7.79638,-3.58864c3.45955,-0.05489 6.21422,0.56277 8.83621,2.91641c2.38618,2.57197 3.30777,5.54145 3.29188,9.00978c-0.1788,1.23978 -0.47901,2.41985 -0.80605,3.62721c-0.13854,0.67085 -0.27388,1.34239 -0.40302,2.01512c3.41134,2.93677 6.88383,5.7535 10.47861,8.46349c0.2795,0.24781 0.55901,0.49562 0.84698,0.75095c0.73879,0.55592 0.73879,0.55592 1.59163,0.31171c0.3008,-0.12624 0.60161,-0.25249 0.91153,-0.38256c3.78327,-1.29472 7.95969,-1.2353 11.56173,0.52897c0.49017,-0.41692 0.49017,-0.41692 0.99024,-0.84225c2.86964,-2.43689 5.76205,-4.84204 8.68232,-7.21821c1.11649,-0.91549 2.23198,-1.83048 3.33439,-2.76291c1.09887,-0.8643 1.09887,-0.8643 2.27331,-1.53967c1.25724,-0.77028 2.02487,-1.32204 2.8558,-2.54881c0.27,-1.60012 0.15791,-3.18993 0.07025,-4.80332c-0.14057,-2.74859 0.18164,-4.67256 1.94487,-6.88436c1.97443,-2.18548 4.09907,-3.50306 7.05133,-3.74056c3.75612,-0.08934 6.79955,0.07676 9.72136,2.69522c2.53073,2.91677 3.11753,5.91445 3.09037,9.67414c-0.15639,1.96873 -0.70118,3.40477 -1.72702,5.074c-0.22444,0.36574 -0.44887,0.73149 -0.6801,1.10831c-2.91052,2.83185 -6.03001,3.40618 -9.95122,3.43829c-1.42395,-0.1106 -2.21515,-0.3999 -3.4745,-1.02015c-0.959,-0.40039 -0.959,-0.40039 -2.01512,-0.30227c-1.83878,1.18588 -3.3447,2.6382 -4.91284,4.1552c-1.11362,1.03972 -2.31332,1.9518 -3.52547,2.87253c-2.10487,1.63318 -4.16641,3.31246 -6.19649,5.03779c-0.26311,0.2192 -0.52621,0.43841 -0.79729,0.66426c-0.24239,0.20836 -0.48478,0.41672 -0.73451,0.6314c-0.21524,0.18284 -0.43049,0.36568 -0.65225,0.55406c-1.12827,1.31027 -0.92067,2.78656 -0.84659,4.43591c0.14042,3.5692 -0.27194,6.23117 -2.7455,8.98675c-2.92738,2.71592 -5.93928,3.18773 -9.83314,3.05416c-3.23087,-0.33489 -5.48876,-1.69648 -7.5378,-4.1798c-1.41847,-2.30666 -1.81599,-3.7314 -1.53279,-6.38855c0.30871,-2.92819 0.30871,-2.92819 -0.63917,-5.6258c-1.27758,-1.31852 -2.81031,-2.25806 -4.37265,-3.20471c-1.36688,-0.8661 -2.60294,-1.89161 -3.86001,-2.90755c-0.45341,-0.35699 -0.90731,-0.71334 -1.36178,-1.06896c-1.23268,-0.97135 -1.23268,-0.97135 -2.16783,-1.90177c-1.59409,-1.00618 -2.99289,-0.82657 -4.83313,-0.73206c-3.72845,0.15891 -3.72845,0.15891 -5.62186,-0.46127c-1.51081,-0.46984 -1.51081,-0.46984 -2.6779,0.40932c-0.34496,0.35795 -0.68993,0.7159 -1.04534,1.0847c-0.38125,0.38124 -0.76276,0.76223 -1.14453,1.14295c-0.35379,0.36262 -0.70759,0.72525 -1.0721,1.09887c-0.53979,0.48532 -1.08489,0.96485 -1.63728,1.43577c-1.5587,1.35469 -3.09168,2.73669 -4.62217,4.12312c-1.17105,1.0469 -2.36815,2.06049 -3.57683,3.06361c-0.71367,0.71892 -1.10404,1.30662 -1.44837,2.25914c0.133,0.39899 0.266,0.79799 0.40302,1.20907c0.31557,3.7192 0.3058,6.97909 -2.01512,10.07559c-1.22452,1.28347 -2.55848,2.24301 -4.03023,3.22419c-0.1681,1.05468 -0.1681,1.05468 -0.11807,2.28275c0.0039,0.45199 0.00779,0.90397 0.0118,1.36965c0.01013,0.4738 0.02026,0.94761 0.0307,1.43577c0.00818,0.71538 0.00818,0.71538 0.01653,1.44522c0.01429,1.18091 0.0342,2.36146 0.05904,3.5422c1.41457,-0.55803 2.79667,-1.16331 4.17841,-1.79845c9.66858,-4.39567 21.10059,-5.62747 31.28765,-2.23178c0.45458,0.14599 0.90916,0.29197 1.37752,0.44238c5.05667,1.78222 9.48925,4.52732 13.53435,8.02111c0.217,0.17527 0.434,0.35055 0.65757,0.53113c1.7743,1.45667 3.19162,3.01683 4.55655,4.85931c0.20758,0.27973 0.41516,0.55946 0.62903,0.84767c7.23146,10.01479 9.19079,21.60292 7.45662,33.66121c-0.1361,0.78059 -0.27611,1.5605 -0.41985,2.33972c-0.07238,0.39369 -0.14477,0.78738 -0.21934,1.193c-0.05506,0.29718 -0.11013,0.59435 -0.16686,0.90054c12.89722,0.02758 25.79443,0.04898 38.69168,0.06174c1.52247,0.00152 3.04494,0.00308 4.56742,0.00468c0.3031,0.00032 0.6062,0.00064 0.91848,0.00096c4.90839,0.00526 9.81675,0.01479 14.72513,0.02591c5.03606,0.0113 10.07212,0.01802 15.10819,0.02047c3.10779,0.00166 6.21552,0.0069 9.3233,0.01672c2.38263,0.00714 4.76524,0.00791 7.14788,0.00628c0.97773,0.00033 1.95547,0.00274 2.93319,0.00738c1.33346,0.006 2.66671,0.00457 4.00017,0.00127c0.38813,0.00352 0.77626,0.00704 1.17615,0.01067c2.07235,-0.01391 3.64706,-0.10926 5.38847,-1.36514c0.7024,-1.40919 0.90709,-2.55493 0.9086,-4.11939c0.00235,-0.41807 0.0047,-0.83614 0.00712,-1.26689c-0.00152,-0.45665 -0.00304,-0.9133 -0.00461,-1.38379c0.00154,-0.48716 0.00308,-0.97433 0.00467,-1.47625c0.00344,-1.35096 0.00326,-2.70183 0.00154,-4.05279c-0.00099,-1.45745 0.00264,-2.9149 0.00566,-4.37234c0.00514,-2.85476 0.00586,-5.7095 0.00492,-8.56426c-0.00072,-2.32016 -0.00001,-4.64032 0.0017,-6.96048c0.00036,-0.49517 0.00036,-0.49517 0.00073,-1.00035c0.00049,-0.67061 0.00098,-1.34122 0.00147,-2.01183c0.00438,-6.28999 0.00351,-12.57997 0.00106,-18.86997c-0.00208,-5.75526 0.00245,-11.51049 0.01012,-17.26575c0.0078,-5.90872 0.01114,-11.81742 0.00962,-17.72614c-0.00077,-3.31762 0.00024,-6.63521 0.00593,-9.95282c0.0048,-2.82418 0.00537,-5.64832 0.00049,-8.47251c-0.00238,-1.44098 -0.00281,-2.8819 0.00202,-4.32288c0.00517,-1.56187 0.00097,-3.12363 -0.00416,-4.6855c0.00297,-0.45576 0.00594,-0.91151 0.009,-1.38107c-0.00379,-3.10728 -0.00379,-3.10728 -1.36889,-5.8432c-1.60856,-0.83435 -2.97842,-0.90732 -4.77399,-0.90861c-0.27378,-0.00129 -0.54756,-0.00258 -0.82964,-0.00391c-0.91926,-0.00335 -1.83842,-0.00096 -2.75768,0.00141c-0.66497,-0.00122 -1.32995,-0.00278 -1.99492,-0.00467c-1.82883,-0.00416 -3.65762,-0.00326 -5.48645,-0.00154c-1.97174,0.00099 -3.94348,-0.00264 -5.91522,-0.00566c-3.86336,-0.00514 -7.72671,-0.00586 -11.59008,-0.00492c-3.13942,0.00072 -6.27885,0.00002 -9.41827,-0.0017c-0.44645,-0.00024 -0.89289,-0.00048 -1.35286,-0.00073c-0.90688,-0.00049 -1.81377,-0.00098 -2.72065,-0.00147c-8.50874,-0.00438 -17.01747,-0.00351 -25.5262,-0.00105c-7.78806,0.00208 -15.57611,-0.00245 -23.36417,-0.01012c-7.99272,-0.0078 -15.98544,-0.01114 -23.97816,-0.00962c-4.48894,0.00077 -8.97787,-0.00024 -13.4668,-0.00593c-3.82126,-0.00479 -7.6425,-0.00538 -11.46376,-0.00049c-1.9503,0.00238 -3.90056,0.0028 -5.85086,-0.00202c-1.78469,-0.00436 -3.56929,-0.00315 -5.35398,0.00252c-0.64628,0.00107 -1.29257,0.00009 -1.93884,-0.00312c-0.87757,-0.00406 -1.75482,-0.00069 -2.63238,0.00455c-0.4877,-0.00002 -0.97541,-0.00004 -1.47789,-0.00007c-1.49475,0.16959 -2.46828,0.58412 -3.74983,1.36016zm87.05306,20.55419c-0.6506,1.3012 -0.64311,2.62366 -0.40302,4.03023c0.69966,1.21918 1.54592,2.18354 2.82116,2.82116c2.06497,0.24475 2.06497,0.24475 3.95939,-0.42192c1.53282,-1.26189 2.04027,-1.94236 2.2371,-3.91058c-0.00984,-1.35036 -0.24947,-2.055 -1.10831,-3.09824c-1.42262,-1.38875 -2.23814,-1.59519 -4.23962,-1.58061c-1.49981,0.256 -2.22009,1.08783 -3.26669,2.15996zm-64.08072,2.41814c-0.93126,1.19734 -0.99582,2.51955 -0.96506,4.01606c0.28536,1.47201 1.11633,2.20575 2.17413,3.23836c1.3012,0.6506 2.62365,0.64311 4.03023,0.40302c1.21918,-0.69966 2.18354,-1.54592 2.82116,-2.82116c0.24475,-2.06498 0.24475,-2.06498 -0.42192,-3.95939c-0.71801,-0.87217 -1.38206,-1.57737 -2.39925,-2.08596c-2.13322,-0.13989 -3.51984,-0.20696 -5.2393,1.20907zm29.01769,25.7935c-0.93126,1.19734 -0.99582,2.51955 -0.96506,4.01606c0.28536,1.47201 1.11633,2.20575 2.17413,3.23836c1.3012,0.6506 2.62365,0.64311 4.03023,0.40302c1.21918,-0.69966 2.18354,-1.54592 2.82116,-2.82116c0.24475,-2.06498 0.24475,-2.06498 -0.42192,-3.95939c-0.71801,-0.87217 -1.38206,-1.57737 -2.39925,-2.08596c-2.13322,-0.13989 -3.51984,-0.20696 -5.2393,1.20907zm-61.25956,3.22419c-0.93126,1.19734 -0.99582,2.51955 -0.96506,4.01606c0.28536,1.47201 1.11633,2.20575 2.17413,3.23836c1.3012,0.6506 2.62365,0.64311 4.03023,0.40302c1.21918,-0.69966 2.18354,-1.54592 2.82116,-2.82116c0.24475,-2.06498 0.24475,-2.06498 -0.42192,-3.95939c-0.71801,-0.87217 -1.38206,-1.57737 -2.39925,-2.08596c-2.13322,-0.13989 -3.51984,-0.20696 -5.2393,1.20907zm7.25442,33.45094c-0.3008,0.26028 -0.60161,0.52056 -0.91153,0.78873c-6.1496,5.73882 -10.12447,14.31873 -10.52584,22.67951c-0.15785,5.84419 0.30822,10.99874 2.57085,16.43108c0.47926,-0.25794 0.47926,-0.25794 0.9682,-0.5211c2.87434,-1.5419 5.76003,-3.05989 8.65703,-4.55881c5.1603,-2.67028 10.27118,-5.42019 15.36222,-8.21987c1.46298,-0.79799 2.92595,-1.59597 4.43326,-2.41814c0,-10.90581 0,-21.81163 0,-33.04792c-7.65685,0 -14.91044,3.96473 -20.55419,8.86652zm27.00257,-8.86652c0,10.50682 0,21.01364 0,31.83885c10.50682,0 21.01364,0 31.83885,0c-0.97245,-9.72449 -5.22576,-17.92191 -12.72515,-24.2491c-5.44304,-4.11077 -12.15852,-7.58975 -19.1137,-7.58975zm-10.45955,42.52515c-1.21258,0.87935 -2.48556,1.52752 -3.81945,2.20888c-0.43159,0.23064 -0.86319,0.46127 -1.30786,0.6989c-0.42562,0.22706 -0.85124,0.45413 -1.28975,0.68807c-5.13212,2.74341 -10.25157,5.50956 -15.36527,8.28717c2.11469,5.6835 8.54016,10.09558 13.82874,12.64486c8.73512,3.99586 18.2522,4.46163 27.31586,1.27204c9.53723,-3.61061 16.44246,-10.68345 20.64393,-19.93706c1.32271,-3.21847 2.2922,-6.60345 2.2922,-10.10077c-4.31315,-0.11312 -8.62593,-0.19852 -12.94028,-0.25058c-2.00443,-0.02502 -4.00783,-0.05881 -6.01166,-0.11427c-12.36566,-0.50388 -12.36566,-0.50388 -23.34645,4.60277z"/>
  <path id="svg_2" fill="#000000" d="m264,207.5c0.66,-0.01031 1.32,-0.02063 2,-0.03125c2.91697,0.77482 4.09366,2.2236 6,4.53125c0.50222,2.53972 0.50222,2.53972 0.50552,5.4586c0.01103,1.10894 0.02205,2.21789 0.03341,3.36043c-0.00818,1.21206 -0.01635,2.42412 -0.02477,3.67291c0.01069,1.92004 0.01069,1.92004 0.02159,3.87886c0.01533,2.78183 0.01814,5.56329 0.01124,8.34516c-0.01079,4.39988 0.00659,8.79938 0.02781,13.19922c0.03026,6.96025 0.04195,13.92038 0.04558,20.88069c0.00664,12.4614 0.03567,24.92272 0.08509,37.38402c0.01649,4.37245 0.02192,8.74473 0.01841,13.11721c-0.00033,2.06582 0.00377,4.13158 0.00978,6.19739c0.00711,2.51697 0.00705,5.03398 -0.00153,7.55095c0.00538,1.11176 0.01077,2.22352 0.01631,3.36897c0.00034,0.96361 0.00067,1.92722 0.00102,2.92003c0.27521,2.928 0.9068,5.05267 2.25054,7.66556c2.52373,1.36078 2.52373,1.36078 5,2c-0.00888,-1.15179 -0.01776,-2.30357 -0.02692,-3.49026c-0.08111,-10.8586 -0.14106,-21.71712 -0.18033,-32.57595c-0.02087,-5.58255 -0.04917,-11.16486 -0.09451,-16.74727c-0.04348,-5.38813 -0.06738,-10.77603 -0.07775,-16.16433c-0.00739,-2.0549 -0.02181,-4.10979 -0.04341,-6.16459c-0.02907,-2.88006 -0.03303,-5.75915 -0.03118,-8.63934c-0.01438,-0.84805 -0.02876,-1.69609 -0.04358,-2.56984c0.0462,-6.64409 2.09353,-10.2759 6.87268,-14.99217c5.74038,-2.62276 11.39376,-2.23286 17.625,-2.15625c1.25812,-0.01547 2.51625,-0.03094 3.8125,-0.04687c11.62994,0.04927 11.62994,0.04927 16.1875,4.54687c4.25973,5.15295 4.56134,8.91637 4.4541,15.31006c0.00059,0.91771 0.00117,1.83542 0.00177,2.78094c-0.00277,3.01954 -0.03385,6.03808 -0.06524,9.05744c-0.00747,2.09892 -0.01316,4.19785 -0.01716,6.29678c-0.01524,5.51406 -0.05451,11.0277 -0.09881,16.5416c-0.04098,5.63063 -0.0592,11.26134 -0.07935,16.89209c-0.04285,11.04055 -0.11108,22.08078 -0.19531,33.12109c2.64,0 5.28,0 8,0c-0.00369,-0.60261 -0.00737,-1.20522 -0.01117,-1.82609c-0.0884,-14.67291 -0.15456,-29.3458 -0.19608,-44.01891c-0.02061,-7.09587 -0.04871,-14.19156 -0.09451,-21.28732c-0.04417,-6.847 -0.06737,-13.69381 -0.07775,-20.54094c-0.00739,-2.61311 -0.02183,-5.22621 -0.04341,-7.83924c-0.02901,-3.65833 -0.03304,-7.31589 -0.03118,-10.97432c-0.01438,-1.08181 -0.02876,-2.16363 -0.04358,-3.27823c0.03344,-6.08906 0.44449,-9.59511 4.49768,-14.23495c4.80458,-4.74137 9.78064,-4.51973 16.1875,-4.54687c1.25813,0.01546 2.51625,0.03093 3.8125,0.04687c1.25813,-0.01547 2.51625,-0.03094 3.8125,-0.04687c11.62994,0.04927 11.62994,0.04927 16.1875,4.54687c4.80193,5.49696 4.54843,10.4173 4.4541,17.51318c0.00059,1.1518 0.00117,2.3036 0.00177,3.4903c-0.00278,3.79863 -0.03388,7.59647 -0.06524,11.39496c-0.00747,2.63701 -0.01316,5.27402 -0.01716,7.91104c-0.01241,6.22606 -0.04521,12.45184 -0.08539,18.67778c-0.04478,7.09065 -0.06672,14.18132 -0.08679,21.27208c-0.04176,14.58037 -0.11208,29.16051 -0.20129,43.74066c2.64,0 5.28,0 8,0c-0.00888,-0.86364 -0.01776,-1.72728 -0.02692,-2.6171c-0.08024,-8.15082 -0.1411,-16.3015 -0.18033,-24.45263c-0.02085,-4.19031 -0.04911,-8.38029 -0.09451,-12.57041c-0.04355,-4.04598 -0.0674,-8.09165 -0.07775,-12.13786c-0.00737,-1.54135 -0.02177,-3.08269 -0.04341,-4.62391c-0.02917,-2.16409 -0.03303,-4.3269 -0.03118,-6.49116c-0.00888,-1.23022 -0.01777,-2.46043 -0.02692,-3.72793c0.7287,-5.11887 3.24511,-8.15935 6.85602,-11.72275c5.74038,-2.62276 11.39376,-2.23286 17.625,-2.15625c1.25813,-0.01547 2.51625,-0.03094 3.8125,-0.04687c11.62994,0.04927 11.62994,0.04927 16.1875,4.54687c3.54008,4.51231 4.49535,7.39352 4.4541,13.10693c0.00059,0.68363 0.00117,1.36726 0.00177,2.0716c-0.00277,2.2405 -0.03379,4.47964 -0.06524,6.71991c-0.00747,1.56083 -0.01316,3.12168 -0.01716,4.68252c-0.01522,4.09372 -0.05446,8.18687 -0.09881,12.28037c-0.04103,4.18286 -0.05921,8.36582 -0.07935,12.54883c-0.0428,8.19687 -0.11101,16.39329 -0.19531,24.58984c0.58491,-0.02095 1.16982,-0.04189 1.77246,-0.06348c2.659,-0.08332 5.31773,-0.13523 7.97754,-0.18652c0.92039,-0.03352 1.84078,-0.06703 2.78906,-0.10156c6.83939,-0.09912 6.83939,-0.09912 10.06836,2.24219c1.49689,2.26737 1.93466,3.41634 1.89258,6.10937c0.01547,0.99 0.01547,0.99 0.03125,2c-0.79497,2.99282 -2.0982,4.0965 -4.53125,6c-2.64781,0.39313 -4.88062,0.54116 -7.52643,0.50793c-0.7614,0.00624 -1.52279,0.01248 -2.30726,0.01891c-2.55347,0.01597 -5.106,0.00332 -7.65947,-0.00926c-1.82996,0.00542 -3.65991,0.01254 -5.48986,0.02124c-4.97339,0.01826 -9.94645,0.01115 -14.91984,-0.00152c-5.2053,-0.01012 -10.41058,-0.00073 -15.61588,0.00555c-8.74625,0.00728 -17.49236,-0.00233 -26.23858,-0.02137c-10.10429,-0.02174 -20.20824,-0.01473 -30.31252,0.00731c-8.67702,0.01817 -17.35394,0.0207 -26.03097,0.01025c-5.18138,-0.00623 -10.3626,-0.00709 -15.54397,0.00614c-4.87564,0.01158 -9.75087,0.00349 -14.62646,-0.01958c-1.78658,-0.00527 -3.57319,-0.00379 -5.35975,0.00505c-2.44535,0.01099 -4.88938,-0.00284 -7.33465,-0.02272c-0.70157,0.00893 -1.40315,0.01785 -2.12599,0.02704c-6.34903,-0.09961 -11.42646,-2.36005 -16.15056,-6.49981c-0.80824,-0.97647 -0.80824,-0.97647 -1.63281,-1.97266c-0.5543,-0.6484 -1.10859,-1.2968 -1.67969,-1.96484c-2.90005,-4.20899 -3.696,-7.87984 -3.71274,-12.94899c-0.00853,-1.17066 -0.01706,-2.34132 -0.02584,-3.54746c0.0009,-1.27549 0.00181,-2.55098 0.00274,-3.86513c-0.00598,-1.36369 -0.01279,-2.72738 -0.02035,-4.09106c-0.01764,-3.69615 -0.02236,-7.39222 -0.02363,-11.08841c-0.00143,-2.30952 -0.0057,-4.61902 -0.011,-6.92854c-0.01849,-8.0576 -0.02667,-16.11513 -0.0251,-24.17275c0.00121,-7.5113 -0.01993,-15.02231 -0.05148,-22.53354c-0.02614,-6.45108 -0.03688,-12.90207 -0.0356,-19.3532c0.00051,-3.85218 -0.00521,-7.70412 -0.02636,-11.55625c-0.01934,-3.62068 -0.01954,-7.24087 -0.00497,-10.86157c0.0031,-1.96252 -0.01361,-3.92505 -0.03088,-5.8875c0.01259,-1.75176 0.01259,-1.75176 0.02542,-3.53891c-0.00109,-1.01485 -0.00218,-2.02971 -0.0033,-3.07531c0.869,-4.62455 3.78734,-7.22264 8.49778,-7.14904zm88,32.5c0,36.96 0,73.92 0,112c5.28,0 10.56,0 16,0c0,-36.96 0,-73.92 0,-112c-5.28,0 -10.56,0 -16,0zm-56,24c0,29.04 0,58.08 0,88c5.28,0 10.56,0 16,0c0,-29.04 0,-58.08 0,-88c-5.28,0 -10.56,0 -16,0zm112,24c0,21.12 0,42.24 0,64c5.28,0 10.56,0 16,0c0,-21.12 0,-42.24 0,-64c-5.28,0 -10.56,0 -16,0z"/>
  <path id="svg_3" fill="#000000" d="m379.73438,167.48242c0.77444,-0.00701 1.54889,-0.01402 2.3468,-0.02124c2.55664,-0.01759 5.11217,-0.00596 7.66883,0.00757c1.77832,-0.0027 3.55664,-0.00658 5.33496,-0.0116c3.72572,-0.00589 7.45107,0.00267 11.17675,0.02136c4.77528,0.02279 9.54965,0.00967 14.32489,-0.01429c3.67176,-0.01445 7.34331,-0.00985 11.01508,0.00052c1.76066,0.00266 3.52134,-0.00061 5.28198,-0.00992c2.46118,-0.01016 4.92089,0.00533 7.38196,0.0276c0.72739,-0.0081 1.45479,-0.01619 2.20422,-0.02454c3.4436,0.05773 5.2267,0.30589 7.98035,2.44947c1.68151,2.27048 2.09339,3.30298 2.04981,6.09265c0.01546,0.99 0.01546,0.99 0.03125,2c-0.79713,3.00095 -2.08522,4.09589 -4.53125,6c-2.7138,0.39483 -5.02252,0.54776 -7.73438,0.51758c-1.16167,0.01051 -1.16167,0.01051 -2.3468,0.02124c-2.55664,0.01758 -5.11217,0.00595 -7.66882,-0.00757c-1.77833,0.00269 -3.55665,0.00658 -5.33497,0.01159c-3.72572,0.0059 -7.45107,-0.00267 -11.17675,-0.02136c-4.77528,-0.02279 -9.54965,-0.00966 -14.32489,0.01429c-3.67176,0.01446 -7.34331,0.00986 -11.01508,-0.00051c-1.76066,-0.00267 -3.52134,0.00061 -5.28198,0.00992c-2.46118,0.01016 -4.92089,-0.00533 -7.38196,-0.0276c-0.72739,0.00809 -1.45479,0.01619 -2.20422,0.02453c-3.4436,-0.05772 -5.2267,-0.30589 -7.98035,-2.44946c-1.68151,-2.27048 -2.09339,-3.30299 -2.04981,-6.09265c-0.01546,-0.99 -0.01546,-0.99 -0.03125,-2c1.666,-6.272 6.65614,-6.58002 12.26563,-6.51758z"/>
  <path id="svg_4" fill="#000000" d="m379.73438,135.48242c0.77444,-0.00701 1.54889,-0.01402 2.3468,-0.02124c2.55664,-0.01759 5.11217,-0.00596 7.66883,0.00757c1.77832,-0.0027 3.55664,-0.00658 5.33496,-0.0116c3.72572,-0.00589 7.45107,0.00267 11.17675,0.02136c4.77528,0.02279 9.54965,0.00967 14.32489,-0.01429c3.67176,-0.01445 7.34331,-0.00985 11.01508,0.00052c1.76066,0.00266 3.52134,-0.00061 5.28198,-0.00992c2.46118,-0.01016 4.92089,0.00533 7.38196,0.0276c0.72739,-0.0081 1.45479,-0.01619 2.20422,-0.02454c3.4436,0.05773 5.2267,0.30589 7.98035,2.44947c1.68151,2.27048 2.09339,3.30298 2.04981,6.09265c0.01546,0.99 0.01546,0.99 0.03125,2c-0.79713,3.00095 -2.08522,4.09589 -4.53125,6c-2.7138,0.39483 -5.02252,0.54776 -7.73438,0.51758c-1.16167,0.01051 -1.16167,0.01051 -2.3468,0.02124c-2.55664,0.01758 -5.11217,0.00595 -7.66882,-0.00757c-1.77833,0.00269 -3.55665,0.00658 -5.33497,0.01159c-3.72572,0.0059 -7.45107,-0.00267 -11.17675,-0.02136c-4.77528,-0.02279 -9.54965,-0.00966 -14.32489,0.01429c-3.67176,0.01446 -7.34331,0.00986 -11.01508,-0.00051c-1.76066,-0.00267 -3.52134,0.00061 -5.28198,0.00992c-2.46118,0.01016 -4.92089,-0.00533 -7.38196,-0.0276c-0.72739,0.00809 -1.45479,0.01619 -2.20422,0.02453c-3.4436,-0.05772 -5.2267,-0.30589 -7.98035,-2.44946c-1.68151,-2.27048 -2.09339,-3.30299 -2.04981,-6.09265c-0.01546,-0.99 -0.01546,-0.99 -0.03125,-2c1.666,-6.272 6.65614,-6.58002 12.26563,-6.51758z"/>
  <path id="svg_5" fill="#000000" d="m379.73438,103.48242c0.77444,-0.00701 1.54889,-0.01402 2.3468,-0.02124c2.55664,-0.01759 5.11217,-0.00596 7.66883,0.00757c1.77832,-0.0027 3.55664,-0.00658 5.33496,-0.0116c3.72572,-0.00589 7.45107,0.00267 11.17675,0.02136c4.77528,0.02279 9.54965,0.00967 14.32489,-0.01429c3.67176,-0.01445 7.34331,-0.00985 11.01508,0.00052c1.76066,0.00266 3.52134,-0.00061 5.28198,-0.00992c2.46118,-0.01016 4.92089,0.00533 7.38196,0.0276c0.72739,-0.0081 1.45479,-0.01619 2.20422,-0.02454c3.4436,0.05773 5.2267,0.30589 7.98035,2.44947c1.68151,2.27048 2.09339,3.30298 2.04981,6.09265c0.01546,0.99 0.01546,0.99 0.03125,2c-0.79713,3.00095 -2.08522,4.09589 -4.53125,6c-2.7138,0.39483 -5.02252,0.54776 -7.73438,0.51758c-1.16167,0.01051 -1.16167,0.01051 -2.3468,0.02124c-2.55664,0.01758 -5.11217,0.00595 -7.66882,-0.00757c-1.77833,0.00269 -3.55665,0.00658 -5.33497,0.01159c-3.72572,0.0059 -7.45107,-0.00267 -11.17675,-0.02136c-4.77528,-0.02279 -9.54965,-0.00966 -14.32489,0.01429c-3.67176,0.01446 -7.34331,0.00986 -11.01508,-0.00051c-1.76066,-0.00267 -3.52134,0.00061 -5.28198,0.00992c-2.46118,0.01016 -4.92089,-0.00533 -7.38196,-0.0276c-0.72739,0.00809 -1.45479,0.01619 -2.20422,0.02453c-3.4436,-0.05772 -5.2267,-0.30589 -7.98035,-2.44946c-1.68151,-2.27048 -2.09339,-3.30299 -2.04981,-6.09265c-0.01546,-0.99 -0.01546,-0.99 -0.03125,-2c1.666,-6.272 6.65614,-6.58002 12.26563,-6.51758z"/>
  <path id="svg_6" fill="#000000" d="m356,168c2.5,1.5 2.5,1.5 4,4c0.79101,4.02098 0.62153,6.96411 -1.5,10.5c-3.53589,2.12153 -6.47902,2.29101 -10.5,1.5c-2.5,-1.5 -2.5,-1.5 -4,-4c-0.79101,-4.02098 -0.62153,-6.96411 1.5,-10.5c3.53589,-2.12153 6.47902,-2.29101 10.5,-1.5z"/>
  <path id="svg_7" fill="#000000" d="m356,136c2.5,1.5 2.5,1.5 4,4c0.79101,4.02098 0.62153,6.96411 -1.5,10.5c-3.53589,2.12153 -6.47902,2.29101 -10.5,1.5c-2.5,-1.5 -2.5,-1.5 -4,-4c-0.79101,-4.02098 -0.62153,-6.96411 1.5,-10.5c3.53589,-2.12153 6.47902,-2.29101 10.5,-1.5z"/>
  <path id="svg_8" fill="#000000" d="m356,104c2.5,1.5 2.5,1.5 4,4c0.79101,4.02098 0.62153,6.96411 -1.5,10.5c-3.53589,2.12153 -6.47902,2.29101 -10.5,1.5c-2.5,-1.5 -2.5,-1.5 -4,-4c-0.79101,-4.02098 -0.62153,-6.96411 1.5,-10.5c3.53589,-2.12153 6.47902,-2.29101 10.5,-1.5z"/>
 </g>
</svg>