<svg xmlns="http://www.w3.org/2000/svg" viewBox="0 0 200 200" preserveAspectRatio="xMidYMid meet">
 <defs>
  <style>.cls-1{fill:#1d4c86;}</style>
 </defs>
 <title>icon-1</title>
 <g>
  <title>background</title>
  <rect fill="none" id="canvas_background" height="202" width="202" y="-1" x="-1"/>
 </g>
 <g>
  <title>Layer 1</title>
  <g stroke="null" id="Слой_2">
   <g stroke="null" id="Слой_2-2">
    <path stroke="null" id="svg_1" d="m123.76825,68.78543a7.0544,7.0544 0 0 0 -6.54722,-1.19879a9.82083,9.82083 0 0 1 4.33408,-2.582a4.61072,4.61072 0 0 1 2.21315,3.78079zm6.4089,-7.33104c-1.33711,-7.0544 -17.75127,-2.35147 -26.00446,-5.34843c0,2.02872 2.5359,5.34843 5.1179,6.54722a32.27503,32.27503 0 0 0 -9.22144,21.07099a32.27503,32.27503 0 0 0 -9.22144,-21.07099c2.582,-1.19879 5.30233,-4.61072 5.1179,-6.54722c-8.25319,2.99697 -24.66735,-1.70597 -26.00446,5.39454a5.90172,5.90172 0 0 0 1.19879,4.61072a3.68858,3.68858 0 0 1 3.1814,-2.39757c11.5729,-1.75207 21.20931,16.09141 12.49505,23.33024c0,0 0,0.27664 0,0.27664l26.14278,0s0.27664,0 0,-0.27664c-8.71426,-7.23883 0.92214,-25.08231 12.49505,-23.33024a3.68858,3.68858 0 0 1 3.1814,2.39757a5.90172,5.90172 0 0 0 1.19879,-4.61072l0.32275,-0.04611zm2.81254,-16.18362c0,-0.69161 6.59333,-0.69161 6.59333,3.55025c0,2.85865 -4.05743,4.19575 -4.05743,7.14661a2.72032,2.72032 0 0 0 1.9365,2.39757c-1.06047,-4.61072 3.27361,-2.25925 4.61072,-1.38322c-2.30536,-6.4089 2.90475,-6.36279 2.39757,-9.22144c-0.36886,-2.02872 -4.88736,-1.42932 -6.54722,-2.44368c-3.08918,-1.84429 -6.54722,-9.03701 -8.9909,-1.84429a5.39454,5.39454 0 0 1 -3.59636,9.72862a6.13226,6.13226 0 0 0 0,0.92214c6.59333,-0.36886 8.85258,-5.1179 7.65379,-8.85258zm-74.87808,11.71123c1.19879,-0.87604 5.48676,-3.36582 4.61072,1.38322a2.72032,2.72032 0 0 0 1.9365,-2.39757c0,-2.95086 -4.05743,-4.28797 -4.05743,-7.14661c0,-4.24186 6.77776,-4.24186 6.54722,-3.55025c-1.15268,3.73468 1.06047,8.48372 7.51547,8.80647a6.13226,6.13226 0 0 0 0,-0.92214a5.39454,5.39454 0 0 1 -3.73468,-9.68251c-2.30536,-7.14661 -5.71729,0 -8.66815,1.84429c-1.61375,1.01436 -6.17836,0.41496 -6.50111,2.44368c-0.55329,2.90475 4.61072,2.90475 2.35147,9.22144zm18.44288,11.80344a7.0544,7.0544 0 0 1 6.27058,-1.19879a10.18969,10.18969 0 0 0 -4.38018,-2.582a4.93347,4.93347 0 0 0 -2.16704,3.78079l0.27664,0zm26.78828,-39.55997l-3.13529,-3.8269l-3.13529,3.8269l3.13529,4.01133l3.13529,-4.01133zm17.84348,11.5268l-2.21315,-2.72032l-2.21315,2.72032l2.02872,2.72032l2.21315,-2.67422l0.18443,-0.04611zm18.07402,78.38222l-2.81254,-2.99697l-2.85865,2.99697l2.85865,2.62811l2.81254,-2.62811zm-55.60527,-78.38222l-2.21315,-2.72032l-2.25925,2.72032l2.25925,2.67422l2.21315,-2.67422zm-6.54722,13.32498l8.29929,0a10.60465,10.60465 0 0 0 11.25015,-8.02265l6.91608,0a10.55855,10.55855 0 0 0 11.06573,8.02265l8.29929,0a16.6908,16.6908 0 0 0 1.79818,-2.95086c1.33711,-3.50415 -0.32275,-5.16401 -2.76643,-5.16401l-3.1814,2.85865l-3.1814,-2.85865c-2.44368,0 -4.10354,1.65986 -2.76643,5.16401a8.89869,8.89869 0 0 0 0.92214,1.65986a8.62204,8.62204 0 0 1 -7.51547,-6.73165a50.71791,50.71791 0 0 0 2.72032,-4.84125c1.9365,-5.02568 -0.55329,-6.96219 -4.24186,-6.96219l-4.61072,5.57897l-4.84125,-5.57897c-3.64247,0 -6.17836,2.07482 -4.19575,7.10051a50.71791,50.71791 0 0 0 2.72032,4.84125a8.66815,8.66815 0 0 1 -7.51547,6.50111a12.72558,12.72558 0 0 0 0.92214,-1.65986c1.291,-3.50415 -0.36886,-5.16401 -2.81254,-5.16401l-3.13529,2.85865l-3.04307,-2.76643c-2.44368,0 -4.10354,1.65986 -2.81254,5.16401a19.2267,19.2267 0 0 0 1.84429,2.95086l-0.13832,0zm85.80548,25.72781a41.49647,41.49647 0 0 1 -23.0536,3.59636c0,-0.59939 0.23054,-1.15268 0.27664,-1.75207a55.32863,55.32863 0 0 0 18.71952,-4.61072a10.60465,10.60465 0 0 0 4.38018,-13.83216a0,0 0 0 0 -0.32275,0a43.66351,43.66351 0 0 1 -22.50031,13.23276c0,-0.69161 0,-1.33711 0,-2.02872a55.7897,55.7897 0 0 0 15.3998,-11.43458a12.26451,12.26451 0 0 0 0,-16.6447s-0.23054,0 -0.32275,0l0,0c-1.33711,2.21315 -13.83216,22.36199 -27.66431,31.07625l-0.50718,0.27664a0.6455,0.6455 0 0 0 0,1.06047a7.46936,7.46936 0 0 1 2.582,5.62508a8.02265,8.02265 0 0 1 -6.86997,7.74601a15.63034,15.63034 0 0 1 -7.93044,-0.41496s-0.23054,0 -0.23054,0l0,12.1723s0.27664,0.23054 0.36886,0a9.49808,9.49808 0 0 1 9.08312,-5.07179a23.79131,23.79131 0 0 0 4.01133,10.83519a6.96219,6.96219 0 0 0 10.00526,1.01436a0,0 0 0 0 0,-0.27664l0,0a20.70213,20.70213 0 0 1 -9.77472,-12.21841a16.96745,16.96745 0 0 0 1.61375,-0.69161a23.28413,23.28413 0 0 0 7.97654,8.39151a7.60769,7.60769 0 0 0 10.46633,-2.07482s0,0 0,-0.27664a22.08534,22.08534 0 0 1 -15.07705,-8.66815a14.70819,14.70819 0 0 0 1.19879,-1.19879a31.76785,31.76785 0 0 0 13.09444,5.99393c4.61072,0.6455 9.68251,-0.82993 9.77472,-6.08615a0,0 0 0 0 0,0a40.29768,40.29768 0 0 1 -20.01052,-3.96522a11.48069,11.48069 0 0 0 0.73772,-1.52154a61.46088,61.46088 0 0 0 16.92134,1.79818a8.76037,8.76037 0 0 0 7.93044,-9.91305s0,0 -0.27664,0l0,-0.13832zm-101.43582,8.25319c0.23054,0.50718 0.46107,1.01436 0.73772,1.52154a40.11326,40.11326 0 0 1 -19.82609,3.78079a0,0 0 0 0 0,0c0,5.25622 5.25622,6.73165 9.77472,6.08615a31.76785,31.76785 0 0 0 13.09444,-5.99393l1.19879,1.19879a22.13145,22.13145 0 0 1 -15.03094,8.76037s-0.23054,0 0,0.27664a7.65379,7.65379 0 0 0 10.51244,2.07482a23.0536,23.0536 0 0 0 8.29929,-8.48372l1.65986,0.69161a20.70213,20.70213 0 0 1 -9.77472,12.21841a0,0 0 0 0 0,0.23054l0,0a6.91608,6.91608 0 0 0 9.95915,-1.01436a23.0536,23.0536 0 0 0 3.8269,-10.60465a9.5903,9.5903 0 0 1 8.89869,5.39454s0.36886,0 0.36886,0l0,-12.31062a0,0 0 0 0 -0.27664,0a15.49202,15.49202 0 0 1 -7.60769,0.6455a8.02265,8.02265 0 0 1 -6.86997,-7.74601a7.56158,7.56158 0 0 1 2.5359,-5.62508a0.69161,0.69161 0 0 0 0,-1.06047l-0.50718,-0.27664c-13.83216,-8.71426 -26.14278,-28.8631 -27.66431,-31.07625a0,0 0 0 0 -0.32275,0l0,0a12.26451,12.26451 0 0 0 0,16.6447a55.32863,55.32863 0 0 0 15.30759,11.20405c0,0.69161 0,1.33711 0,2.02872a43.80183,43.80183 0 0 1 -22.50031,-13.23276a0,0 0 0 0 -0.32275,0a10.60465,10.60465 0 0 0 4.61072,13.83216a54.82145,54.82145 0 0 0 18.67341,4.61072c0,0.59939 0,1.15268 0.32275,1.75207a41.49647,41.49647 0 0 1 -23.0536,-3.59636a0,0 0 0 0 -0.27664,0a8.76037,8.76037 0 0 0 7.97654,9.91305a61.32256,61.32256 0 0 0 16.87523,-1.79818l-0.59939,-0.04611zm74.60143,37.57736l-4.19575,-3.27361a7.10051,7.10051 0 0 0 -3.36582,4.61072c-2.5359,0.32275 -9.22144,-1.19879 -8.71426,-2.21315c7.51547,-10.55855 1.79818,-16.82912 -5.1179,-16.50637l0,7.10051a4.28797,4.28797 0 0 1 -4.61072,4.14965l-4.19575,0a7.65379,7.65379 0 0 0 -5.62508,3.41193a7.79212,7.79212 0 0 0 -5.67118,-3.41193l-4.61072,0a4.28797,4.28797 0 0 1 -4.61072,-4.14965l0,-7.33104c-6.91608,-0.32275 -12.67948,5.94783 -5.16401,16.50637c0.69161,1.01436 -6.36279,2.62811 -9.68251,2.21315a4.61072,4.61072 0 0 0 -3.50415,-1.47543a4.61072,4.61072 0 0 0 -1.75207,0.32275s-13.00223,-12.31062 -13.23276,-12.40283l0,-0.27664c0.73772,-1.38322 -0.36886,-2.90475 -1.10657,-2.76643a4.61072,4.61072 0 0 0 -3.73468,-6.36279c0,0.87604 0,2.62811 0,2.62811s-3.55025,-1.89039 -5.34843,-0.23054s0.6455,5.21011 0.6455,5.21011s-1.84429,0 -2.72032,0a4.61072,4.61072 0 0 0 6.68554,3.27361c0,0.73772 1.52154,1.75207 2.90475,0.92214l0.59939,-0.27664s12.8178,12.08008 12.8178,12.08008a4.33408,4.33408 0 0 0 -0.6455,3.04307a4.61072,4.61072 0 0 0 3.64247,3.59636a5.07179,5.07179 0 0 0 3.55025,-0.55329l3.36582,3.08918a1.42932,1.42932 0 0 0 1.15268,0.41496a1.38322,1.38322 0 0 0 1.33711,-1.47543a1.19879,1.19879 0 0 0 -0.41496,-0.87604l-3.41193,-3.1814a23.92963,23.92963 0 0 1 12.21841,-3.31972a0.82993,0.82993 0 0 0 0.82993,-1.24489c-1.9365,-4.61072 2.21315,-8.02265 6.54722,-5.30233a14.47766,14.47766 0 0 1 5.21011,7.51547c-7.0544,1.70597 -15.95309,6.45501 -17.75127,11.5729c-0.69161,2.02872 1.61375,4.61072 4.61072,5.25622c0,0 0,0 0,0l0,0a21.02488,21.02488 0 0 1 13.83216,-14.38544c0.23054,0.55329 0,0.36886 0.36886,0.96825a19.41113,19.41113 0 0 0 -10.32801,12.40283c-0.59939,2.5359 2.21315,4.84125 4.61072,5.48676a0,0 0 0 0 0.23054,0a25.45117,25.45117 0 0 1 6.36279,-15.72255l0,1.61375a51.2712,51.2712 0 0 0 -2.81254,13.83216c0,2.72032 3.96522,4.61072 4.61072,4.84125s4.61072,-2.12093 4.61072,-4.84125a50.71791,50.71791 0 0 0 -2.85865,-13.83216c0,-0.55329 0,-1.06047 0,-1.61375a25.45117,25.45117 0 0 1 6.31669,15.72255s0,0 0,0l0,0c2.35147,-0.6455 5.21011,-2.95086 4.61072,-5.48676a19.54945,19.54945 0 0 0 -10.51244,-12.44894c0,-0.59939 0,-0.41496 0.32275,-0.96825a21.07099,21.07099 0 0 1 14.06269,14.38544a0,0 0 0 0 0,0c2.76643,-0.55329 5.02568,-3.2275 4.33408,-5.25622c-1.06047,-4.93347 -9.82083,-9.82083 -16.92134,-11.5268a14.47766,14.47766 0 0 1 5.25622,-7.51547c4.28797,-2.72032 8.48372,0.6455 6.54722,5.30233a0.82993,0.82993 0 0 0 0.82993,1.24489a21.53206,21.53206 0 0 1 13.14055,4.10354a8.02265,8.02265 0 0 0 7.46936,3.41193a7.56158,7.56158 0 0 0 6.86997,-6.36279a7.00829,7.00829 0 0 0 -3.55025,-6.91608l-4.14965,3.27361l-0.18443,0zm-30.7996,-21.20931c1.47543,-0.55329 3.8269,0 3.73468,2.07482a0.36886,0.36886 0 1 0 0.69161,0c0.46107,-3.2275 -1.70597,-4.14965 -3.96522,-3.78079c-0.32275,-1.10657 -0.55329,-2.07482 -0.78382,-3.04307s-0.32275,-2.21315 0.59939,-2.21315s0.27664,1.33711 0.23054,1.9365s0,0.82993 0.55329,0.82993s0.59939,-0.32275 0.78382,-0.55329a3.31972,3.31972 0 0 0 0,-4.84125a4.61072,4.61072 0 0 0 -5.34843,1.06047a7.79212,7.79212 0 0 0 -1.06047,-1.65986c-0.32275,-0.32275 -0.41496,-0.59939 0,-0.87604a1.89039,1.89039 0 0 0 0.78382,-1.33711a1.06047,1.06047 0 0 0 -1.15268,-1.01436a1.38322,1.38322 0 0 0 -1.42932,1.52154a1.61375,1.61375 0 0 0 0,0.78382a7.37715,7.37715 0 0 0 -2.21315,0l8.39151,23.0536a6.36279,6.36279 0 0 0 4.14965,-5.07179c0,-1.70597 -2.5359,-1.15268 -3.73468,0c-0.41496,-2.16704 -0.73772,-4.14965 -1.15268,-6.17836c0,-0.55329 0,-0.73772 0.6455,-0.92214l0.27664,0.23054zm-11.84955,-15.63034l1.75207,4.93347c-1.52154,0.32275 -3.96522,1.42932 -3.96522,2.90475s3.45804,3.1814 5.44065,3.04307a1.291,1.291 0 0 0 0.32275,1.19879a4.28797,4.28797 0 0 0 -2.5359,0.82993a2.99697,2.99697 0 0 0 -3.45804,-0.73772c-0.78382,0.59939 -0.82993,1.61375 0,2.76643a1.9365,1.9365 0 0 1 0,2.48979c2.39757,0 1.52154,-3.08918 2.44368,-3.08918a3.73468,3.73468 0 0 0 0.23054,2.07482a1.291,1.291 0 0 1 0,1.33711a12.49505,12.49505 0 0 0 -1.61375,6.63944c-0.78382,0 -1.19879,0 -0.92214,-1.24489s0,-0.69161 -0.46107,-0.23054a4.01133,4.01133 0 0 0 -0.50718,1.89039c0,2.25925 2.72032,2.72032 3.73468,2.25925a11.25015,11.25015 0 0 0 10.8813,1.15268l-10.37412,-28.49424a0.41496,0.41496 0 1 0 -0.78382,0.27664l-0.18443,0zm-0.36886,23.46856c-0.23054,-1.15268 1.42932,-3.27361 3.50415,-5.30233a4.88736,4.88736 0 0 0 0.69161,4.38018a8.06876,8.06876 0 0 0 -4.19575,0.92214z" class="cls-1"/>
    <path stroke="null" id="svg_2" d="m100.02304,198.02389l-8.94479,-9.95915a8.43762,8.43762 0 0 0 -6.17836,-2.72032l-50.71791,0a16.0453,16.0453 0 0 1 -15.90698,-16.0453l0,-160.63745a6.68554,6.68554 0 0 1 6.68554,-6.68554l150.0789,0a6.68554,6.68554 0 0 1 6.68554,6.68554l0,160.63745a16.0453,16.0453 0 0 1 -15.90698,16.0453l-50.71791,0a8.43762,8.43762 0 0 0 -6.17836,2.72032l-8.89869,9.95915zm-75.06251,-189.40834l0,160.68356a9.22144,9.22144 0 0 0 9.22144,9.22144l50.71791,0a15.03094,15.03094 0 0 1 11.11183,4.93347l4.01133,4.61072l4.01133,-4.61072a14.93873,14.93873 0 0 1 11.06573,-4.74904l50.71791,0a9.22144,9.22144 0 0 0 9.22144,-9.22144l0,-160.82188l-150.0789,-0.04611z" class="cls-1"/>
   </g>
  </g>
 </g>
</svg>