<svg xmlns="http://www.w3.org/2000/svg" viewBox="0 0 200 200" preserveAspectRatio="xMidYMid meet">
 <defs>
  <style>.cls-1{fill:#1d4c86;}</style>
 </defs>
 <title>icon-5</title>
 <g>
  <title>background</title>
  <rect fill="none" id="canvas_background" height="202" width="202" y="-1" x="-1"/>
 </g>
 <g>
  <title>Layer 1</title>
  <g stroke="null" id="Слой_2">
   <g stroke="null" id="Слой_2-2">
    <rect stroke="null" id="svg_1" height="30.08808" width="5.03779" y="79.94128" x="62.0086" class="cls-1"/>
    <rect stroke="null" id="svg_2" height="30.08808" width="5.03779" y="79.94128" x="72.08418" class="cls-1"/>
    <rect stroke="null" id="svg_3" height="30.08808" width="5.03779" y="79.94128" x="82.15976" class="cls-1"/>
    <rect stroke="null" id="svg_4" height="30.08808" width="5.03779" y="79.94128" x="92.18912" class="cls-1"/>
    <rect stroke="null" id="svg_5" height="30.08808" width="5.03779" y="79.94128" x="102.2647" class="cls-1"/>
    <rect stroke="null" id="svg_6" height="30.08808" width="5.03779" y="79.94128" x="112.34028" class="cls-1"/>
    <rect stroke="null" id="svg_7" height="30.08808" width="5.03779" y="79.94128" x="122.41585" class="cls-1"/>
    <rect stroke="null" id="svg_8" height="30.08808" width="5.03779" y="79.94128" x="132.49143" class="cls-1"/>
    <path stroke="null" id="svg_9" d="m193.22222,140.53341l0,-30.31917l-35.72671,0l0,4.85292l-9.89071,0l0,-40.07122l4.85292,0l0,-14.97471l-42.38214,0l0,-10.44532l-20.5209,0l0,10.44532l-42.33592,0l0,14.97471l4.85292,0l0,40.07122l-9.89071,0l0,-4.85292l-35.40318,0l0,30.31917l-5.03779,0l0,9.89071l196.52001,0l0,-9.89071l-5.03779,0zm-5.03779,0l-10.30667,0l0,-20.15116l-5.13023,0l0,20.15116l-10.21423,0l0,-25.28138l25.65113,0l0,25.28138zm-130.98253,-75.47441l85.36511,0l0,4.89913l-85.36511,0l0,-4.89913zm0,9.93692l85.36511,0l0,40.07122l-85.36511,0l0,-40.07122zm-5.03779,45.10901l105.3314,0l0,20.42847l-14.78984,0l0,-15.4369l-5.03779,0l0,15.4369l-15.25202,0l0,-15.4369l-5.13023,0l0,15.4369l-14.9285,0l0,-15.4369l-5.03779,0l0,15.4369l-15.02093,0l0,-15.4369l-5.03779,0l0,15.4369l-15.4369,0l0,-15.4369l-4.62183,0l0,15.4369l-15.02093,0l0,-20.42847l9.98314,0zm-40.2561,-4.62183l25.23517,0l0,25.28138l-10.16802,0l0,-20.38225l-5.03779,0l0,20.15116l-10.1218,0l0.09244,-25.05029z" class="cls-1"/>
   </g>
  </g>
 </g>
</svg>