<svg xmlns="http://www.w3.org/2000/svg" viewBox="0 0 200 200" preserveAspectRatio="xMidYMid meet">
 <defs>
  <style>.cls-1{fill:#1d4c86;}</style>
 </defs>
 <title>icon-4</title>
 <g>
  <title>background</title>
  <rect fill="none" id="canvas_background" height="202" width="202" y="-1" x="-1"/>
 </g>
 <g>
  <title>Layer 1</title>
  <g stroke="null" id="Слой_2">
   <g stroke="null" id="Слой_2-2">
    <rect stroke="null" id="svg_1" height="10.31818" width="5.08906" y="69.04544" x="97.47882" class="cls-1"/>
    <rect stroke="null" id="svg_2" height="10.31818" width="5.08906" y="69.04544" x="107.56356" class="cls-1"/>
    <rect stroke="null" id="svg_3" height="10.31818" width="5.08906" y="69.04544" x="87.34739" class="cls-1"/>
    <path stroke="null" id="svg_4" d="m194.12426,166.25115l0,-30.58105l-35.76348,0l0,30.81449l-4.99568,0l0,-56.02634l-25.11848,0l0,-25.67874l-5.3225,0l0,-25.30523l-15.12711,0l0,-15.50062l-5.08906,0l0,-20.35624l-5.08906,0l0,20.35624l-5.08906,0l0,15.50062l-15.12711,0l0,25.21185l-5.3225,0l0,25.67874l-25.39861,0l0,56.02634l-5.27581,0l0,-30.72111l-35.71679,0l0,30.81449l-4.94899,0l0,9.89799l198.52001,0l0,-10.13143l-5.13575,0zm-30.67442,-25.91218l25.58536,0l0,25.72543l-5.18244,0l0,-20.44961l-5.08906,0l0,20.63637l-4.99568,0l0,-20.63637l-4.94899,0l0,20.63637l-5.36919,0l0,-25.91218zm-15.1738,-24.93172l0,50.84391l-5.18244,0l0,-45.75485l-5.08906,0l0,45.75485l-5.22913,0l0,-50.84391l15.50062,0zm-35.48335,40.24559l0,10.59832l-25.21185,0l0,-10.59832l25.21185,0zm5.08906,10.59832l0,-61.30216l-5.08906,0l0,45.61478l-5.18244,0l0,-45.61478l-5.08906,0l0,45.61478l-5.04237,0l0,-45.61478l-5.04237,0l0,45.61478l-5.04237,0l0,-45.61478l-5.08906,0l0,61.30216l-5.13575,0l0,-66.48459l45.98829,0l0,66.48459l-5.27581,0zm-35.38997,-101.68781l35.34328,0l0,20.12279l-35.34328,0l0,-20.12279zm-5.3225,25.21185l45.98829,0l0,4.9023l-45.98829,0l0,-4.9023zm-25.39861,25.63205l15.45393,0l0,50.84391l-5.18244,0l0,-45.75485l-5.27581,0l0,45.75485l-4.99568,0l0,-50.84391zm-41.0393,24.93172l25.58536,0l0,25.72543l-5.18244,0l0,-20.44961l-5.08906,0l0,20.63637l-4.99568,0l0,-20.63637l-5.08906,0l0,20.63637l-5.22913,0l0,-25.91218z" class="cls-1"/>
   </g>
  </g>
 </g>
</svg>