<svg xmlns="http://www.w3.org/2000/svg" viewBox="0 0 200 200" preserveAspectRatio="xMidYMid meet">
 <defs>
  <style>.cls-1{fill:#1d4c86;}</style>
 </defs>
 <title>icon-2</title>
 <g>
  <title>background</title>
  <rect fill="none" id="canvas_background" height="202" width="202" y="-1" x="-1"/>
 </g>
 <g>
  <title>Layer 1</title>
  <g stroke="null" id="Слой_2">
   <g stroke="null" id="Слой_2-2">
    <path stroke="null" id="svg_1" d="m136.47968,67.139a11.01564,11.01564 0 0 0 -10.03957,-1.85918a14.59456,14.59456 0 0 1 6.69305,-3.90428a7.34376,7.34376 0 0 1 3.34652,5.76346zm9.90013,-11.20156c-2.0451,-10.8762 -27.28346,-3.67188 -40.01883,-8.27335c-0.2324,3.1606 3.90428,8.22687 7.90151,10.13253a49.40769,49.40769 0 0 0 -13.94384,32.53564a49.17529,49.17529 0 0 0 -13.94384,-32.53564c3.99724,-1.90566 8.18039,-6.97192 7.90151,-10.13253c-12.6889,4.64795 -37.97374,-2.60285 -40.01883,8.27335a9.2959,9.2959 0 0 0 1.90566,6.83248a5.57754,5.57754 0 0 1 4.64795,-3.67188c17.80164,-2.69581 32.53564,24.72708 19.24251,35.83568a0.27888,0.27888 0 0 0 0,0.46479l40.20475,0a0.27888,0.27888 0 0 0 0,-0.46479c-13.38609,-11.1086 1.44086,-38.53149 19.24251,-35.83568a5.57754,5.57754 0 0 1 4.64795,3.67188a9.2959,9.2959 0 0 0 1.90566,-6.83248l0.32536,0zm4.32259,-24.95948c-0.32536,-1.02255 10.08605,-1.02255 10.08605,5.48458c0,4.36907 -6.22825,6.46065 -6.22825,11.01564a4.22963,4.22963 0 0 0 2.97469,3.67188c-1.5803,-7.29728 5.06626,-3.48596 6.83248,-2.13806c-3.57892,-9.80717 4.64795,-9.76069 3.67188,-14.22272c-0.55775,-3.1606 -7.52968,-2.18454 -10.03957,-3.81132c-4.64795,-2.78877 -9.80717,-13.94384 -13.29313,-2.78877a8.27335,8.27335 0 0 1 -5.53106,14.91991s0,1.30143 0,1.44086c9.90013,-0.51127 13.33961,-7.76207 11.52691,-13.57201zm-115.0832,18.03404c1.76622,-1.3479 8.41279,-5.15922 6.83248,2.13806a4.22963,4.22963 0 0 0 2.97469,-3.67188c0,-4.64795 -6.27473,-6.64657 -6.27473,-11.01564c0,-6.50713 10.45788,-6.50713 10.13253,-5.48458c-1.8127,5.80994 1.62678,13.06073 11.48043,13.57201a7.80855,7.80855 0 0 0 0,-1.44086a8.27335,8.27335 0 0 1 -5.48458,-14.734c-3.48596,-11.01564 -8.8311,0 -13.29313,2.78877c-2.50989,1.62678 -9.2959,0.65071 -10.03957,3.81132c-0.79015,4.64795 7.20432,4.64795 3.67188,14.22272l0,-0.18592zm27.88769,18.127a11.1086,11.1086 0 0 1 10.08605,-1.85918a14.82695,14.82695 0 0 0 -6.69305,-3.90428a7.39024,7.39024 0 0 0 -3.393,5.76346zm41.27378,-60.79516l-4.78739,-5.85641l-4.64795,5.85641l4.64795,6.18177l4.64795,-6.18177l0.13944,0zm27.46937,17.75516l-3.393,-4.18315l-3.43948,4.18315l3.43948,4.09019l3.393,-4.09019zm27.88769,120.5213l-4.36907,-4.64795l-4.32259,4.64795l4.32259,4.04371l4.36907,-4.04371zm-85.56873,-120.5213l-3.43948,-4.18315l-3.43948,4.18315l3.43948,4.09019l3.43948,-4.09019zm-9.80717,20.45097l12.73538,0a16.22134,16.22134 0 0 0 17.01149,-12.31706l10.92268,0a16.3143,16.3143 0 0 0 17.05797,12.31706l12.73538,0a30.1187,30.1187 0 0 0 2.78877,-4.64795c2.0451,-5.39162 -0.55775,-7.90151 -4.32259,-7.90151l-4.64795,4.64795l-4.64795,-4.64795c-3.76484,0 -6.32121,2.50989 -4.32259,7.90151a15.66359,15.66359 0 0 0 1.48734,2.60285a13.20017,13.20017 0 0 1 -11.57339,-10.36492a70.04458,70.04458 0 0 0 4.18315,-7.4832c3.02117,-7.71559 -0.83663,-10.8762 -6.50713,-10.8762l-7.66911,8.64518l-7.29728,-8.55222c-5.62402,0 -9.2959,3.1606 -6.46065,10.8762a70.04458,70.04458 0 0 0 4.18315,7.4832a13.20017,13.20017 0 0 1 -11.57339,10.36492a12.50298,12.50298 0 0 0 1.3479,-2.60285c2.0451,-5.39162 -0.55775,-7.90151 -4.27611,-7.90151l-4.88035,4.64795l-4.78739,-4.64795c-3.71836,0 -6.32121,2.50989 -4.27611,7.90151a30.1187,30.1187 0 0 0 2.78877,4.64795l0,-0.09296zm131.95525,39.60052a63.67689,63.67689 0 0 1 -35.41737,5.48458c0,-0.88311 0.32536,-1.76622 0.46479,-2.64933a84.59266,84.59266 0 0 0 28.72432,-7.11136a16.26782,16.26782 0 0 0 6.786,-20.91577a0.32536,0.32536 0 0 0 -0.51127,0a67.16285,67.16285 0 0 1 -34.58074,20.35801q0,-1.53382 -0.27888,-3.06765a87.38143,87.38143 0 0 0 23.61158,-17.61572c6.83248,-8.8311 6.22825,-20.03266 -0.27888,-25.61019a0.27888,0.27888 0 0 0 -0.41832,0l0,0c-2.0451,3.393 -21.24112,34.39482 -42.24985,47.78091l-0.79015,0.46479a1.02255,1.02255 0 0 0 0,1.62678a11.48043,11.48043 0 0 1 3.95076,8.64518a12.36354,12.36354 0 0 1 -10.55084,11.89875a24.72708,24.72708 0 0 1 -11.75931,-0.97607a0.27888,0.27888 0 0 0 -0.37184,0.27888l0,18.59179a0.27888,0.27888 0 0 0 0.55775,0a14.64104,14.64104 0 0 1 13.71145,-8.27335a35.51032,35.51032 0 0 0 6.18177,16.59318a10.6438,10.6438 0 0 0 15.33823,1.5803a0.27888,0.27888 0 0 0 0,-0.37184l0,0c-1.90566,-1.11551 -12.82834,-7.80855 -15.01287,-18.82419a14.91991,14.91991 0 0 0 2.50989,-1.02255a35.37089,35.37089 0 0 0 12.82834,13.01426c6.92544,3.34652 13.29313,1.71974 16.0819,-3.1606c0,0 0,-0.37184 -0.2324,-0.37184c-4.27611,-0.37184 -17.47629,-4.13667 -23.23974,-13.33961c0.65071,-0.60423 1.25495,-1.20847 1.85918,-1.85918a49.59361,49.59361 0 0 0 20.12562,9.2959c6.92544,0.92959 14.82695,-1.30143 15.01287,-9.2959a0.32536,0.32536 0 0 0 -0.32536,-0.27888a61.63179,61.63179 0 0 1 -30.49054,-5.85641c0.37184,-0.74367 0.79015,-1.53382 1.11551,-2.32397c0,0 17.61572,4.13667 25.98203,2.78877a13.52553,13.52553 0 0 0 12.08467,-15.47767a0.27888,0.27888 0 0 0 -0.41832,-0.2324l0,0.2324zm-155.65979,12.64242a21.33408,21.33408 0 0 0 1.11551,2.32397a61.63179,61.63179 0 0 1 -30.49054,5.85641a0.32536,0.32536 0 0 0 -0.32536,0.27888c0,8.08743 8.08743,10.31845 15.01287,9.2959a48.84994,48.84994 0 0 0 20.12562,-9.2959c0.60423,0.65071 1.20847,1.25495 1.85918,1.85918c-5.62402,9.2959 -18.59179,12.96778 -23.23974,13.33961a0.27888,0.27888 0 0 0 0,0.37184c2.83525,4.64795 9.2959,6.50713 16.12838,3.1606a35.37089,35.37089 0 0 0 12.82834,-13.01426a14.91991,14.91991 0 0 0 2.50989,1.02255c-2.18454,11.01564 -13.15369,17.70868 -15.05935,18.82419a0.37184,0.37184 0 0 0 0,0.37184l0,0a10.6438,10.6438 0 0 0 15.33823,-1.5803a35.51032,35.51032 0 0 0 6.18177,-16.59318a14.64104,14.64104 0 0 1 13.94384,8.27335a0.27888,0.27888 0 0 0 0.55775,0l0,-18.54531a0.32536,0.32536 0 0 0 -0.41832,-0.27888a24.49469,24.49469 0 0 1 -11.71283,0.97607a12.36354,12.36354 0 0 1 -10.55084,-11.89875a11.61987,11.61987 0 0 1 3.90428,-8.64518a0.97607,0.97607 0 0 0 0,-1.62678l-0.79015,-0.46479c-21.52,-13.43257 -40.71603,-44.38791 -42.85408,-47.78091a0.37184,0.37184 0 0 0 -0.46479,0l0,0a18.87067,18.87067 0 0 0 -0.32536,25.61019a88.31102,88.31102 0 0 0 23.65806,17.61572q0,1.53382 -0.27888,3.06765a67.16285,67.16285 0 0 1 -34.48778,-20.45097a0.32536,0.32536 0 0 0 -0.51127,0a16.3143,16.3143 0 0 0 6.786,20.91577a84.59266,84.59266 0 0 0 28.86376,7.15784c0,0.88311 0.27888,1.76622 0.46479,2.64933a63.76985,63.76985 0 0 1 -35.5568,-5.4381a0.27888,0.27888 0 0 0 -0.41832,0a13.52553,13.52553 0 0 0 12.27058,15.43119c8.36631,1.3479 25.98203,-2.78877 25.98203,-2.78877l-0.04648,0zm114.6184,57.774l-6.41417,-5.06626a11.1086,11.1086 0 0 0 -5.15922,6.786c-3.8578,0.55775 -14.40864,-1.76622 -13.38609,-3.34652c11.52691,-16.22134 2.69581,-25.88907 -7.90151,-25.3778l0,10.92268a6.60009,6.60009 0 0 1 -6.83248,6.32121l-7.29728,0a11.89875,11.89875 0 0 0 -8.69166,5.29866a11.89875,11.89875 0 0 0 -8.69166,-5.29866l-7.29728,0a6.55361,6.55361 0 0 1 -6.83248,-6.32121l0,-10.92268c-10.6438,-0.51127 -19.4749,9.2959 -7.90151,25.3778c1.02255,1.53382 -9.80717,3.99724 -14.91991,3.393a7.39024,7.39024 0 0 0 -5.39162,-2.46341a8.64518,8.64518 0 0 0 -2.69581,0.46479s-19.98618,-18.68475 -20.31153,-19.05659l0,-0.37184c1.16199,-2.13806 -0.60423,-4.64795 -1.71974,-4.27611a7.0184,7.0184 0 0 0 -5.71698,-9.80717c0,1.3479 0.27888,4.09019 0.27888,4.09019s-5.4381,-2.97469 -8.18039,-0.41832s0.92959,8.04095 0.92959,8.04095s-2.83525,0 -4.18315,0a7.15784,7.15784 0 0 0 10.31845,5.01978c0,1.11551 2.32397,2.64933 4.64795,1.44086l0.92959,-0.46479c0,0.2324 19.61434,18.59179 19.61434,18.59179a6.04233,6.04233 0 0 0 -1.02255,4.64795a7.06488,7.06488 0 0 0 5.57754,5.53106a8.04095,8.04095 0 0 0 5.48458,-0.88311l5.15922,4.64795a2.37045,2.37045 0 0 0 1.76622,0.65071a2.18454,2.18454 0 0 0 2.09158,-2.27749a2.23102,2.23102 0 0 0 -0.69719,-1.3479s-5.2057,-4.64795 -5.2057,-4.64795a36.62583,36.62583 0 0 1 18.59179,-5.06626a1.3479,1.3479 0 0 0 1.30143,-1.95214c-2.97469,-7.15784 3.43948,-12.36354 10.08605,-8.13391a22.49607,22.49607 0 0 1 8.13391,11.57339c-10.8762,2.64933 -24.54117,9.90013 -27.32994,17.84812c-1.02255,3.02117 2.46341,7.20432 6.73952,8.04095a0.2324,0.2324 0 0 0 0.32536,0l0,0c2.23102,-11.80579 14.96639,-20.63689 21.56648,-22.12423c0.37184,0.88311 0.2324,0.60423 0.55775,1.48734a30.16518,30.16518 0 0 0 -16.17486,19.14955c-0.92959,3.90428 3.43948,7.43672 7.06488,8.41279a0.32536,0.32536 0 0 0 0.37184,0a39.08924,39.08924 0 0 1 9.71421,-24.16933c0,0.79015 0,1.62678 0.27888,2.46341a78.03905,78.03905 0 0 0 -4.36907,21.10169c0,4.13667 6.13529,7.0184 7.06488,7.43672c1.11551,-0.41832 7.2508,-3.30004 7.2508,-7.43672a78.03905,78.03905 0 0 0 -4.36907,-21.10169a21.00873,21.00873 0 0 1 0.27888,-2.46341a39.36812,39.36812 0 0 1 9.62125,23.70454a0.27888,0.27888 0 0 0 0.32536,0l0,0c3.6254,-0.97607 7.99447,-4.64795 7.06488,-8.41279a30.16518,30.16518 0 0 0 -16.17486,-19.14955c0.32536,-0.88311 0,-0.60423 0.51127,-1.48734a32.53564,32.53564 0 0 1 21.56648,22.12423a0.27888,0.27888 0 0 0 0.37184,0c4.27611,-0.83663 7.76207,-5.01978 6.69305,-8.04095c-2.74229,-7.94799 -16.40726,-15.19879 -27.28346,-17.84812a22.49607,22.49607 0 0 1 8.04095,-11.52691c6.64657,-4.22963 13.06073,0.97607 10.03957,8.13391a1.3479,1.3479 0 0 0 1.30143,1.95214a33.46523,33.46523 0 0 1 20.26505,6.27473a12.2241,12.2241 0 0 0 11.43395,5.25218a11.61987,11.61987 0 0 0 10.59732,-9.76069a10.8762,10.8762 0 0 0 -5.4381,-10.69028l-6.46065,5.06626l0.09296,0.46479zm-47.31611,-32.53564c2.27749,-0.83663 5.85641,0 5.76346,3.1606c0,0.74367 1.02255,0.74367 1.06903,0c0.69719,-4.92683 -2.64933,-6.36769 -6.13529,-5.76346c-0.46479,-1.71974 -0.79015,-3.20708 -1.20847,-4.64795s-0.41832,-3.43948 0.92959,-3.43948s0.46479,2.0451 0.37184,2.97469s0.2324,1.25495 0.88311,1.25495s0.88311,-0.46479 1.16199,-0.79015a5.06626,5.06626 0 0 0 0,-7.4832a7.39024,7.39024 0 0 0 -8.22687,1.67326a8.04095,8.04095 0 0 0 -1.62678,-2.55637c-0.46479,-0.55775 -0.60423,-0.92959 0,-1.39438a3.20708,3.20708 0 0 0 1.16199,-2.0451a1.62678,1.62678 0 0 0 -1.71974,-1.53382a2.18454,2.18454 0 0 0 -2.23102,2.37045a2.23102,2.23102 0 0 0 0.27888,1.16199a12.4565,12.4565 0 0 0 -3.393,0l12.87482,35.32441a9.80717,9.80717 0 0 0 6.41417,-7.76207c0,-2.64933 -3.90428,-1.76622 -5.76346,0.27888c-0.60423,-3.34652 -1.16199,-6.41417 -1.76622,-9.2959c0,-0.83663 0.27888,-1.11551 0.97607,-1.39438l0.18592,-0.09296zm-18.21996,-23.93693l2.69581,7.52968c-2.32397,0.55775 -6.04233,2.23102 -6.04233,4.64795c0,2.97469 5.25218,4.88035 8.31983,4.64795a1.99862,1.99862 0 0 0 0.51127,1.85918a6.87896,6.87896 0 0 0 -3.90428,1.25495a4.64795,4.64795 0 0 0 -5.34514,-1.3479c-1.20847,0.92959 -1.25495,2.50989 0,4.27611a3.02117,3.02117 0 0 1 0.2324,3.8578c3.67188,0 2.32397,-4.64795 3.76484,-4.64795a6.18177,6.18177 0 0 0 0.37184,3.20708a2.23102,2.23102 0 0 1 -0.2324,2.09158a19.9397,19.9397 0 0 0 -2.78877,10.17901c-1.16199,0 -1.8127,-0.27888 -1.39438,-1.95214c0,-0.60423 0,-1.02255 -0.69719,-0.27888a6.41417,6.41417 0 0 0 -0.83663,2.88173c0,3.48596 4.18315,4.18315 5.76346,3.43948a17.38333,17.38333 0 0 0 16.73261,1.8127l-15.94246,-44.01607a0.65071,0.65071 0 1 0 -1.20847,0.41832l0,0.13944zm-0.65071,35.92864c-0.32536,-1.8127 2.18454,-5.01978 5.34514,-8.13391a7.80855,7.80855 0 0 0 1.06903,6.69305a12.59594,12.59594 0 0 0 -6.41417,1.44086z" class="cls-1"/>
   </g>
  </g>
 </g>
</svg>