<svg xmlns="http://www.w3.org/2000/svg" viewBox="0 0 200 200" preserveAspectRatio="xMidYMid meet">
 <style type="text/css">.st0{fill:#1D4C86;}</style>

 <g>
  <title>background</title>
  <rect fill="none" id="canvas_background" height="202" width="202" y="-1" x="-1"/>
 </g>
 <g>
  <title>Layer 1</title>
  <path stroke="null" id="svg_1" d="m99.97895,16.72553c-11.15659,0 -21.68167,2.65232 -31.02795,7.36756c-13.51421,6.77815 -24.54449,17.80844 -31.23845,31.36475c-4.71524,9.51468 -7.15706,19.99766 -7.15706,30.60694c0,6.73605 0.96831,13.26161 2.77862,19.57666l1.64191,-0.421c-1.72611,-5.93615 -2.65232,-12.1249 -2.73652,-18.31365l12.5038,0c0.0842,5.26254 0.88411,10.35668 2.35762,15.24032l1.64191,-0.421c-1.47351,-4.75734 -2.23132,-9.72518 -2.31552,-14.81932l11.32499,0c0.0421,1.68401 0.1684,3.32593 0.3789,4.92574c-0.79991,0.0842 -1.51561,0.3789 -1.51561,0.3789l-0.3368,1.13671c-0.75781,0.1263 -1.26301,1.43141 -1.26301,1.43141c-0.63151,0.2105 -1.13671,1.01041 -0.92621,1.22091c0.2105,0.2105 -0.3368,0.2947 -0.3368,0.2947l0,1.55771l-0.3368,0.5052l0.0842,1.68401c0.421,0 0.3368,0.79991 0.3368,0.79991c-0.71571,0.0842 -0.5473,1.01041 -0.5473,1.01041l-1.47351,0.5052l-0.2947,0.421l-1.81031,-0.0842l-0.5052,0.5052l0,0c-0.1684,-0.4631 -0.2947,-0.92621 -0.4631,-1.38931l-1.64191,0.421c0.0421,0.1684 0.0842,0.3368 0.1684,0.5052l-2.06292,0l-0.1263,-0.3368l-0.71571,-0.1263l-0.0842,-0.79991l-1.05251,0.0842l-0.2105,0.421l-1.13671,0.0842c0.0842,0.71571 -1.13671,1.76821 -1.26301,1.47351c-0.1263,-0.2947 -0.92621,-1.05251 -0.5473,-1.22091c0.3368,-0.1263 1.26301,-0.2947 1.26301,-0.2947l0,-0.5052l-2.56812,-0.0842l-0.2947,0.421l-1.05251,0.0842l0,1.13671l-0.5052,0.1263c-0.3368,0.2105 0.0842,1.01041 0.0842,1.01041c0.5052,0.5052 -0.0842,1.26301 -0.0842,1.26301c-0.421,0.421 0.3368,1.22091 0.3368,1.22091c0.5473,0.1263 -0.3368,0.5894 -0.3368,0.5894c0.1263,0.71571 0.5473,0.92621 0.5473,0.92621c-0.421,0.71571 0.2947,1.05251 0.2947,1.05251l0.0842,1.22091l0.5052,0.2947l0,0.79991l0.2947,0.5052l1.13671,0l-0.0842,-1.76821c-0.96831,-1.13671 0.84201,-1.43141 0.92621,-1.01041s0.84201,0.63151 0.84201,0.63151c0.1263,1.05251 1.30511,1.68401 1.68401,0.63151c0.3368,-1.05251 0.63151,-0.421 0.84201,0.0842s1.51561,1.68401 1.51561,1.68401l1.05251,0l0.1263,1.01041c1.17881,-0.0842 1.55771,0.0842 2.02082,1.68401c0.5052,1.64191 1.81031,2.06292 1.81031,2.06292l0.96831,-0.0842c0,-0.84201 0.96831,0.1263 0.96831,0.5894s1.89452,2.06292 1.89452,2.06292l1.89452,0.421l0.3368,0.2947c1.17881,1.47351 2.39972,2.90492 3.70483,4.25213l-8.84107,8.84107c-7.83066,-7.99906 -13.43001,-17.64004 -16.50333,-28.12302l-1.64191,0.421c3.24173,11.03029 9.17787,21.13437 17.51374,29.51233c5.64144,5.64144 12.1249,10.23038 19.15565,13.55631l0.84201,-1.47351c-6.65185,-3.15753 -12.7564,-7.40966 -18.18734,-12.7143l8.84107,-8.84107c4.58894,4.46264 9.85148,8.04116 15.49292,10.60928l0.84201,-1.47351c-5.55724,-2.52602 -10.65138,-5.97825 -15.15612,-10.31458l1.64191,-1.64191c0.0842,0.1684 0.1684,0.3368 0.1684,0.5894c0.1263,1.05251 0.63151,0.84201 0.63151,0.84201l3.99953,-0.0842l1.38931,-1.22091l3.57853,-0.0842c1.81031,-0.0842 0.71571,-2.56812 0.3368,-2.56812c-0.2105,-0.1684 -0.2526,-0.5052 -0.2105,-0.84201c2.86282,2.18922 5.93615,3.99953 9.17787,5.38884l0.84201,-1.47351c-3.78903,-1.59981 -7.32546,-3.74693 -10.44088,-6.39925l-1.89452,-1.76821l8.79897,-8.79897c2.86282,2.69442 6.14665,4.71524 9.72518,5.97825c0.96831,0.3368 1.97872,0.63151 2.98912,0.88411c-0.1684,0.1684 -0.2947,0.2947 -0.2105,0.3789c0.1263,0.3368 -0.5473,0.71571 -0.5473,0.71571l-0.63151,0.2105l-0.421,0.63151l-0.84201,0.2947l-0.1263,1.47351l-0.421,0.2947l0,0.63151l-0.5052,0.1263l0,0.3368l-0.71571,0.0842l0.421,1.05251l0.5473,0.2947c0.96831,0.1263 0.5473,1.34721 0.5473,1.34721l0.5473,0.0842l0.2947,0.79991l0.5473,1.13671c0.2105,0.84201 0.84201,0.63151 1.13671,0.5894c0.2947,-0.0842 0.5473,0.84201 0.5473,0.84201l2.82072,0.0842c0,0 -0.1263,0.2947 0.3368,0.421c0.2526,0.0842 1.34721,0.1684 2.31552,0.1684l0,1.26301c-5.17834,-0.0842 -10.18828,-1.17881 -14.81932,-3.11542l-0.84201,1.47351c4.92574,2.10502 10.18828,3.24173 15.66132,3.32593l0,11.32499c-7.45176,-0.1263 -14.65092,-1.76821 -21.26067,-4.75734l-0.84201,1.47351c6.86235,3.11542 14.31411,4.84154 22.10268,4.96784l0,12.4196c-9.93568,-0.1263 -19.53456,-2.35762 -28.24932,-6.52555l-0.84201,1.47351c9.21997,4.42054 19.40825,6.73605 29.93334,6.73605c11.03029,0 21.68167,-2.56812 31.28055,-7.40966c6.48345,-3.28383 12.5038,-7.57806 17.80844,-12.8827c5.55724,-5.55724 10.06198,-11.91439 13.38791,-18.81885l0,0c4.54684,-9.30417 6.94656,-19.61876 6.94656,-30.27014c0,-9.05157 -1.72611,-17.85054 -5.05204,-26.01801c-3.45223,-8.50427 -8.58847,-16.33493 -15.28242,-23.02888c-6.73605,-6.73605 -14.56672,-11.87229 -23.15518,-15.32452l0,0c-8.04116,-3.32593 -16.79803,-5.00994 -25.8075,-5.00994l0,0zm-0.84201,1.68401l0,12.5038c-8.46217,0.1263 -16.50333,2.18922 -23.61829,5.72565c-5.13624,2.52602 -9.85148,5.85195 -13.93521,9.85148l-8.88317,-8.88317c5.00994,-4.88364 10.73559,-8.96737 17.00854,-12.1249c9.00947,-4.50474 19.02935,-6.94656 29.42813,-7.07286zm1.68401,0c8.50427,0.0842 16.79803,1.76821 24.46029,4.88364l0,0c8.08326,3.24173 15.53502,8.08326 21.97637,14.35621l-7.49386,7.49386c-0.2526,0.0421 -0.5473,0.0842 -0.71571,0c-0.5052,-0.2105 0.2105,-0.71571 0.2105,-0.71571l0,-0.5894l-0.421,-0.421c0,0 -1.17881,0.1263 -1.26301,-0.0842c-0.0842,-0.2105 -0.2947,-1.13671 -0.2947,-1.13671l-0.0842,-1.22091l-0.5052,-0.2105l-0.0842,-0.421l-0.75781,0.0842l0,-0.84201l-0.421,-0.1263l-0.421,-0.2105l-0.0842,-0.84201l-1.55771,-0.0842l-0.5052,-0.71571l-0.5473,-0.84201l-1.76821,-0.1263l-0.421,-0.421l-0.71571,-0.1263l-0.5052,-0.2105l-0.2105,0.3789l-1.34721,0.0842l-0.0842,0.421c-0.421,0.2105 -1.55771,0.2105 -2.44182,0.2105c-1.38931,-0.71571 -2.82072,-1.34721 -4.25213,-1.93662l-0.63151,1.55771c1.17881,0.4631 2.31552,1.01041 3.45223,1.55771c-0.0842,0.2526 -0.1684,0.421 -0.3368,0.421c-0.3368,0 -0.2105,0.92621 -0.2105,0.92621s0.92621,0 1.17881,0.0842c0.2947,0.0842 0.2947,0.79991 0.2947,0.79991c1.05251,-0.0842 1.47351,1.34721 1.34721,1.68401c-0.1263,0.3368 0.421,0.3368 0.421,0.3368s0,1.13671 -0.1263,1.43141c-0.1263,0.2947 0.92621,0.5052 1.17881,0.92621c0.2947,0.421 -0.1263,1.85241 -0.3368,1.93662c-0.2105,0.0842 0.5473,0.2947 0.5052,0.63151c-0.0842,0.3789 0.2105,0 0.2947,0.5894c0.0842,0.5473 0.2105,1.76821 0.2105,1.76821l0.96831,0.0842c0.1263,-0.92621 1.93662,-0.96831 2.23132,-0.84201c1.17881,0.421 2.10502,2.27342 2.10502,2.69442s-0.75781,0.5052 -0.75781,0.5052l0.0421,0.4631l-2.44182,2.44182c-0.2526,-0.1684 -0.5052,-0.2105 -0.63151,-0.1263c-0.3368,0.2105 -0.2105,-1.47351 -0.2105,-1.47351s0.63151,-0.421 0.92621,-0.2105c0.2947,0.2105 -2.39972,-3.53643 -2.94702,-3.19963c-0.5473,0.3368 -1.81031,-0.3789 -1.76821,-1.01041c0.0842,-0.63151 -2.52602,-2.77862 -2.52602,-2.77862s-0.84201,-0.5473 -0.96831,-0.1263c-0.1263,0.421 -0.421,0.71571 0,0.92621c0.421,0.2105 0.3368,-0.3368 0.84201,0.1263c0.5052,0.5052 1.38931,1.13671 1.05251,1.55771c-0.3368,0.421 -0.75781,0.5894 -0.75781,0.5894l0.5052,0.5894l0.75781,0l0.1263,1.22091c0,0 0.84201,0.421 1.05251,0.92621c0.1263,0.3368 0.1684,0.5473 0.1263,0.75781c-1.55771,-1.17881 -3.19963,-2.27342 -4.88364,-3.24173c0,-0.1263 0.0421,-0.2526 0,-0.3789c-0.1263,-0.5052 0.5473,-0.71571 0.92621,-0.1263l0.71571,-0.0842l0.1263,-0.63151l-0.96831,-0.79991l-0.75781,0c0,0 -0.0842,0.5894 -0.5473,0.3789c-0.5052,-0.2105 -0.2105,-0.1263 -0.63151,-0.2105c-0.3789,-0.0421 -0.2947,0.71571 -0.2105,1.09461c-1.09461,-0.5473 -2.18922,-1.05251 -3.32593,-1.51561c-4.75734,-1.93662 -9.89358,-3.03122 -15.15612,-3.11542l0,-6.48345c0.4631,0 0.63151,-0.1684 0.71571,-0.3368c0.0842,-0.2947 0.1263,-0.3789 0.5473,-0.421c0.421,-0.0842 -0.0842,-0.92621 -0.5052,-0.84201c-0.2947,0.0421 -0.5894,-0.0421 -0.75781,-0.2526l0,-3.24173c6.73605,0.0842 13.2195,1.43141 19.28195,3.91533l0.63151,-1.55771c-6.23085,-2.52602 -12.9669,-3.91533 -19.91346,-3.99953l0,-12.5459zm11.70389,2.94702l-0.67361,0.421l-0.4631,-0.2947l-0.2105,0.3789l0.5473,0.3368l0.1263,0.0842l0.1263,-0.0842l0.75781,-0.5052l-0.2105,-0.3368zm3.19963,1.72611l-0.5473,0.4631l-0.3368,-0.3789l-0.2947,0.2947l0.5052,0.5052l0.1263,0.1263l0.1263,-0.1263l0.71571,-0.5894l-0.2947,-0.2947zm-67.48684,0.3368c-6.94656,2.69442 -14.44041,5.47304 -18.94515,12.6301c-2.65232,4.16793 -3.03122,9.13577 -5.09414,13.43001c3.87323,-3.62063 8.33587,-6.31505 11.61969,-10.60928c3.91533,-5.17834 7.32546,-10.94609 12.4196,-15.45082l0,0zm103.48262,0c5.09414,4.50474 8.50427,10.27248 12.4617,15.45082c3.28383,4.33633 7.74646,6.98866 11.61969,10.60928c-2.10502,-4.29423 -2.48392,-9.26207 -5.09414,-13.43001c-4.54684,-7.11496 -12.0407,-9.89358 -18.98725,-12.6301l0,0zm-40.83732,0.88411c-0.3368,-0.0421 -0.79991,0.1263 -0.84201,0.2947c-0.0842,0.2947 -0.5052,0.3368 -0.5052,0.3368l-1.59981,0.1263c-0.1263,0.421 -0.96831,0.71571 -1.05251,0.421c-0.1684,-0.63151 -1.05251,0.79991 -0.1263,1.05251s1.81031,0 1.81031,0l0.2105,-0.421l3.49433,0.0842c0.2947,-0.2947 0.421,-0.71571 0.421,-0.71571s0.84201,-0.2947 1.17881,-0.1263s0.0842,-1.01041 -0.2947,-0.84201c-0.3368,0.1263 -1.05251,0.0842 -1.05251,0.0842l-1.26301,0c0,-0.1684 -0.1684,-0.2526 -0.3789,-0.2947l0,0zm-6.23085,1.43141l-0.92621,0.3368l-0.96831,0.63151l-1.05251,0.1263l-0.5473,0.63151l2.23132,0.2105l0.421,0.71571l1.59981,0.1263l1.05251,1.05251c0.92621,0.2947 1.13671,-0.1263 0.5473,-0.63151l-0.92621,-0.92621l0,-0.79991l-0.2947,-0.2947l-0.2947,-1.01041l-0.84201,-0.1684zm-5.51514,6.86235l0,11.32499c-6.10455,0.1263 -12.1249,1.55771 -17.59794,4.25213c-3.99953,1.93662 -7.62016,4.50474 -10.77769,7.53596l-8.04116,-8.04116c4.04163,-3.91533 8.63057,-7.11496 13.55631,-9.55678l0,0c7.03076,-3.49433 14.77722,-5.43094 22.86048,-5.51514l0,0zm-69.67605,0.2947c-3.53643,0.92621 -6.52555,3.24173 -9.17787,6.18875c-5.55724,6.14665 -5.09414,15.24032 -4.33633,23.36569c0.2105,2.52602 0.0842,4.63104 -0.1684,7.19916c1.68401,-3.45223 4.42054,-6.73605 7.66226,-9.17787c7.24126,-5.47304 15.15612,-12.5459 15.28242,-21.80797c-2.39972,6.69395 -9.68308,9.47258 -14.52462,14.01941c-2.56812,2.39972 -4.54684,5.30464 -5.68355,8.33587l-0.1684,-0.1263c0.5894,-2.69442 1.72611,-5.09414 2.52602,-7.70436c2.06292,-7.07286 1.68401,-15.53502 8.58847,-20.29236l0,0zm141.03612,0c6.90445,4.75734 6.52555,13.2195 8.63057,20.29236c0.75781,2.56812 1.89452,5.00994 2.52602,7.70436l-0.1684,0.1263c-1.13671,-3.03122 -3.11542,-5.93615 -5.68355,-8.33587c-4.84154,-4.58894 -12.1249,-7.32546 -14.52462,-14.01941c0.1263,9.30417 8.04116,16.37703 15.28242,21.80797c3.24173,2.44182 6.02035,5.72565 7.70436,9.17787c-0.2947,-2.56812 -0.421,-4.71524 -0.1684,-7.19916c0.75781,-8.12536 1.22091,-17.21904 -4.33633,-23.40779c-2.73652,-2.90492 -5.72565,-5.22044 -9.26207,-6.14665l0,0zm-38.0166,1.43141c-0.5473,0 -1.38931,0.3789 -1.30511,0.79991c0.0842,0.3789 0.3368,0.71571 0.92621,0.84201l1.05251,0.3368c0,0 1.30511,1.55771 1.26301,0.79991c-0.1263,-2.14712 -1.13671,-2.18922 -1.47351,-2.61022c-0.0842,-0.1263 -0.2526,-0.1684 -0.4631,-0.1684l0,0zm-21.93427,0.84201l-0.2947,0.63151l0.3789,0.1684l0.2947,-0.63151l-0.3789,-0.1684zm1.30511,0.71571c-0.0421,-0.0421 -0.421,0.5052 -0.71571,0.67361c0.3368,0.1684 0.79991,0.421 0.79991,0.421c0.5473,0 0.92621,0.421 0.92621,0.63151c0,0.2105 0.75781,0.1263 0.75781,0.1263l0.0842,-0.5052l-0.5473,-0.71571l-0.5052,-0.3368c0,0 -0.79991,-0.0842 -0.79991,-0.2947c0,0 0,0 0,0l0,0zm-3.03122,0.421l-0.0421,0.421l0.5894,0.0421l0.421,0.67361l0.3368,-0.2105l-0.5052,-0.79991l-0.0421,-0.0842l-0.0842,0l-0.67361,-0.0421zm-16.20863,1.81031c-0.3789,0 -0.71571,0.0842 -0.71571,0.2105c0.0842,0.3368 0.63151,0.79991 0.63151,0.79991s1.05251,0.0842 1.13671,0.2947c0.0842,0.2105 0.75781,0.2947 0.84201,0.0842c0.0842,-0.2105 0.3368,-0.63151 -0.2947,-0.63151c-0.63151,0 -0.5052,-0.3368 -0.71571,-0.5894c-0.0842,-0.1263 -0.4631,-0.2105 -0.88411,-0.1684l0,0zm55.82504,0.67361c6.27295,6.39925 11.07239,13.85101 14.35621,21.93427c3.11542,7.70436 4.79944,15.99813 4.88364,24.50239l-12.5038,0c-0.0842,-6.82025 -1.43141,-13.43001 -3.87323,-19.57666c-0.3368,-0.88411 -0.71571,-1.76821 -1.13671,-2.65232c0.1263,-0.3789 0.3368,-0.79991 0.79991,-0.63151c0.71571,0.2105 0.2105,-1.55771 0.2105,-1.55771s-0.96831,-0.71571 -0.92621,-1.05251c0.0842,-0.3789 -0.96831,-1.05251 -0.92621,-1.34721c0.0842,-0.2947 -0.92621,-0.84201 -0.84201,-1.13671c0.0842,-0.2947 -0.5052,-1.05251 -0.5052,-1.05251l-1.05251,-1.01041l-0.1263,-0.63151l-0.84201,-0.0842l-1.68401,-2.06292l0.0842,-0.5894l-0.5052,-0.0842l0,-0.79991l-0.5052,-0.2947l-0.75781,-0.0842l-1.55771,-1.68401l-0.1263,-0.79991l-0.75781,0l0.1263,-1.22091l8.16746,-8.08326zm-38.0587,0.0421l0,0.63151l0.75781,0.0842l-0.2105,-0.5894l-0.5473,-0.1263zm-58.85627,0l8.84107,8.88317c-4.12583,4.25213 -7.57806,9.17787 -10.14618,14.56672c-3.36803,6.98866 -5.30464,14.77722 -5.43094,23.02888l-12.5038,0c0.1263,-10.23038 2.52602,-20.08186 6.90445,-29.00713c3.15753,-6.48345 7.32546,-12.3775 12.3354,-17.47164l0,0zm62.30849,3.28383c-0.0842,0 -0.1263,0.0421 -0.1263,0.0842c0,0.2105 0.2947,0.2105 0.421,0.63151c0.1263,0.421 0.0842,1.13671 0.71571,1.26301s0.75781,0.2947 0.84201,0.5894c0.0842,0.2947 0.84201,0.3368 0.84201,0.3368l0.5473,0.2947l1.68401,1.43141l0,-0.5894c0,0 -0.0842,-0.5894 -0.421,-0.5894s-0.96831,-0.421 -0.84201,-0.71571c0.1263,-0.2947 -1.17881,-0.5894 -1.17881,-0.5894s-1.17881,-1.13671 -0.75781,-1.01041c0.421,0.1263 0.2105,-0.5052 0.2105,-0.5052s-0.84201,0.1263 -1.05251,0.0842c-0.2105,-0.0842 -0.1263,-0.71571 -0.1263,-0.71571s-0.5473,0 -0.75781,0l0,0zm-38.47971,0.5473l-0.2947,0.2947l0.421,0.421l0.2947,-0.2947l-0.421,-0.421zm-60.58238,2.90492c-0.1684,-0.0421 -0.2947,0.0842 -0.421,0.1684c-4.79944,6.10455 -7.99906,12.8406 -7.99906,21.05017c0,10.14618 5.85195,17.26114 6.56765,26.77581c1.51561,-9.93568 9.85148,-17.05064 14.18781,-25.8075c1.68401,-3.41013 2.73652,-7.28336 3.19963,-11.03029c-0.63151,1.59981 -1.59981,3.07332 -2.94702,4.33633c-5.59934,5.38884 -12.2512,10.65138 -13.51421,18.22944c-0.1684,1.09461 -0.2526,2.18922 -0.5894,3.24173c-0.2526,0.0842 -0.2526,-0.1684 -0.3368,-0.2526l0.71571,-9.34627c0.67361,-9.17787 -4.16793,-19.32405 1.13671,-27.36522zm170.42215,0c5.30464,8.04116 0.4631,18.18734 1.17881,27.32312l0.71571,9.34627c-0.0842,0.0842 -0.0842,0.3368 -0.3368,0.2526c-0.2947,-1.05251 -0.421,-2.14712 -0.5894,-3.24173c-1.26301,-7.53596 -7.91486,-12.7985 -13.51421,-18.14524c-1.30511,-1.22091 -2.27342,-2.69442 -2.94702,-4.33633c0.4631,3.74693 1.51561,7.62016 3.19963,11.03029c4.33633,8.75687 12.6722,15.82973 14.18781,25.8075c0.71571,-9.55678 6.56765,-16.62963 6.56765,-26.77581c0,-8.20957 -3.19963,-14.94562 -7.99906,-21.05017c-0.1684,-0.0842 -0.2947,-0.2526 -0.4631,-0.2105l0,0zm-86.05308,0l0,12.5038c-3.83113,0.1263 -7.57806,1.01041 -11.03029,2.61022c-2.69442,1.26301 -5.17834,2.94702 -7.32546,5.00994l-8.84107,-8.84107c3.07332,-2.94702 6.56765,-5.38884 10.39878,-7.24126c5.13624,-2.52602 10.86189,-3.91533 16.79803,-4.04163zm1.68401,0c5.05204,0.0842 9.97778,1.13671 14.52462,2.98912l0,0c1.26301,0.5052 2.48392,1.09461 3.66273,1.72611c0.0421,0.0421 0.1263,0.0842 0.2105,0.1263c1.97872,1.05251 3.87323,2.31552 5.64144,3.70483l0,0c0.0842,0.5052 0.63151,0.71571 0.63151,0.71571l0.3368,0.0421c0.2105,0.1684 0.4631,0.3789 0.67361,0.5473l0,0.5894c0.5052,-0.1263 1.26301,0.4631 1.38931,0.92621l-8.71477,8.71477c-2.48392,-2.35762 -5.34674,-4.16793 -8.42007,-5.47304c-3.15753,-1.30511 -6.52555,-2.06292 -9.97778,-2.14712l0.0421,-12.4617zm-39.27961,3.28383l8.04116,8.04116c-3.24173,3.36803 -5.93615,7.28336 -7.91486,11.53549l0,0c-2.44182,5.26254 -3.78903,11.03029 -3.87323,16.84013l-11.32499,0c0.1263,-7.83066 1.89452,-15.36662 5.22044,-22.22898c2.44182,-5.17834 5.76775,-9.97778 9.85148,-14.18781l0,0zm71.48637,5.34674c0.96831,0.5894 1.68401,1.89452 1.59981,2.14712c-0.1263,0.2947 0.84201,0.2105 0.84201,0.2105c0.1263,-1.26301 1.34721,-0.84201 1.38931,-0.421c0.0842,0.421 0.2947,1.34721 0.2947,1.34721l0.3368,0.63151l0.5052,0.5052l0.75781,-0.0842l0.2105,0.421l0.92621,0.1263c0,0 0.75781,0.84201 0.84201,1.05251c0.0842,0.2105 1.13671,0.1263 1.38931,0.2105c0.2947,0.0842 0.71571,0.2947 0.75781,0.63151c0.0842,0.3789 0.5052,0.92621 0.5052,0.92621s0.84201,0.2105 0.92621,0.5052c0.0842,0.2947 0.421,0.92621 0.421,0.92621l0.71571,0.5894l0.0842,0.63151l0.75781,0.0842l0.2105,0.84201l1.26301,-0.0842l0.71571,-0.5052c0.2105,-0.1263 0.421,-0.2526 0.5894,-0.3789c0.2526,0.5894 0.5052,1.17881 0.75781,1.76821c2.35762,5.93615 3.66273,12.3354 3.74693,18.90305l-11.32499,0c-0.0421,-2.02082 -0.2105,-3.99953 -0.5473,-5.93615c0.0842,-0.2947 0.1263,-0.5473 0,-0.63151c-0.2105,-0.2105 0.2105,-1.22091 0.2105,-1.22091s0.2947,-0.5894 0,-1.13671c-0.2947,-0.5894 0.0842,-1.22091 0.2947,-1.47351l-0.5473,-0.2947l-0.5473,-0.0842l-0.421,0.0842c-0.1263,-0.4631 -0.2526,-0.88411 -0.421,-1.34721l0,0l0.3368,0.0842l0,-0.421l-0.5052,-0.1263c-0.0842,-0.2947 -0.2105,-0.5894 -0.2947,-0.88411l-0.0842,-1.47351l-0.5052,-0.3368l0.1263,-0.5894l-0.5473,-0.2105l0.2947,-0.92621l-0.5052,-1.01041l-0.71571,0c-0.3368,-0.67361 -0.67361,-1.34721 -1.05251,-1.97872c0.0842,-0.0421 0.1684,-0.0842 0.2947,-0.1263c0.3789,-0.0842 0.5052,-0.1263 0.5473,-0.1263l-0.0842,-0.75781l-0.63151,-0.421l-0.2105,-0.84201c0,0 -0.75781,0.1263 -0.71571,0.5894c0,0.0842 -0.0421,0.1684 -0.1263,0.2105c-0.5052,-0.79991 -1.01041,-1.55771 -1.55771,-2.31552c0,-0.0421 0.0421,-0.0842 0.0421,-0.1263c0.2947,-0.5052 0.1263,-0.79991 -0.3368,-0.92621c-0.5052,-0.1263 -0.5052,-0.1263 -0.63151,-0.71571s-0.71571,-0.71571 -0.71571,-0.71571l-0.2105,-0.84201l-0.5052,0.3368c-0.2947,-0.3368 -0.5473,-0.63151 -0.84201,-0.96831l0.2526,-0.79991c-0.2947,-0.0421 -0.421,-0.2105 -0.5052,-0.3789l2.14712,-2.14712zm-44.96316,1.72611l-0.2526,0.3368l0.421,0.3368l0.2526,-0.3368l-0.421,-0.3368zm-1.59981,0.2947l0.0842,0.75781l1.05251,0c0.421,0 -0.3368,-0.5052 -0.3368,-0.5052s-0.88411,0.0842 -0.79991,-0.2526l0,0zm46.52087,0.1263l-0.421,0.0421l0.0842,0.63151l0.421,-0.0421l-0.0842,-0.63151zm-62.26639,1.68401l8.84107,8.84107c-1.85241,1.97872 -3.41013,4.16793 -4.63104,6.56765c-0.2947,0 -0.5894,0.0421 -0.67361,0.2947c-0.2105,0.5473 -1.13671,0.421 -1.13671,0.421l-0.1263,0.2947l-0.71571,0.1263l-0.1263,0.421l-0.84201,0.1263l2.10502,-0.0842c0.5473,-0.0842 -0.2105,1.22091 -0.5473,1.13671l-0.96831,0.0842l-0.3368,0.3368l-0.92621,0l-0.421,0.5894l-1.34721,-0.0842c0,0 -0.75781,0.63151 -0.71571,0.84201c0.0842,0.2105 -0.1263,0.84201 -0.3368,0.84201s-0.63151,0.63151 -0.5052,0.84201c0.1263,0.2105 -0.421,0.92621 -0.421,0.92621l-0.1263,0.71571l-0.421,0.1263l0,1.89452l-0.84201,0.5894l0,0.84201l-0.3789,0.421l-5.68355,0c0.1263,-5.64144 1.38931,-11.07239 3.66273,-16.04023l0,0c1.89452,-3.95743 4.46264,-7.74646 7.62016,-11.07239l0,0zm58.35106,0.1263c0.2947,0.2526 0.2947,0.3789 0.67361,0.67361c0.1263,0.0842 0.2526,0.1684 0.3789,0.1684c0.2105,0.2526 0.4631,0.5052 0.67361,0.75781l-0.1684,0.2105c0,0.79991 0.3789,0.5894 0.75781,0.5052c0.1263,0.1263 0.2105,0.2947 0.3368,0.421c0.0421,0.4631 0.0421,1.13671 0.79991,1.05251l0,0c0.88411,1.22091 1.72611,2.48392 2.48392,3.74693l0,0.0842l0,0c0.1263,0.2105 0.2526,0.421 0.3368,0.63151c-0.1684,0.1263 -0.2526,0.2947 -0.2526,0.2947l-1.13671,0.1263l0,1.13671l-0.5473,0.2105l0.0842,0.71571l0.75781,-0.0842c0,0 0,0.84201 0.2105,0.5052c0.2105,-0.3368 1.97872,0.0842 1.81031,0.92621c-0.0421,0.3368 1.76821,1.26301 1.55771,2.39972c0.1263,0 0.2526,0.0842 0.3368,0.1263c0.3368,0.96831 0.63151,1.97872 0.88411,2.94702l-0.1263,0.2526c0,0 0.1263,0.0842 0.2526,0.2105c0.2105,0.88411 0.421,1.76821 0.5473,2.65232c-0.0421,0.79991 -0.2105,1.51561 -0.63151,1.72611c-0.84201,0.5052 0.0842,0.2105 0.0842,0.2105l-0.1263,1.55771c0.2105,0.71571 0.5473,0.3368 0.75781,0c0.1263,-0.2105 0.2105,-0.2947 0.3368,-0.421c0.1263,1.05251 0.1684,2.14712 0.2105,3.24173l-8.33587,0c0.0421,-0.0421 0.1263,-0.2105 0.1263,-0.2105l0.3368,-1.01041l1.17881,-0.3368l0.1263,-0.92621l-0.63151,-0.0842c0,0 0.71571,-1.26301 1.05251,-1.26301s2.65232,0 2.86282,-0.1263c0.2105,-0.1263 0.63151,-1.26301 0.63151,-1.47351s0.5473,-0.2947 0.75781,-0.3368c0.2105,-0.0842 0.71571,-0.63151 0.84201,-0.92621c0.1263,-0.2947 -0.3368,-2.06292 -0.63151,-1.76821c-0.2947,0.2947 -0.92621,0.421 -0.92621,0.421l-0.2105,0.79991l-0.3368,0.2947c0,0 0.0842,0.2105 0,0.71571s-0.71571,0.79991 -0.71571,0.79991l-0.2947,0.3368c0,0 -1.68401,0.0842 -1.89452,0c-0.63151,-0.2947 -0.2105,-1.13671 0.2105,-1.05251c0.421,0.0842 -0.0842,-1.22091 -0.0842,-1.22091l0.5473,-0.0842c0,0 0.0842,-1.26301 0.2947,-1.26301s-0.0842,-0.421 -0.3368,-0.63151c-0.2947,-0.2105 -0.63151,-0.92621 -0.92621,-0.84201c-0.2947,0.0842 -1.38931,0 -1.38931,0l-0.2105,0.421l-0.75781,0.1263c0,0 0.0842,0.5473 -0.0842,0.71571c-0.421,0.5052 -2.02082,1.55771 -1.34721,-0.2105l0.2105,-0.421l0,-0.63151l-1.26301,-0.0842c0,0 -0.63151,-0.2105 -0.63151,-0.5052c0,-0.2947 -0.0842,-0.63151 -0.0842,-0.63151l-1.47351,-1.64191l-1.76821,-0.2105l-0.1263,-0.3368l-1.05251,-0.1263c-0.1263,-0.0842 -0.2947,-0.1263 -0.4631,-0.1684c-0.5052,-0.79991 -1.01041,-1.55771 -1.59981,-2.27342c0,-0.0421 -0.0421,-0.1263 -0.0421,-0.1684c-0.0842,-0.2526 -0.84201,-1.34721 -1.26301,-1.38931c-0.1684,-0.1684 -0.2947,-0.3368 -0.4631,-0.5052l8.88317,-8.75687zm6.86235,0.88411c-0.0842,0 -0.1263,0.0842 -0.1263,0.2105c0,0.2947 0.3368,0.421 0.2105,0.79991c-0.1263,0.3368 0.1263,0.63151 0.421,0.63151c0.2947,0 0.5052,0.1263 0.75781,0.2947c0.2947,0.1263 0.5052,0.3368 0.71571,0.63151l0.71571,-0.2105c0,0 0.0842,-0.71571 -0.2105,-0.5052c-0.2947,0.2105 -0.5052,-0.5052 -0.75781,-0.421c-0.2947,0.0842 -0.421,-0.2947 -0.71571,-0.63151c-0.2947,-0.3368 -0.2105,-0.421 -0.5473,-0.63151c-0.2105,-0.1263 -0.3368,-0.1684 -0.4631,-0.1684l0,0zm-36.79569,0.71571l0,11.36709c-1.47351,0.0842 -2.90492,0.3789 -4.25213,0.88411l0,0l-0.0842,-0.79991l0.3368,-0.2105l-0.5473,-0.2105l-0.421,0.5894l-0.1263,0.63151l-0.71571,0.1263l0,0.3789l-0.5052,0l0,0.421c-1.01041,0.5473 -1.97872,1.22091 -2.86282,2.02082l-8.04116,-8.04116c2.06292,-1.93662 4.42054,-3.53643 6.94656,-4.71524l0,0c3.24173,-1.51561 6.73605,-2.31552 10.27248,-2.44182l0,0zm1.68401,0c3.24173,0.0842 6.39925,0.79991 9.34627,2.02082c2.86282,1.22091 5.51514,2.90492 7.83066,5.09414l-0.4631,0.4631c-0.2105,-0.2105 -0.96831,-0.3789 -0.96831,-0.63151c0,-0.2947 -0.71571,-0.63151 -0.63151,-0.2105c0.0842,0.421 -0.5052,0.63151 -0.63151,0.5052c-0.1263,-0.1263 -0.5473,0.421 -0.5473,0.421c0,0.2105 -0.1263,0.5052 0.2947,0.5894c0.421,0.0842 1.17881,-0.2947 1.26301,0.1263c0.0421,0.1263 0.0421,0.2526 0.0842,0.3789l-2.77862,2.77862c-0.3789,0 -0.75781,-0.0421 -0.75781,-0.0421c-0.2105,0.63151 -1.17881,-0.0842 -0.92621,-0.5052c0.2947,-0.421 0.2947,-0.71571 0.2947,-0.71571l-0.3368,-0.0842l-0.421,0.79991c-0.96831,0 -1.26301,0.5894 -1.05251,0.92621c0.2105,0.3789 -0.2947,-0.0842 -0.421,0.421s0.0842,0.5052 0.5052,0.71571c0.421,0.2105 -0.2105,0.2105 0.0842,0.5473c0.1684,0.2105 0.5894,0.1684 0.71571,0.2105l-0.5473,0.5473c-0.5052,0.1684 -1.05251,0.0421 -1.05251,0.0421c0,0.1263 -0.0842,0.2526 -0.2105,0.3368c-1.09461,-0.92621 -2.35762,-1.68401 -3.70483,-2.23132c0.2105,-0.1684 0.5894,-0.1684 0.75781,-0.63151c0.2947,-0.79991 0.421,-2.06292 0.421,-2.06292s-1.13671,-0.0842 -1.17881,0.2947c-0.0842,0.3368 -0.75781,0.5894 -0.75781,0.5894s-0.5473,0.2105 -0.3368,0.5052s-0.421,0.421 -0.421,0.421s0.0421,0.2105 0,0.3789c-1.09461,-0.3368 -2.27342,-0.5473 -3.45223,-0.5894l0,-11.40919zm37.2167,2.44182l-0.84201,0.0842c0.2105,0.2947 0.63151,0.5052 0.63151,0.79991c0,0.2947 -0.1263,0.5052 0.2947,0.5894c0.421,0.0842 0.71571,-0.0842 0.84201,0.2947c0.1263,0.3368 0.1263,0.92621 0.0842,1.22091c-0.0842,0.2947 0.0842,0.71571 0.421,0.71571s0.421,0.0842 0.421,0.2947s0.421,-0.79991 0.421,-0.79991c-0.3368,-0.2947 -0.63151,-0.92621 -0.63151,-0.92621s-0.3368,-1.01041 -0.3368,-1.13671c0,-0.1263 -0.5052,-0.2947 -0.71571,-0.3368c-0.2526,-0.1684 -0.5894,-0.79991 -0.5894,-0.79991l0,0zm-6.65185,0.2526l-0.71571,0.0842l0.0421,0.421l0.71571,-0.0842l-0.0421,-0.421zm0.421,0.5052l0,0.3368l0.421,0l0,-0.3368l-0.421,0zm-0.5473,0.71571c0,0 -0.421,0.5894 -1.26301,0.2947c0,0 -0.1263,1.34721 -0.5473,1.64191l-0.96831,0c0,0 0.2105,0.3789 0.421,0.5894c0.2105,0.2105 0.71571,0.63151 0.2105,0.92621c-0.5052,0.2947 0.0842,0.2105 0.0842,0.2105s-0.0842,1.51561 -0.71571,1.26301c-0.63151,-0.2105 -0.84201,0.79991 -0.84201,1.05251s2.48392,0.3789 2.10502,0c-0.2105,-0.2105 0.2947,-0.71571 0.2947,-0.71571s1.68401,0.1263 2.02082,0.1263s0.63151,-0.0842 0.421,-0.421c-0.2105,-0.3789 -0.84201,-0.2947 -0.84201,-0.2947s-0.84201,0.2105 -1.59981,-0.2105c-0.75781,-0.421 0.1263,-0.5894 0.2947,-0.5894s0.75781,-0.5052 0.5052,-0.84201c-0.2947,-0.3368 0,-1.01041 0,-0.71571c0,0.2947 0.75781,0.421 0.92621,0.2105c0.1263,-0.2105 0,-0.84201 -0.3368,-1.05251c-0.3368,-0.2105 0.63151,-0.3368 0.3368,-0.71571c-0.3789,-0.3368 -0.5052,-0.75781 -0.5052,-0.75781l0,0zm1.38931,2.14712l0,0.5052l0.421,0l0,-0.5052l-0.421,0zm0.92621,0.2526l-0.2105,0.421l0.3789,0.1684l0.2105,-0.421l-0.3789,-0.1684zm6.82025,0.5473c-0.1684,0.0421 0.1263,0.84201 -0.0421,0.96831c-0.2105,0.1263 -0.3368,0.421 -0.5473,0.63151c-0.2105,0.2105 0.421,0.5052 0.421,0.71571c0,0.2105 0.1263,1.26301 0.1263,1.26301s0.5052,0.2105 0.5473,0.5052c0.0842,0.2947 0,0.84201 0.2105,0.92621c0.2105,0.0842 0.63151,0.3368 0.5052,0.63151c-0.1263,0.2947 -0.1263,0.84201 -0.1263,0.84201l0.2947,0.63151l0.5473,0.3368c0,0 0.2105,-1.68401 -0.1263,-1.76821c-0.3368,-0.0842 -0.2105,-1.05251 -0.2105,-1.05251s0.3368,-1.34721 -0.2105,-1.34721s-0.1263,-0.71571 -0.5052,-0.92621c-0.3368,-0.2105 -0.1263,-1.22091 -0.2947,-1.47351c-0.1263,-0.2947 -0.1263,-0.63151 -0.5052,-0.84201c-0.0421,-0.0421 -0.0842,-0.0421 -0.0842,-0.0421zm-17.00854,1.38931l-0.71571,0.0842l0.0421,0.421l0.71571,-0.0842l-0.0421,-0.421zm-10.60928,0c-0.2105,0 -0.421,0.0421 -0.421,0.0421l-1.13671,0.1263l-0.0842,0.5052l0.75781,0.0842c0,0 0.3368,0.2947 0.3368,0.5052c0,0.2105 0.5052,0.421 0.75781,0.421c0.2947,0 1.05251,-0.5473 1.05251,-0.5473s0.3368,-1.01041 0.0842,-0.92621c-0.2947,0.0842 -0.84201,0.5052 -0.92621,0.0842c0.0421,-0.2105 -0.2105,-0.2947 -0.421,-0.2947l0,0zm-31.99625,0.0421l6.86235,6.86235l-0.67361,-0.0421c-0.2947,0.63151 -0.96831,-0.0842 -0.96831,-0.0842c-0.1263,-0.421 -1.13671,0 -1.13671,0c0,0.79991 -1.34721,-0.3368 -1.34721,-0.3368l-2.44182,-1.76821c-1.38931,-1.26301 -3.49433,0.3789 -3.57853,0.71571c0.0421,0.5473 -0.421,0.5473 -0.88411,0.4631c1.13671,-2.10502 2.52602,-4.04163 4.16793,-5.80985l0,0zm27.53362,0.2105l-0.421,0.0842l0.1263,0.63151l0.421,-0.0842l-0.1263,-0.63151zm2.27342,0.0842l-1.55771,0.0842l0,0.421l1.55771,-0.0842l0,-0.421zm-13.1353,0.1684l0,0.421l0.5473,0l0,-0.421l-0.5473,0zm3.62063,0.0421l-0.0421,0.421l0.5052,0.0842l0.0421,-0.421l-0.5052,-0.0842zm0.88411,0.2526l-0.0421,0.421l0.5052,0.0842l0.0421,-0.421l-0.5052,-0.0842zm-5.68355,0.1263l-0.0842,0.421l0.5052,0.0842l0.0421,-0.421l-0.4631,-0.0842zm11.53549,0l-0.2105,0.0842l0.1263,0.421l0.2105,-0.0842l-0.1263,-0.421zm16.96643,0.1684l-0.2105,0.5052l0.3789,0.1684l0.2105,-0.5052l-0.3789,-0.1684zm-5.22044,0.1263c0.2526,0.0842 0.5052,0.1263 0.75781,0.1684c0.3368,0.421 0.67361,0.79991 0.96831,1.26301l-0.88411,-0.1263l-0.5473,-0.0842l-1.05251,-0.0842c-1.05251,0.71571 -1.26301,1.55771 -1.26301,1.55771c-0.4631,0.92621 -1.51561,-0.0421 -1.51561,-0.71571l1.85241,-1.85241c0.1263,0 0.2105,0 0.3368,0c0.4631,0 1.34721,-0.1263 1.34721,-0.1263l0,0zm-16.62963,0.1263l0,0.421l0.5473,0l0,-0.421l-0.5473,0zm-7.11496,0.0842l-0.0842,0.421l0.5473,0.1263l0.0842,-0.421l-0.5473,-0.1263zm-0.1684,0.5894l-0.421,0.0842l0.0842,0.421l0.421,-0.0842l-0.0842,-0.421zm8.29377,0l-0.421,0l0,0.5052l0.421,0l0,-0.5052zm22.06058,0.1684c-0.2947,0 -0.5473,0.0421 -0.75781,0.0842c-0.3368,0.0842 -0.2947,0.3368 0,0.71571l0.84201,-0.1263c0,0 0.63151,-0.2947 0.5052,-0.5052c-0.0842,-0.1263 -0.3368,-0.1684 -0.5894,-0.1684l0,0zm-4.67314,0.4631c0.2526,0.3789 0.5052,0.75781 0.75781,1.09461c-0.0842,0.1684 -0.1263,0.421 -0.0421,0.63151c0.2105,1.05251 0.5473,1.47351 -0.1263,1.47351c-0.71571,0 -0.84201,-0.5894 -0.84201,-0.5894s-0.5473,-0.2105 -0.5473,0.0842c0,0.2947 -0.2105,0.84201 0,1.13671c0.2105,0.2947 -0.2947,0.71571 -0.5052,0.5052c-0.2105,-0.2105 -0.75781,-0.84201 -0.63151,-1.05251c0.1263,-0.2105 -0.96831,-1.55771 0.1263,-1.76821c1.13671,-0.2105 -0.0842,-0.84201 0.3368,-1.01041l0.5473,-0.2947l0.5473,0l0.3789,-0.2105zm-116.82843,0.2526c-1.13671,2.35762 -1.55771,5.00994 -2.14712,7.57806c-1.26301,6.65185 0,13.68261 1.81031,19.82926c2.27342,7.62016 9.72518,13.0932 13.51421,20.12396l0.5052,0.421c-0.5473,-3.78903 -0.84201,-7.91486 0.2526,-11.53549c1.64191,-5.80985 3.70483,-11.45129 4.75734,-17.47164c0.84201,-4.67314 1.81031,-9.93568 1.26301,-14.44041c-0.63151,2.44182 -1.26301,4.84154 -2.61022,6.94656c-5.09414,7.87276 -10.31458,17.13484 -6.73605,27.15472c-0.0842,0.1263 -0.2105,0.2526 -0.3368,0.1684c-1.43141,-3.32593 -1.76821,-7.07286 -2.69442,-10.60928c-2.48392,-9.43047 -9.68308,-17.30324 -7.57806,-28.16512l0,0zm190.96712,0c2.10502,10.86189 -5.09414,18.73465 -7.57806,28.12302c-0.92621,3.53643 -1.26301,7.32546 -2.69442,10.60928c-0.1263,0.0842 -0.2526,-0.0842 -0.3368,-0.1684c3.57853,-10.01988 -1.64191,-19.23985 -6.73605,-27.15472c-1.34721,-2.06292 -1.97872,-4.50474 -2.61022,-6.94656c-0.5473,4.54684 0.421,9.76728 1.26301,14.44041c1.09461,6.02035 3.15753,11.66179 4.75734,17.47164c1.05251,3.62063 0.79991,7.70436 0.2526,11.53549l0.5052,-0.421c3.78903,-6.98866 11.28289,-12.4617 13.55631,-20.12396c1.81031,-6.10455 3.07332,-13.1774 1.81031,-19.82926c-0.63151,-2.52602 -1.09461,-5.17834 -2.18922,-7.53596l0,0zm-95.60986,1.85241l0.1263,1.68401l-0.75781,-0.2526l-0.5052,0l-0.2105,-0.421l-0.421,-0.0842l0,1.55771l0.421,0.3368l0.3368,0.3368l0.71571,0.0842l0.1263,0.84201l1.76821,0.0842l0.2105,0.3368l1.05251,0.0842l2.02082,2.06292l-0.1263,0.63151l-0.3368,0.2105c0.1263,0.5052 -0.92621,0.2105 -0.92621,0.2105l0,0.421l0.5052,0.0842l0.5052,0.2947l0.71571,-1.22091c0.75781,-0.5052 1.13671,0.2105 1.17881,0.63151c0.0842,0.421 -0.3368,0.3368 -0.3368,0.3368l0,1.01041l0.421,0.1263c0.71571,0.84201 -0.2947,1.34721 -0.2947,1.34721l-0.2105,0.71571c-0.2105,0.63151 -0.96831,0.5052 -0.96831,0.5052l-0.2947,0.421l-0.84201,0.2105l1.68401,0.2105c0.1684,-0.5894 0.5894,-0.71571 0.79991,-0.421c0.2105,0.2947 0.2105,0.79991 0.2105,0.79991l0.421,0.0842l-0.0842,0.79991l0.421,0.1263l0,2.27342l0.5052,0.5894c0.84201,-0.3368 0.84201,0.2105 0.421,0.5052c-0.421,0.2947 -0.1263,1.55771 -0.1263,1.55771l-0.3368,0.3789l0,0.5894l-0.421,0.2947l0,0.79991c-0.71571,-0.3789 -1.55771,-0.2105 -1.76821,0c-0.63151,-0.421 -1.97872,-0.2947 -1.97872,0.0842c0.421,0.5894 -0.5052,0.71571 -0.5052,0.71571l-0.5052,0.5894c0.3368,0.71571 -0.3368,0.79991 -0.3368,0.79991l0,1.34721l-0.84201,0.79991l0.0421,1.26301c-0.421,0.0421 -0.84201,0.0842 -1.30511,0.0842c-3.28383,0 -6.35715,-1.17881 -8.79897,-3.32593c0.0421,0 0.0842,-0.0421 0.1263,-0.1263c0.3368,-0.5894 0.92621,-0.63151 0.92621,-0.63151l0.2105,-0.5052l1.89452,0.0842c0.1263,-0.79991 1.05251,-0.5052 1.05251,-0.1263c0,0.3789 0.71571,0.0842 0.71571,0.0842l0.5052,-0.79991l0.75781,0l0.0842,-0.84201l0.3368,-0.2105l0,-1.26301c1.13671,-0.3368 0.96831,-1.43141 0.96831,-1.43141l0.2947,-0.3368l-0.1263,-0.5052c-0.5473,-0.2105 -0.2947,-0.71571 0.0842,-0.5894c0.3368,0.1263 -0.5052,-0.63151 -0.5052,-0.63151c-0.421,0.3789 -0.75781,-0.421 -0.75781,-0.421l-1.05251,0l0,-1.01041l-0.1263,-0.92621l-1.05251,-0.5052l-0.75781,0.71571l-0.1263,1.01041l0,0.63151l-0.71571,0.1263l-0.1263,1.89452l-0.5473,0.2105l0.0842,0.71571l-0.75781,0.2105l-0.75781,0.2105l-0.1263,0.92621l-0.5473,0.3789l-0.2947,0.84201l-0.5473,1.81031c-0.96831,-1.01041 -1.76821,-2.18922 -2.39972,-3.45223c0.1263,-0.5052 0.1263,-0.96831 0.1263,-0.96831c-0.63151,-0.2947 -0.2947,-1.26301 0.421,-0.421c0.71571,0.84201 -0.421,-1.68401 -0.421,-1.68401l-0.5473,-0.5052l-0.71571,-0.0842c-0.1263,-0.67361 -0.1684,-1.38931 -0.1684,-2.10502c0,-0.2947 0,-0.5894 0.0421,-0.88411c0.2105,-0.2105 0.421,-0.0842 0.421,-0.0842l0.421,0.3789l0.63151,0.5052l0.0842,0.421l-0.421,0.2105l-0.0842,0.5894l0.2105,0.79991l0.5473,0c0.2105,-1.13671 1.68401,-1.13671 2.10502,-0.421l0.421,-1.01041c-0.96831,-0.5052 0,-1.26301 0.2526,-0.92621c0.2947,0.3789 0.92621,-0.92621 0.92621,-0.92621s0.5052,0.63151 0,-0.2105c-0.5052,-0.84201 0.3368,-1.26301 0.3368,-1.26301c-0.1263,-0.84201 0.92621,-0.71571 0.92621,-0.71571l0.0842,-1.13671l-0.96831,-0.0842c-0.2105,1.01041 -1.05251,0.1263 -0.63151,-0.0842c0.421,-0.2105 0.84201,-0.63151 0.84201,-0.63151l0,-0.71571l0.421,-0.1263l0.0842,-0.71571l1.05251,0l0.92621,-0.421l0.2105,-0.3368l0.96831,-0.0842l1.38931,-1.26301l-0.1263,-0.5894c-0.84201,0 0,-0.63151 0,-0.63151l0.1263,-1.05251l-0.75781,0l-0.1263,-1.51561c0.88411,-0.2526 1.89452,-0.3789 2.90492,-0.3789l0,0zm42.60554,4.08373l-0.0842,0.5894l0.421,0.0421l0.0842,-0.5894l-0.421,-0.0421zm-0.2526,1.93662l-0.2105,0.421l0.3789,0.2105l0.2105,-0.421l-0.3789,-0.2105zm-72.62308,2.82072c0.67361,-0.0421 1.13671,0.3368 1.13671,0.3368l0.96831,-0.0842c0.2526,0.1684 0.421,0.3368 0.5052,0.5473c-0.0842,0.67361 -0.1263,1.30511 -0.1684,1.97872c-0.0842,0.1684 -0.1684,0.2947 -0.1684,0.2947c-0.0842,0.1263 -0.1263,0.3368 -0.1684,0.5473l-2.65232,0l0,-0.0421l-0.75781,-0.0842c-0.84201,-0.5052 -0.421,-2.35762 -0.421,-2.35762c0.5894,-0.84201 1.17881,-1.09461 1.72611,-1.13671l0,0zm24.29189,1.30511l-0.1263,0.3789l-0.3368,0l-0.0842,0.5894l0.421,0l0.0842,0.421l-0.2947,0.2947l-0.1263,0.3789l-0.5473,0.1263l-1.26301,1.22091l-0.0842,0.5473l-0.3368,0.5052l-0.421,1.05251l-1.47351,0.0842l-0.2947,1.26301l0.2105,1.05251l1.26301,0.5052l0.1263,-0.71571l0.421,-0.2105l0.0842,-0.71571l0.2947,-0.5052l0.421,-0.5052l0.1263,-0.5894l0.71571,-0.421l0.84201,-0.1263l0.3368,-0.421l0.1263,-0.84201l0.0421,-0.63151l0.2947,-0.421l0.84201,-0.3368l0,-1.38931l-0.421,0l-0.0842,-0.5052l-0.75781,-0.0842zm43.91065,0.421l-0.0842,0.421l0.75781,0.1263l0.0842,-0.421l-0.75781,-0.1263zm-1.72611,0.63151l-0.2105,0.1263l-0.5052,0.2947l-0.4631,-0.2947l-0.2105,0.3789l0.5473,0.3368l0.0842,0.0842l0.0842,-0.0421l0.421,-0.2526l0.0421,0.1263l0.3789,-0.1684l-0.1263,-0.3789l-0.0421,-0.2105zm-5.38884,2.94702l9.80938,0c-0.1263,5.34674 -1.26301,10.65138 -3.45223,15.53502c-1.89452,4.29423 -4.50474,8.20957 -7.74646,11.57759c-0.1263,-1.43141 -0.4631,-2.98912 -0.4631,-2.98912l-0.5473,-0.2947l0.1263,-1.72611l-0.75781,0l-1.26301,1.64191l-0.1263,0.4631l-0.71571,-0.71571l0.3789,-0.3789l-0.0842,-0.84201l0.5052,-0.421l0,-0.71571l0.421,-0.1263l0.0842,-1.55771l0.3368,-0.0842l0,-3.41013l-1.05251,-1.01041c-0.0842,0.3368 -1.17881,0.3368 -1.17881,0.3368s-0.2947,0.5052 -0.5052,0.5052s0.2947,0.63151 0.1263,1.05251c-0.1263,0.421 -0.71571,0.421 -0.71571,0.421l-1.05251,0.2947l-0.2947,0.3368l-1.13671,0l-0.0842,-0.63151c0.1263,-0.1263 0.2105,-0.2526 0.3368,-0.421l0.88411,-0.2526l0.71571,-0.3368l0.3368,-0.71571c0.0842,-0.71571 0.92621,-0.63151 0.92621,-0.63151s1.59981,-1.34721 1.68401,-1.97872c0.0842,-0.63151 0.63151,-2.39972 1.59981,-2.39972l1.81031,0c0.71571,-0.2947 0.5052,-1.22091 0.5052,-1.22091l0.92621,-0.1263l0.1263,0.5052c0,0 1.26301,0.1263 1.38931,-0.0842c0.1263,-0.2105 0.421,-0.71571 0.75781,-0.5052c0.3368,0.2105 1.47351,-0.5052 1.47351,-0.5052c0.0842,-0.5052 1.81031,-0.2947 1.81031,-0.2947l0.2105,-0.63151c0,0 -1.17881,-1.64191 -1.38931,-1.64191s-1.34721,-1.01041 -1.47351,-0.63151c-1.13671,-0.2947 -1.05251,-1.85241 -1.05251,-1.85241l-0.421,-1.01041c0,-0.5894 -1.05251,-1.76821 -1.26301,-1.64191c-0.421,-0.2105 -0.5473,-0.5894 -0.5052,-0.88411l0,0zm11.49339,0l11.32499,0c-0.1263,7.78856 -1.89452,15.15612 -5.00994,21.80797l0,0c-2.52602,5.38884 -5.93615,10.31458 -10.06198,14.60882l-0.2947,-0.2947l-0.0842,-1.81031l-0.3368,-0.3368l-0.0842,-1.76821c0.2947,-0.92621 -1.34721,-2.27342 -1.47351,-1.97872c-0.1263,0.2947 -1.05251,0.0842 -1.05251,0.3368c0,0.2947 -0.5473,1.68401 -0.2947,2.18922c0,0.0421 0,0.0421 0.0421,0.0842l-4.42054,-4.42054c3.45223,-3.57853 6.14665,-7.62016 8.12536,-12.0407l0,0c2.27342,-5.17834 3.49433,-10.73559 3.62063,-16.37703l0,0zm12.9669,0l12.5038,0c-0.1263,10.23038 -2.52602,19.95556 -6.73605,28.58613l0,0c-3.19963,6.56765 -7.40966,12.588 -12.5038,17.80844l-8.84107,-8.84107c4.33633,-4.46264 7.78856,-9.51468 10.39878,-14.98772l0,0c3.28383,-6.94656 5.09414,-14.60882 5.17834,-22.56578zm-95.65196,0l4.92574,0l0.0421,0.421l-1.05251,1.13671l0.1263,1.13671l-0.63151,0.2105l-0.1263,0.5052l-0.2947,1.47351l0.71571,0.0842c0.3368,-0.1263 0.2947,0.92621 0,1.05251c-0.2947,0.1263 -1.05251,0.421 -0.63151,0.71571c0.421,0.2947 -1.13671,0.2105 -1.13671,-0.2105s-0.84201,-0.79991 -1.05251,-0.63151c-0.1263,0.0842 -0.2947,-0.1263 -0.421,-0.3368c-0.2526,-1.85241 -0.4631,-3.66273 -0.4631,-5.55724l0,0zm7.19916,0l0.3368,0c0.1684,0.0421 0.3368,0.1263 0.3368,0.1263l0.96831,0.0842l0.0842,-0.1684l3.32593,0l0.2947,1.81031l-0.92621,0.79991c-0.75781,0.421 -0.75781,1.43141 0.0842,1.64191c0.5473,0.0842 0.3368,1.43141 -0.5052,0.5052c-1.26301,0 0.71571,1.13671 0.1263,0.84201c1.26301,0.63151 0.96831,-0.5894 0.96831,-0.5894l0.63151,-0.5052c0.2526,1.38931 0.63151,2.73652 1.09461,4.08373c1.26301,3.62063 3.32593,6.94656 5.97825,9.76728l-8.84107,8.84107c-0.5894,-0.5894 -1.13671,-1.22091 -1.64191,-1.85241c0.0842,-0.421 0.3789,-0.88411 0.3789,-0.88411c0.92621,-0.5894 -0.2105,-1.47351 -0.2105,-1.47351c0.1263,-0.84201 -0.5052,-1.85241 -0.5052,-1.85241c-1.26301,-0.84201 -0.92621,-2.48392 -0.92621,-2.48392l0,-1.13671c-1.05251,-1.01041 0.421,-1.13671 0.421,-1.13671c0.5052,-0.84201 -0.3368,-1.47351 -0.3368,-1.47351l-0.0842,-0.92621l-1.13671,-0.1263l-0.1263,-3.32593l-2.52602,-3.62063c-0.5052,-0.1263 -0.1263,-1.01041 -0.1263,-1.01041c0.63151,-0.3368 -0.1263,-1.22091 -0.1263,-1.22091l-0.0842,-1.55771l1.47351,-0.1263l0.3368,-0.5894l0.71571,0l-0.0842,-1.85241c0.2526,-0.3789 0.4631,-0.5052 0.63151,-0.5894l0,0zm17.51374,0l0.79991,0c0.0421,0.5052 0.0842,1.01041 0.1684,1.47351l-0.421,0.1263l-0.1263,-0.2947l-0.2105,0.79991l-1.26301,0l-0.0842,-0.84201l0.75781,-0.2105l0.2947,-0.421l0.0842,-0.63151zm20.75546,0.96831c-0.1263,0 -0.2526,0.0842 -0.3368,0.3368l0,0.92621c0,0 0.96831,1.55771 1.34721,1.76821c0.3368,0.2105 0.92621,-0.2526 0.5473,-0.5052c-1.05251,-0.71571 -0.96831,-1.64191 -1.26301,-2.27342c-0.0842,-0.0842 -0.1684,-0.2105 -0.2947,-0.2526zm-36.62729,0.63151l0.0842,0.5052l0.3368,0c0.5473,1.01041 0.0842,3.41013 0.0842,3.41013s-0.84201,0.0842 -0.96831,-0.3368c-0.1263,-0.421 -0.5052,0.92621 -0.2105,1.13671c0.2947,0.2105 1.26301,0 1.34721,0.79991c0.0842,0.79991 0.63151,-0.5052 0.63151,-0.5052l0,-4.84154l-1.30511,-0.1684zm33.68027,1.43141l-1.26301,0.92621c0.63151,0.0842 0.71571,0.71571 0.75781,1.01041c0.1684,0.63151 0.1263,-1.01041 0.421,-0.92621c0.2947,0.0842 0.0842,-1.01041 0.0842,-1.01041zm-27.99672,0.5894c0.5894,0.2105 1.26301,1.17881 1.26301,1.34721c0,0.2105 2.77862,0.0842 2.77862,0.0842c0.75781,0.5052 1.05251,1.76821 1.05251,1.76821c0.75781,-1.01041 2.39972,-0.0842 1.17881,0.5052c1.13671,0.71571 1.13671,1.34721 1.13671,1.34721c0.92621,-0.2947 0.92621,0.421 0.92621,0.63151c0,0.2105 0.2947,-1.05251 0.2947,-1.05251c-1.05251,-0.79991 1.38931,-1.05251 0.71571,0.3368l-0.421,0.63151l0.71571,0.5894l0.0842,1.64191c1.55771,-0.1263 1.13671,-2.06292 1.13671,-2.06292l0.71571,-0.1263c0,-0.63151 0.5052,-0.2947 0.5052,-0.2947c-0.3368,-1.68401 0.3368,-2.39972 0.75781,-2.65232c0.5473,1.05251 1.22091,2.02082 2.02082,2.90492l-8.08326,7.99906c-2.48392,-2.65232 -4.33633,-5.68355 -5.55724,-9.00947c-0.5473,-1.51561 -0.96831,-3.03122 -1.22091,-4.58894l0,0zm63.4031,1.64191c-0.5894,-0.0421 -1.30511,0.3789 -1.09461,0.67361c0.421,0.5894 1.13671,0.2947 1.38931,0.3368c0.2947,0.0842 0.5473,0.2105 0.2947,-0.63151c-0.1263,-0.2526 -0.3368,-0.3368 -0.5894,-0.3789l0,0zm-66.56063,1.01041c-0.1684,0 -0.2947,0.1263 -0.2947,0.2947c0,0 0,0 0,0c0,0.1684 0.1263,0.2947 0.2947,0.2947c0.1684,0 0.2947,-0.1263 0.2947,-0.2947c0,-0.1684 -0.1263,-0.2947 -0.2947,-0.2947zm-0.75781,0.96831l-1.05251,0.71571l-0.71571,-0.421l0,1.68401l1.13671,1.47351l0.421,-1.01041l0.1263,-0.63151l-0.5052,-0.2105l0.0842,-1.05251l0.421,-0.0842l0.0842,-0.4631zm25.89171,1.76821l-0.63151,0.0842l0.0842,1.01041l0.421,0.3368l0.75781,0.2105c0,0 1.05251,-0.2947 1.13671,-1.13671l-1.59981,-0.0842l-0.1684,-0.421zm8.84107,0.5473c0.5894,0 0.4631,1.43141 0.421,1.89452c-0.421,0.1684 -0.84201,0.3368 -1.26301,0.4631l0,-1.55771l0.71571,-0.79991c0,0 0.0421,0 0.1263,0l0,0zm-14.86142,0.79991c2.44182,2.18922 5.47304,3.49433 8.71477,3.74693l0,0.0421c0,0 -0.2526,0.63151 0.0421,0.75781c0.0421,0 0.0421,0.0421 0.0842,0.0421c0.2105,0.0842 0.1684,0.1263 0.2947,0.2947l-0.1684,0.3789c0,0 0,0 -0.0421,-0.0421c-0.2526,-0.2526 -0.3789,0.2947 -0.2105,0.4631c0.1684,0.1684 -0.3789,0.0421 -0.3789,0.2526c0,0.2105 -0.1684,0.3368 0,0.421c0.1684,0.0842 -0.0421,0.1684 -0.2526,0.3368s0.88411,0.2105 0.88411,0.2105s-0.2105,-0.421 0.0421,-0.421c0.0421,0 0.0842,0 0.1263,0l0,0.71571c-0.0842,-0.0421 -0.1684,-0.0421 -0.2947,-0.0842l0,0.5052l-0.5473,0.0842l0.5052,0.5473l0.3789,0.0421l0,1.17881l0,0.0842c0,0.92621 -2.31552,0.2947 -2.52602,0.0842l-0.0842,1.26301l-0.421,0.0842l0.0842,0.84201l-0.0842,1.22091l0.75781,-0.1263l0,0.5052l1.89452,0.0842l0.3789,-0.3789l0,1.30511l0,0.0842l-1.26301,0.1263l-0.5473,0.2947l-0.2105,-0.421l-0.5473,0l-0.3368,0.4631c-1.64191,-0.2526 -3.28383,-0.63151 -4.84154,-1.17881l0,0c-3.45223,-1.17881 -6.65185,-3.11542 -9.38837,-5.68355l7.95696,-8.12536zm-66.68693,0.71571c0.92621,6.18875 -1.51561,11.66179 -2.06292,17.55584c-0.4631,4.84154 0.3789,9.55678 2.27342,13.59841c0.5473,1.22091 1.55771,2.31552 1.85241,3.53643c-1.81031,-1.64191 -3.11542,-3.70483 -4.33633,-5.72565c-5.85195,-9.47258 -18.10314,-15.61922 -18.94515,-27.15472c-0.421,5.13624 0,10.56718 1.72611,15.11402c2.35762,6.31505 6.94656,11.19869 12.2091,15.32452c5.38884,4.21003 11.87229,7.57806 16.79803,11.32499c-0.96831,-2.48392 -2.56812,-4.75734 -3.19963,-7.36756c-2.90492,-11.74599 -1.26301,-25.3444 -6.31505,-36.20629l0,0zm153.41362,0c-5.05204,10.90399 -3.41013,24.50239 -6.31505,36.24839c-0.63151,2.61022 -2.23132,4.88364 -3.19963,7.36756c4.96784,-3.78903 11.45129,-7.11496 16.88223,-11.40919c5.26254,-4.12583 9.80938,-9.00947 12.2091,-15.32452c1.72611,-4.54684 2.14712,-9.97778 1.72611,-15.11402c-0.84201,11.53549 -13.0932,17.68214 -18.94515,27.15472c-1.26301,2.02082 -2.52602,4.12583 -4.33633,5.72565c0.2947,-1.22091 1.30511,-2.31552 1.85241,-3.53643c1.89452,-4.04163 2.73652,-8.75687 2.27342,-13.59841c-0.63151,-5.89405 -3.07332,-11.32499 -2.14712,-17.51374l0,0zm-61.00338,0.2105c0.1684,0 0.3368,0.0842 0.2526,0.3368c-0.2105,0.63151 0,0.92621 0,0.92621c0.92621,-0.84201 1.68401,0.0842 1.59981,0.2947s0.5052,0.421 0.84201,0.2105c0.3368,-0.2105 0.75781,0.63151 0.63151,1.05251c-0.1263,0.421 -1.38931,0.3789 -1.47351,-0.0842c-0.0842,-0.421 -0.2947,-0.2947 -0.421,-0.0842c-0.1263,0.1684 -0.5894,0.2947 -0.92621,0.2105l-0.2947,-0.2947c0.0421,-0.0842 0.0842,-0.1684 0,-0.2526c-0.0842,-0.0842 -0.2105,-0.0842 -0.3368,-0.0842l-0.63151,-0.63151c0,-0.421 0.1263,-1.01041 0.0842,-1.17881c-0.1263,-0.1684 0.3789,-0.421 0.67361,-0.421l0,0zm-45.51046,0.2947l-0.5052,0.0842l-0.0842,0.5894l0.5473,0.0842l0.0421,-0.75781zm87.44239,0.5894c-0.2947,0 -0.63151,0.1684 -0.84201,0.2947l0.2105,0.3368c0.2526,-0.1684 0.63151,-0.2526 0.71571,-0.2105c0,0 0,0 0,-0.0421l0.421,-0.0842c0,-0.1263 -0.1263,-0.2526 -0.2105,-0.2947c-0.0842,0.0421 -0.2105,0 -0.2947,0l0,0zm-87.27399,0.71571c-0.1684,0 -0.2947,0.1263 -0.2947,0.2947c0,0.1684 0.1263,0.2947 0.2947,0.2947s0.2947,-0.1263 0.2947,-0.2947c0,-0.1263 -0.1263,-0.2947 -0.2947,-0.2947zm34.90118,0.3368c0,0.1684 0.0842,0.3789 0.0842,0.3789l0.3368,0.1263l-0.5894,0.5473l-0.5473,0.63151l-0.71571,-0.2105l-0.84201,-0.0842l-0.2947,-0.5052l-0.5052,-0.0842l-0.0842,1.01041l-0.3368,0.421l-0.84201,0.84201c0.88411,0 0.2947,0.4631 -0.1263,0.67361l0,-2.86282c0.92621,-0.0421 1.81031,-0.1684 2.65232,-0.3789c0.0842,0.0842 0.1263,0.1263 0.1263,0.1263l0.63151,0l0.0421,-0.3368c0.3789,-0.0421 0.71571,-0.1684 1.01041,-0.2947l0,0zm-34.39597,1.17881c-0.1684,0 -0.2947,0.1263 -0.2947,0.2947c0,0 0,0 0,0c0,0.1684 0.1263,0.2947 0.2947,0.2947c0.1684,0 0.2947,-0.1263 0.2947,-0.2947c0,0 0,0 0,0c0,-0.1684 -0.1263,-0.2947 -0.2947,-0.2947c0,0 0,0 0,0zm26.43901,0.2105c-0.3368,0 -0.63151,1.09461 -0.79991,1.34721c0,0 0.1684,0.5894 0.4631,0.5473c0.3368,-0.0421 0.5052,-0.2105 0.79991,-0.2526c0.2526,-0.0421 0.3789,-0.4631 0.4631,-0.88411c0.0842,-0.421 -0.0842,-0.63151 -0.0842,-0.63151s-0.2526,0.421 -0.67361,0c-0.0421,-0.0842 -0.1263,-0.1263 -0.1684,-0.1263zm-27.74412,0.5894l-0.5894,0.0842l0,0.5052l0.5894,-0.0842l0,-0.5052zm42.10033,0l0.5052,0l0.0842,0.3368l2.14712,0.2105l0.0842,0c0.84201,0.5052 0.421,1.13671 0.1263,1.26301c-0.2947,0.1263 -0.75781,0.1263 -0.75781,0.1263l-0.1263,0.2947l-1.81031,0.1263l-0.1263,0.71571c-0.92621,-0.1263 -1.26301,0.84201 -1.05251,1.34721c0.2105,0.5052 0,0.92621 0,0.92621l0.75781,0.3368l0.96831,-0.2947c0.1263,-0.71571 0.75781,-0.84201 1.34721,-1.26301c0.5473,-0.421 1.47351,0.79991 1.17881,1.34721c-0.0421,0.0842 -0.0421,0.1263 -0.0842,0.1684c-1.05251,0.75781 -2.18922,1.38931 -3.36803,1.97872c-1.85241,0.92621 -3.83113,1.59981 -5.85195,2.02082l-0.0842,-0.0421l-0.75781,-0.2105l-0.0842,-1.05251c-0.1263,-0.71571 -1.47351,-0.71571 -1.38931,-0.2105c0.0842,0.5052 -2.48392,0.2105 -2.52602,0.2105l0,-1.93662l0.71571,-0.75781l1.59981,-0.3368c0.1263,-0.71571 0.84201,0.1263 0.84201,0.1263c0.71571,-0.0842 0.84201,0.421 0.84201,0.421l0.92621,0.1263c0.75781,0.2105 0.2947,0.2947 0.3368,0.5894c0.0842,0.421 0.421,0.2947 0.421,0.2947l0.1263,-0.92621l0.421,0.0842l-0.421,-0.5052l-0.75781,-0.3789l-0.84201,-0.3368c-0.5473,-0.79991 0.1263,-0.63151 0.71571,-0.5894l0.92621,0c0,0 1.05251,1.43141 1.05251,1.76821c0,0.3368 0.5052,0.421 0.5052,0.421l0.63151,-0.0842l0.2105,0.5052l0.63151,0l0.2105,0.421l1.26301,0l0.0842,-0.63151l-1.17881,-0.2105l-0.0842,-0.71571l-0.84201,-0.2105c-0.2947,-1.22091 0.2105,-1.55771 0.5473,-1.01041l0.421,0.0842l-0.1263,-1.05251l0.5052,-0.1263l-0.1263,-1.47351l-0.421,-0.1263l0,-0.5052l1.76821,0.0842c-0.2947,-0.92621 -0.0842,-1.34721 -0.0842,-1.34721l0,0zm50.6467,3.24173l-0.3789,0.2105c0.0421,0.0842 0.0421,0.2105 0.0842,0.2947c0,0.1263 0,0.2526 0.1263,0.3789c0.0842,0.0421 0.1684,0.0842 0.2947,0.0421l-0.0842,-0.421c0.0421,0 0.0842,0.0421 0.0842,0.0421c0,0 0,-0.0421 0,-0.0842c0,-0.1263 -0.0421,-0.2947 -0.1263,-0.4631l0,0zm-0.3789,0.75781l-0.421,0.0842c0.0842,0.421 0.2526,0.84201 0.2526,0.88411l0.3789,-0.1684c0.0421,0.0421 -0.1263,-0.3789 -0.2105,-0.79991l0,0zm-32.88036,0.421l0,1.34721l0.5052,0l0,-1.34721l-0.5052,0zm-15.11402,0.3789l-0.5473,0.3368l0.2105,0.3789l0.5473,-0.3789l-0.2105,-0.3368zm45.63676,0.96831c-0.0421,0.3368 0.0421,0.75781 0.3789,0.79991l0.0842,-0.421l0,0c-0.0421,-0.0421 -0.0842,-0.2105 -0.0421,-0.3789l-0.421,0zm-0.2526,0.79991c-0.1263,0 -0.2947,0.1263 -0.4631,0.2526c-0.421,0.2526 -0.2526,1.34721 0,1.05251c0.2526,-0.2526 0.5894,0 0.63151,-0.79991c0.0421,-0.421 -0.0421,-0.5473 -0.1684,-0.5052zm-43.48965,0.5473l1.64191,0.84201c0.2105,0.2947 1.13671,0.2105 1.13671,0.2105l0.2947,0.3789c0,0 0.5473,-0.0842 0.92621,0.3368c0.3368,0.421 2.18922,0.0842 2.18922,0.0842l0.5052,0.421l0.75781,0.2947l1.30511,0.0421l0.79991,0.79991c-1.26301,0.5894 -3.83113,0.3789 -3.99953,0.2105c-0.2105,-0.2105 -1.68401,-0.84201 -1.68401,-0.84201s-1.13671,-0.92621 -1.34721,-0.63151c-0.2105,0.2947 -1.17881,-0.3368 -1.17881,-0.1263c0,0.2105 -0.92621,-0.5052 -0.92621,-0.5052l-1.38931,-0.5052l1.05251,-0.2105l-0.1684,-0.67361c0,-0.0842 0.0421,-0.1263 0.0842,-0.1263l0,0zm-76.0332,4.16793l0,0.71571l0.5473,0l0,0.92621l0.421,0l-0.0842,-1.05251l-0.5473,-0.2105l0,-0.3789l-0.3368,0zm102.21961,0.3368l-0.0421,0.63151l0.67361,0.0421l0.0421,-0.5894l-0.67361,-0.0842zm-0.5473,1.51561l-0.1263,0.421c0.0421,0 0.0842,0.0421 0.1263,0.0842l0.0842,0.3789c-0.0421,0.0421 -0.0842,0.0842 -0.0842,0.1263l0.2947,0.2947c0.2105,-0.2526 0.2947,-0.5052 0.2526,-0.71571c-0.0842,-0.421 -0.5052,-0.5473 -0.5473,-0.5894l0,0zm-12.2512,1.26301l3.07332,3.07332c-0.1263,0.5052 -0.63151,0.84201 -0.88411,0.63151c-0.2947,-0.2105 0.3368,0.3368 0.5052,0.63151c0.1263,0.2947 0.5473,0.2947 0.71571,0c0.0842,-0.2105 0.0842,-0.5473 0.1263,-0.84201l1.43141,1.43141c-0.1684,0.3789 -0.3789,0.75781 -0.2947,0.96831l0.63151,0.2947l0.0842,1.22091c0.4631,0.4631 1.51561,0.4631 2.35762,0.3368l0.2947,0.2947c-2.61022,2.52602 -5.43094,4.75734 -8.46217,6.69395l0,-0.67361c1.26301,-0.92621 1.34721,-2.56812 0.1263,-2.69442c-0.92621,-0.0842 -0.5052,-1.05251 0.3368,-1.22091l0.5052,-0.2105l0,-0.63151l1.59981,-1.47351l0,-1.13671l-3.49433,-2.90492c-0.71571,-0.2526 -0.75781,-1.13671 -0.5052,-1.97872c0.63151,-0.63151 1.26301,-1.22091 1.85241,-1.81031l0,0zm-85.92678,0.1684l0.5052,1.26301l0.2947,0.63151l0.5473,0.79991l0.75781,0.71571l0.2947,-0.5052l-0.5052,-1.05251l-0.5052,-0.3789l-0.3368,-1.01041l-1.05251,-0.4631zm-13.68261,1.01041c4.25213,8.50427 2.39972,19.45035 7.91486,27.44942c1.72611,2.52602 4.12583,4.92574 6.35715,6.90445l-0.0842,0.0842c-2.02082,-0.92621 -3.83113,-2.35762 -5.68355,-3.87323c-9.64098,-8.04116 -24.16559,-9.05157 -29.93334,-22.10268c1.55771,9.59888 9.17787,18.10314 17.42954,23.49199c7.83066,5.13624 17.85054,4.54684 26.52321,7.40966c-8.04116,-6.48345 -9.26207,-16.20863 -12.8406,-24.7129c-2.18922,-5.26254 -5.80985,-10.01988 -9.68308,-14.65092zm140.78352,0c-3.87323,4.63104 -7.49386,9.38837 -9.72518,14.69302c-3.57853,8.50427 -4.79944,18.22944 -12.8406,24.7129c8.67267,-2.86282 18.73465,-2.31552 26.52321,-7.40966c8.20957,-5.38884 15.82973,-13.89311 17.42954,-23.49199c-5.76775,13.0932 -20.29236,14.10361 -29.93334,22.10268c-1.85241,1.51561 -3.66273,2.94702 -5.68355,3.87323l-0.0842,-0.0842c2.23132,-2.02082 4.63104,-4.42054 6.35715,-6.90445c5.51514,-8.04116 3.70483,-18.98725 7.95696,-27.49152zm-109.79767,3.07332c0.63151,0 1.43141,0.71571 1.51561,1.01041c0.0421,0.1684 0.2526,0.3789 0.4631,0.5473l-1.05251,1.05251c-0.63151,-0.67361 -1.26301,-1.34721 -1.89452,-2.06292l0.2947,0c0.1684,-0.421 0.3789,-0.5473 0.67361,-0.5473zm41.08993,3.91533c0.1263,0 0.2526,0 0.3789,0c0.421,0.0421 0.88411,0.1263 1.17881,0.3368c0.75781,0.5894 1.81031,0.2105 1.81031,0.2105l0.75781,0.92621c-1.64191,0.2526 -3.28383,0.3789 -4.96784,0.421l0,-1.68401c0.1684,-0.0842 0.4631,-0.1684 0.84201,-0.2105l0,0zm36.75359,1.05251l8.84107,8.84107c-4.92574,4.79944 -10.56718,8.84107 -16.75593,11.9986c-8.92527,4.54684 -18.98725,7.15706 -29.63864,7.28336l0,-12.5038c5.05204,-0.0842 10.01988,-0.84201 14.86142,-2.27342l1.22091,0.3789l0.3368,1.13671l0.5473,-0.0842l0.421,-0.3368l1.68401,-0.0842l0.84201,-0.79991l0.92621,-0.1263l6.60975,-5.59934c3.57853,-2.23132 6.98866,-4.84154 10.10408,-7.83066l0,0zm-31.82785,2.02082l0.1263,0.3368l1.17881,0.3368l0.84201,0.2105l0.2947,1.22091l0.63151,0.0842l0.2105,0.79991c0.75781,0.5894 -0.2105,1.76821 -0.2105,1.76821l0,1.55771l0.5473,0.2947l-0.0842,0.5894l0.92621,0.92621l1.05251,0.0842l1.72611,1.85241c-4.25213,1.13671 -8.67267,1.76821 -13.0511,1.85241l0,-11.32499c1.97872,-0.0842 3.91533,-0.2526 5.80985,-0.5894zm-16.88223,1.17881l-0.421,0.3368l-0.2105,0.1684l0.2105,0.1684l0.5052,0.3368l0.2526,-0.3368l-0.2947,-0.2105l0.2105,-0.1684l-0.2526,-0.2947zm4.96784,5.09414l-0.2105,0.3789l0.421,0.2105l-0.1263,0.1684l0.2947,0.2947l0.3368,-0.3789l0.2105,-0.2105l-0.2526,-0.1263l-0.67361,-0.3368zm-35.44848,3.57853l0.5473,0.84201l0.0842,0.63151l0.71571,0.2105l0.2947,0.421l0.5052,-0.2947l-0.3368,-0.92621l-0.92621,-0.79991l-0.88411,-0.0842zm-15.74552,0.79991c5.26254,7.07286 6.73605,17.34534 16.33493,20.92387c1.68401,0.63151 3.66273,0.75781 5.13624,1.68401c-1.85241,0.2947 -3.45223,-0.2947 -5.17834,-0.67361c-12.3775,-2.61022 -27.44942,0.75781 -36.71149,-9.76728c3.53643,6.90445 10.73559,12.3354 17.72424,14.60882c10.77769,3.57853 22.01847,-0.421 32.12255,-2.90492c1.47351,-0.3789 3.24173,-0.2526 4.58894,-0.75781c-5.64144,-1.13671 -11.07239,-2.86282 -15.45082,-6.86235c-6.31505,-5.68355 -11.87229,-11.78809 -18.56625,-16.25073l0,0zm112.9973,0c-6.69395,4.46264 -12.2512,10.56718 -18.52415,16.29283c-4.37843,3.99953 -9.80938,5.68355 -15.45082,6.86235c1.34721,0.5052 3.11542,0.3789 4.58894,0.75781c10.10408,2.52602 21.34487,6.48345 32.12255,2.90492c6.94656,-2.31552 14.18781,-7.74646 17.72424,-14.60882c-9.26207,10.52508 -24.37609,7.15706 -36.71149,9.76728c-1.72611,0.3789 -3.32593,0.92621 -5.17834,0.67361c1.47351,-0.92621 3.41013,-1.05251 5.13624,-1.68401c9.55678,-3.62063 11.03029,-13.89311 16.29283,-20.96597l0,0zm-66.68693,22.86048c-9.47258,0 -17.97684,4.58894 -26.31271,8.04116c-7.53596,3.11542 -17.51374,2.52602 -24.20769,-2.10502c3.28383,4.12583 7.70436,6.69395 12.2933,8.42007c8.46217,3.36803 18.35575,0.79991 25.597,-3.83113c5.17834,-3.32593 9.64098,-8.04116 15.82973,-8.04116c1.09461,0 2.18922,0.1263 3.28383,0.3368c1.22091,-0.5052 2.44182,-0.92621 3.66273,-1.30511c-3.28383,-0.92621 -6.69395,-1.51561 -10.14618,-1.51561zm10.18828,1.59981c1.26301,0.3789 2.48392,0.79991 3.66273,1.30511c1.09461,-0.2105 2.18922,-0.3368 3.28383,-0.3368c6.18875,0 10.65138,4.71524 15.82973,8.04116c7.19916,4.63104 17.09274,7.19916 25.597,3.83113c4.54684,-1.72611 8.96737,-4.29423 12.2933,-8.42007c-6.65185,4.58894 -16.67173,5.22044 -24.20769,2.10502c-8.33587,-3.45223 -16.79803,-8.04116 -26.27061,-8.04116c-3.45223,-0.0842 -6.86235,0.5052 -10.18828,1.51561zm3.66273,1.30511c-1.22091,0.2526 -2.44182,0.63151 -3.66273,1.13671c7.78856,3.15753 15.57712,10.86189 22.43948,17.97684c1.38931,-1.13671 2.86282,-2.31552 3.99953,-3.62063c-6.18875,-5.89405 -14.06151,-12.0407 -22.77628,-15.49292zm-3.66273,1.13671c-1.22091,-0.5052 -2.44182,-0.88411 -3.66273,-1.13671c-8.67267,3.49433 -16.58753,9.59888 -22.73418,15.49292c1.13671,1.30511 2.61022,2.52602 3.99953,3.62063c6.82025,-7.11496 14.60882,-14.81932 22.39738,-17.97684z" class="st0"/>
  <path id="svg_2" d="m225.2,353.6c0.6,-0.7 7.4,-3.2 8.7,-3.1c1.5,0 8.7,2.7 8.7,3.1c-0.1,0.6 -7.8,2.9 -8.7,2.7c-0.5,0 -8.7,-2.4 -8.7,-2.7z" class="st0"/>
 </g>
</svg>